<svg class="social-svg-icon" width="32" height="32" viewBox="0 0 32 32" fill="none" xmlns="http://www.w3.org/2000/svg">
<circle cx="16" cy="16" r="16" fill="#70E3E1"/>
<path fill-rule="evenodd" clip-rule="evenodd" d="M13.2242 22V13.2285H10.6521V21.9999H13.2242V22ZM11.9384 12.0313C12.835 12.0313 13.3936 11.3572 13.3936 10.5155C13.3766 9.65508 12.835 9 11.9552 9C11.0752 9.00003 10.5 9.65511 10.5 10.5155C10.5 11.3572 11.0582 12.0314 11.9215 12.0314L11.9384 12.0313ZM14.6477 22C14.6477 22 14.6815 14.0515 14.6477 13.2285H17.2202V14.5006H17.2032C17.5414 13.902 18.1508 13.0225 19.5384 13.0225C21.2312 13.0225 22.5 14.2762 22.5 16.9705V22H19.9279V17.3075C19.9279 16.1284 19.5557 15.3238 18.6247 15.3238C17.9142 15.3238 17.4908 15.8663 17.3048 16.3906C17.2368 16.5772 17.2202 16.8393 17.2202 17.1015V22H14.6477Z" fill="white"/>
</svg>
