<svg width="424" height="282" viewBox="0 0 424 282" fill="none" xmlns="http://www.w3.org/2000/svg">
<g clip-path="url(#clip0_1956_5245)">
<path d="M424 0H0V282H424V0Z" fill="white"/>
<path d="M106.299 69.8925V62.1618C106.299 61.4054 105.699 60.793 104.96 60.793H103.014C102.444 60.793 101.94 60.397 101.812 59.8291C101.139 56.8273 99.9913 54.0103 98.4436 51.4716C98.1344 50.9648 98.1935 50.3117 98.6059 49.8893L99.9744 48.4902C100.497 47.9555 100.497 47.0889 99.9744 46.5542L94.628 41.0884C94.1049 40.5536 93.2572 40.5536 92.7342 41.0884L91.3671 42.4859C90.954 42.9083 90.3151 42.9679 89.8194 42.6519C87.3361 41.0688 84.5799 39.8945 81.6422 39.2044C81.0867 39.0739 80.7001 38.5588 80.7001 37.9765V35.9929C80.7001 35.2364 80.1003 34.624 79.3611 34.624H71.7993C71.0593 34.624 70.4603 35.2372 70.4603 35.9929V37.9765C70.4603 38.5588 70.0729 39.0746 69.5174 39.2051C66.5797 39.8945 63.8228 41.0688 61.3395 42.6519C60.8438 42.9679 60.2049 42.9083 59.7918 42.4859L58.4262 41.0899C57.9031 40.5552 57.0555 40.5552 56.5324 41.0899L51.186 46.5557C50.6629 47.0904 50.6629 47.957 51.186 48.4917L52.553 49.8893C52.9662 50.3117 53.0245 50.9648 52.7153 51.4716C51.1676 54.0111 50.0204 56.8288 49.3461 59.8306C49.2184 60.3985 48.7146 60.7945 48.1443 60.7945H46.2003C45.4604 60.7945 44.8613 61.4076 44.8613 62.1634V69.894C44.8613 70.6505 45.4611 71.2629 46.2003 71.2629H48.145C48.7146 71.2629 49.2192 71.6589 49.3461 72.2261C50.0211 75.2286 51.169 78.0463 52.7161 80.5835C53.0252 81.0903 52.9669 81.7435 52.5538 82.1658L51.1845 83.5657C50.6615 84.1004 50.6615 84.967 51.1845 85.5017L56.5309 90.9682C57.054 91.503 57.9024 91.503 58.4247 90.9682L59.7947 89.5677C60.2079 89.1453 60.8467 89.0857 61.3418 89.401C63.8243 90.9818 66.579 92.1531 69.516 92.8425C70.0715 92.9729 70.4588 93.4881 70.4588 94.0711V96.0652C70.4588 96.8217 71.0586 97.4341 71.7978 97.4341H79.3597C80.0996 97.4341 80.6987 96.8209 80.6987 96.0652V94.0711C80.6987 93.4881 81.086 92.9729 81.6415 92.8425C84.5777 92.1539 87.3324 90.9818 89.8142 89.401C90.31 89.0857 90.9488 89.1453 91.3612 89.5677L92.732 90.969C93.255 91.5037 94.1034 91.5037 94.6258 90.969L99.9722 85.5025C100.495 84.9677 100.495 84.1004 99.9722 83.5664L98.6022 82.1666C98.1891 81.7442 98.1308 81.0911 98.4399 80.5843C99.9869 78.0463 101.134 75.2301 101.808 72.2276C101.936 71.6596 102.44 71.2637 103.01 71.2637H104.958C105.699 71.2614 106.299 70.6482 106.299 69.8925ZM75.578 87.8232C63.8029 87.8232 54.2705 78.0584 54.2705 66.0204C54.2705 54.0005 63.8029 44.2365 75.578 44.2365C87.3538 44.2365 96.8862 54.0013 96.8862 66.0204C96.8862 78.0591 87.3538 87.8232 75.578 87.8232Z" stroke="#A4EBEB" stroke-opacity="0.29" stroke-width="0.831422" stroke-miterlimit="10"/>
<path d="M141.078 96.0607V90.7925C141.078 90.2774 140.669 89.8595 140.165 89.8595H138.839C138.45 89.8595 138.107 89.5895 138.02 89.2026C137.561 87.1572 136.779 85.2369 135.724 83.5068C135.514 83.1614 135.553 82.7164 135.834 82.429L136.767 81.4757C137.123 81.1114 137.123 80.5208 136.767 80.1558L133.123 76.4308C132.767 76.0665 132.189 76.0665 131.832 76.4308L130.9 77.3833C130.619 77.6714 130.183 77.7114 129.845 77.4964C128.153 76.4172 126.275 75.617 124.273 75.1471C123.895 75.0581 123.631 74.7074 123.631 74.3099V72.9584C123.631 72.4432 123.223 72.0254 122.719 72.0254H117.566C117.062 72.0254 116.653 72.4432 116.653 72.9584V74.3099C116.653 74.7066 116.389 75.0581 116.011 75.1471C114.008 75.617 112.129 76.4172 110.437 77.4957C110.099 77.7107 109.664 77.6699 109.382 77.3826L108.452 76.4315C108.095 76.0672 107.518 76.0672 107.161 76.4315L103.517 80.1566C103.161 80.5209 103.161 81.1114 103.517 81.4764L104.449 82.429C104.73 82.7164 104.77 83.1621 104.559 83.5075C103.504 85.2377 102.722 87.1587 102.263 89.2041C102.176 89.591 101.833 89.861 101.445 89.861H100.12C99.6157 89.861 99.207 90.2789 99.207 90.794V96.0622C99.207 96.5773 99.6157 96.9951 100.12 96.9951H101.445C101.833 96.9951 102.177 97.2651 102.264 97.652C102.724 99.6982 103.507 101.618 104.561 103.348C104.771 103.693 104.731 104.138 104.45 104.426L103.518 105.38C103.161 105.745 103.161 106.335 103.518 106.7L107.161 110.425C107.518 110.789 108.096 110.789 108.452 110.425L109.386 109.47C109.667 109.182 110.103 109.141 110.441 109.357C112.132 110.434 114.01 111.232 116.011 111.702C116.39 111.791 116.654 112.141 116.654 112.539V113.898C116.654 114.413 117.063 114.831 117.566 114.831H122.72C123.224 114.831 123.632 114.413 123.632 113.898V112.539C123.632 112.141 123.896 111.791 124.275 111.702C126.276 111.232 128.153 110.434 129.845 109.357C130.183 109.142 130.618 109.182 130.899 109.47L131.833 110.425C132.189 110.79 132.768 110.79 133.124 110.425L136.768 106.7C137.124 106.336 137.124 105.745 136.768 105.38L135.834 104.426C135.552 104.139 135.512 103.693 135.723 103.348C136.777 101.618 137.559 99.699 138.019 97.6528C138.106 97.2659 138.449 96.9959 138.838 96.9959H140.165C140.669 96.9944 141.078 96.5765 141.078 96.0607ZM120.142 107.443C112.57 107.443 106.441 101.164 106.441 93.4232C106.441 85.694 112.57 79.4152 120.142 79.4152C127.714 79.4152 133.844 85.694 133.844 93.4232C133.844 101.164 127.714 107.443 120.142 107.443Z" fill="#A4EBEB" fill-opacity="0.29"/>
<path d="M44.039 235.551C45.4186 235.551 46.537 234.408 46.537 232.997C46.537 231.587 45.4186 230.443 44.039 230.443C42.6594 230.443 41.541 231.587 41.541 232.997C41.541 234.408 42.6594 235.551 44.039 235.551Z" fill="#44A6D1"/>
<path d="M378.703 165.771C380.083 165.771 381.201 164.627 381.201 163.217C381.201 161.806 380.083 160.663 378.703 160.663C377.323 160.663 376.205 161.806 376.205 163.217C376.205 164.627 377.323 165.771 378.703 165.771Z" fill="#44A6D1"/>
<path d="M373.707 74.5802C375.087 74.5802 376.205 73.4368 376.205 72.0264C376.205 70.616 375.087 69.4727 373.707 69.4727C372.327 69.4727 371.209 70.616 371.209 72.0264C371.209 73.4368 372.327 74.5802 373.707 74.5802Z" fill="#44A6D1"/>
<path d="M283.889 42.6316C284.755 42.6316 285.456 41.9144 285.456 41.0297C285.456 40.145 284.755 39.4277 283.889 39.4277C283.024 39.4277 282.322 40.145 282.322 41.0297C282.322 41.9144 283.024 42.6316 283.889 42.6316Z" fill="#44A6D1"/>
<path d="M53.8175 19.6918C53.8175 20.5765 53.1159 21.2937 52.2506 21.2937C51.3852 21.2937 50.6836 20.5765 50.6836 19.6918C50.6836 18.8071 51.3852 18.0898 52.2506 18.0898C53.1159 18.0898 53.8175 18.8071 53.8175 19.6918Z" fill="#44A6D1"/>
<path d="M88.4992 118.341C88.4992 119.226 87.7976 119.943 86.9322 119.943C86.0668 119.943 85.3652 119.226 85.3652 118.341C85.3652 117.457 86.0668 116.739 86.9322 116.739C87.7976 116.739 88.4992 117.457 88.4992 118.341Z" fill="#44A6D1"/>
<path d="M31.0128 235.552C31.0128 236.437 30.3112 237.154 29.4459 237.154C28.5805 237.154 27.8789 236.437 27.8789 235.552C27.8789 234.667 28.5805 233.95 29.4459 233.95C30.3112 233.95 31.0128 234.667 31.0128 235.552Z" fill="#44A6D1"/>
<path d="M342.057 237.061C343.436 237.061 344.555 235.917 344.555 234.507C344.555 233.096 343.436 231.953 342.057 231.953C340.677 231.953 339.559 233.096 339.559 234.507C339.559 235.917 340.677 237.061 342.057 237.061Z" fill="#44A6D1"/>
<path d="M395.176 237.061C396.555 237.061 397.674 235.917 397.674 234.507C397.674 233.096 396.555 231.953 395.176 231.953C393.796 231.953 392.678 233.096 392.678 234.507C392.678 235.917 393.796 237.061 395.176 237.061Z" fill="#44A6D1"/>
<path d="M96.8867 15.2823C98.2663 15.2823 99.3847 14.139 99.3847 12.7286C99.3847 11.3182 98.2663 10.1748 96.8867 10.1748C95.5071 10.1748 94.3887 11.3182 94.3887 12.7286C94.3887 14.139 95.5071 15.2823 96.8867 15.2823Z" fill="#44A6D1"/>
<path d="M269.242 128.92C269.242 130.807 267.745 132.338 265.899 132.338C264.054 132.338 262.557 130.808 262.557 128.92C262.557 127.032 264.053 125.503 265.899 125.503C267.746 125.503 269.242 127.033 269.242 128.92Z" fill="#44A6D1"/>
<path d="M22.7128 86.6664C22.7128 88.5534 21.2166 90.0837 19.3701 90.0837C17.5242 90.0837 16.0273 88.5534 16.0273 86.6664C16.0273 84.7793 17.5235 83.249 19.3701 83.249C21.2166 83.2498 22.7128 84.7793 22.7128 86.6664Z" fill="#44A6D1"/>
<path d="M13.3088 35.6587H9.10509C8.83433 35.6587 8.61523 35.4347 8.61523 35.1579V30.8612C8.61523 30.5844 8.83433 30.3604 9.10509 30.3604H13.3088C13.5795 30.3604 13.7986 30.5844 13.7986 30.8612V35.1579C13.7986 35.4347 13.5795 35.6587 13.3088 35.6587Z" fill="white"/>
<path d="M20.2423 35.6587H16.0387C15.7679 35.6587 15.5488 35.4347 15.5488 35.1579V30.8612C15.5488 30.5844 15.7679 30.3604 16.0387 30.3604H20.2423C20.5131 30.3604 20.7322 30.5844 20.7322 30.8612V35.1579C20.7322 35.4347 20.5131 35.6587 20.2423 35.6587Z" fill="white"/>
<path d="M27.1752 35.6587H22.9723C22.7015 35.6587 22.4824 35.4347 22.4824 35.1579V30.8612C22.4824 30.5844 22.7015 30.3604 22.9723 30.3604H27.1752C27.4459 30.3604 27.6651 30.5844 27.6651 30.8612V35.1579C27.6651 35.4347 27.4459 35.6587 27.1752 35.6587Z" fill="white"/>
<path d="M366.375 221.748H362.172C361.901 221.748 361.682 221.524 361.682 221.247V216.95C361.682 216.673 361.901 216.449 362.172 216.449H366.375C366.646 216.449 366.865 216.673 366.865 216.95V221.247C366.865 221.524 366.646 221.748 366.375 221.748Z" fill="#A4EBEB" fill-opacity="0.29"/>
<path d="M373.309 221.748H369.105C368.834 221.748 368.615 221.524 368.615 221.247V216.95C368.615 216.673 368.834 216.449 369.105 216.449H373.309C373.58 216.449 373.799 216.673 373.799 216.95V221.247C373.799 221.524 373.58 221.748 373.309 221.748Z" fill="#A4EBEB" fill-opacity="0.29"/>
<path d="M380.242 221.748H376.039C375.768 221.748 375.549 221.524 375.549 221.247V216.95C375.549 216.673 375.768 216.449 376.039 216.449H380.242C380.513 216.449 380.732 216.673 380.732 216.95V221.247C380.732 221.524 380.513 221.748 380.242 221.748Z" fill="#A4EBEB" fill-opacity="0.29"/>
<path d="M45.8517 218.847H41.6481C41.3773 218.847 41.1582 218.623 41.1582 218.346V214.05C41.1582 213.773 41.3773 213.549 41.6481 213.549H45.8517C46.1225 213.549 46.3416 213.773 46.3416 214.05V218.346C46.3416 218.622 46.1217 218.847 45.8517 218.847Z" fill="#A4EBEB" fill-opacity="0.29"/>
<path d="M52.7853 218.847H48.5817C48.3109 218.847 48.0918 218.623 48.0918 218.346V214.05C48.0918 213.773 48.3109 213.549 48.5817 213.549H52.7853C53.0561 213.549 53.2752 213.773 53.2752 214.05V218.346C53.2752 218.622 53.0561 218.847 52.7853 218.847Z" fill="#A4EBEB" fill-opacity="0.29"/>
<path d="M59.7182 218.847H55.5153C55.2445 218.847 55.0254 218.623 55.0254 218.346V214.05C55.0254 213.773 55.2445 213.549 55.5153 213.549H59.7182C59.9889 213.549 60.208 213.773 60.208 214.05V218.346C60.208 218.622 59.9889 218.847 59.7182 218.847Z" fill="#A4EBEB" fill-opacity="0.29"/>
<path d="M233.758 264.389H133.94C125.241 264.389 118.189 257.18 118.189 248.287V21.1466C118.189 12.2537 125.241 5.04492 133.94 5.04492H233.758C242.456 5.04492 249.508 12.2537 249.508 21.1466V248.287C249.508 257.18 242.456 264.389 233.758 264.389Z" fill="#034EB9"/>
<path d="M233.253 260.702H134.444C126.825 260.702 120.648 254.388 120.648 246.599V21.4192C120.648 13.6297 126.825 7.31543 134.444 7.31543H233.254C240.873 7.31543 247.05 13.6297 247.05 21.4192V246.599C247.049 254.388 240.872 260.702 233.253 260.702Z" fill="white"/>
<path d="M241.514 20.9781V245.896C241.514 251.171 237.331 255.447 232.171 255.447H135.522C130.363 255.447 126.18 251.171 126.18 245.896V20.9781C126.18 15.7031 130.363 11.4268 135.522 11.4268H151.639C152.533 11.4268 153.351 11.9434 153.752 12.761L155.464 16.2537C156.243 17.8655 157.853 18.8746 159.604 18.8746H208.09C209.84 18.8746 211.45 17.8655 212.23 16.2537L213.942 12.761C214.342 11.9434 215.16 11.4268 216.054 11.4268H232.171C237.331 11.4268 241.514 15.7024 241.514 20.9781Z" fill="#A4EBEB" fill-opacity="0.29"/>
<path d="M204.196 14.7881H165.144C164.236 14.7881 163.5 14.0354 163.5 13.1069C163.5 12.1785 164.236 11.4258 165.144 11.4258H204.196C205.104 11.4258 205.841 12.1785 205.841 13.1069C205.841 14.0354 205.104 14.7881 204.196 14.7881Z" fill="#A4EBEB" fill-opacity="0.29"/>
<path d="M226.174 247.64H139.273C135.859 247.64 133.092 244.811 133.092 241.321V209.951C133.092 206.461 135.859 203.632 139.273 203.632H226.174C229.588 203.632 232.355 206.461 232.355 209.951V241.321C232.355 244.811 229.588 247.64 226.174 247.64Z" stroke="#5ECADA" stroke-width="1.05297" stroke-miterlimit="10" stroke-linecap="round" stroke-linejoin="round" stroke-dasharray="2.99 2.99"/>
<path d="M221.769 139.647H178.66C176.197 139.647 174.201 137.606 174.201 135.088V113.307C174.201 110.789 176.197 108.748 178.66 108.748H221.769C224.231 108.748 226.228 110.789 226.228 113.307V135.088C226.228 137.606 224.231 139.647 221.769 139.647Z" stroke="#5ECADA" stroke-width="1.05297" stroke-miterlimit="10" stroke-linecap="round" stroke-linejoin="round" stroke-dasharray="2.99 2.99"/>
<path d="M231.052 196.312H142.02C139.086 196.312 136.707 193.88 136.707 190.881V152.491C136.707 149.491 139.086 147.06 142.02 147.06H231.052C233.986 147.06 236.364 149.491 236.364 152.491V190.881C236.364 193.88 233.986 196.312 231.052 196.312Z" fill="#4B5A9B"/>
<path d="M232.355 148.498V186.91C232.355 189.904 229.98 192.325 227.051 192.325H138.396C135.467 192.325 133.092 189.904 133.092 186.91V148.498C133.092 145.504 135.467 143.075 138.396 143.075H227.051C229.98 143.075 232.355 145.504 232.355 148.498Z" fill="#B3DDEE"/>
<path d="M167.384 188.323H141.266C139.285 188.323 137.68 186.682 137.68 184.657V157.955C137.68 155.931 139.285 154.289 141.266 154.289H167.384C169.365 154.289 170.97 155.93 170.97 157.955V184.657C170.97 186.682 169.365 188.323 167.384 188.323Z" fill="white"/>
<path d="M198.336 158.596H175.334C174.708 158.596 174.201 158.078 174.201 157.438C174.201 156.798 174.708 156.28 175.334 156.28H198.336C198.961 156.28 199.468 156.798 199.468 157.438C199.469 158.078 198.961 158.596 198.336 158.596Z" fill="#44A6D1"/>
<path d="M187.854 163.218H175.334C174.708 163.218 174.201 162.7 174.201 162.06C174.201 161.42 174.708 160.902 175.334 160.902H187.854C188.479 160.902 188.986 161.42 188.986 162.06C188.986 162.699 188.479 163.218 187.854 163.218Z" fill="#44A6D1"/>
<path d="M226.341 163.218H192.463C191.837 163.218 191.33 162.7 191.33 162.06C191.33 161.42 191.837 160.902 192.463 160.902H226.341C226.967 160.902 227.474 161.42 227.474 162.06C227.474 162.699 226.966 163.218 226.341 163.218Z" fill="#44A6D1"/>
<path d="M194.705 167.842H175.334C174.708 167.842 174.201 167.324 174.201 166.684C174.201 166.045 174.708 165.526 175.334 165.526H194.705C195.33 165.526 195.837 166.045 195.837 166.684C195.837 167.324 195.329 167.842 194.705 167.842Z" fill="#44A6D1"/>
<path d="M211.148 167.842H198.97C198.345 167.842 197.838 167.324 197.838 166.684C197.838 166.045 198.345 165.526 198.97 165.526H211.148C211.774 165.526 212.281 166.045 212.281 166.684C212.281 167.324 211.773 167.842 211.148 167.842Z" fill="#44A6D1"/>
<path d="M226.341 167.842H215.127C214.501 167.842 213.994 167.324 213.994 166.684C213.994 166.045 214.501 165.526 215.127 165.526H226.341C226.967 165.526 227.473 166.045 227.473 166.684C227.473 167.324 226.966 167.842 226.341 167.842Z" fill="#44A6D1"/>
<path d="M226.34 172.464H175.334C174.708 172.464 174.201 171.946 174.201 171.306C174.201 170.667 174.708 170.148 175.334 170.148H226.34C226.966 170.148 227.473 170.667 227.473 171.306C227.473 171.946 226.965 172.464 226.34 172.464Z" fill="#44A6D1"/>
<path d="M203.405 177.087H175.334C174.708 177.087 174.201 176.569 174.201 175.929C174.201 175.29 174.708 174.771 175.334 174.771H203.405C204.031 174.771 204.538 175.29 204.538 175.929C204.538 176.569 204.03 177.087 203.405 177.087Z" fill="#44A6D1"/>
<path d="M226.339 177.087H207.931C207.306 177.087 206.799 176.569 206.799 175.929C206.799 175.29 207.306 174.771 207.931 174.771H226.339C226.965 174.771 227.472 175.29 227.472 175.929C227.472 176.569 226.964 177.087 226.339 177.087Z" fill="#44A6D1"/>
<path d="M191.827 181.709H175.334C174.708 181.709 174.201 181.191 174.201 180.551C174.201 179.912 174.708 179.394 175.334 179.394H191.827C192.453 179.394 192.96 179.912 192.96 180.551C192.96 181.191 192.453 181.709 191.827 181.709Z" fill="#44A6D1"/>
<path d="M212.784 181.709H196.291C195.665 181.709 195.158 181.191 195.158 180.551C195.158 179.912 195.665 179.394 196.291 179.394H212.784C213.41 179.394 213.917 179.912 213.917 180.551C213.917 181.191 213.41 181.709 212.784 181.709Z" fill="#44A6D1"/>
<path d="M226.34 181.709H216.769C216.144 181.709 215.637 181.191 215.637 180.551C215.637 179.912 216.144 179.394 216.769 179.394H226.34C226.965 179.394 227.472 179.912 227.472 180.551C227.472 181.191 226.965 181.709 226.34 181.709Z" fill="#44A6D1"/>
<path d="M198.336 186.332H175.334C174.708 186.332 174.201 185.814 174.201 185.174C174.201 184.535 174.708 184.017 175.334 184.017H198.336C198.961 184.017 199.468 184.535 199.468 185.174C199.469 185.813 198.961 186.332 198.336 186.332Z" fill="#44A6D1"/>
<path d="M226.342 158.596H203.339C202.714 158.596 202.207 158.078 202.207 157.438C202.207 156.798 202.714 156.28 203.339 156.28H226.342C226.967 156.28 227.474 156.798 227.474 157.438C227.474 158.078 226.966 158.596 226.342 158.596Z" fill="#44A6D1"/>
<path d="M232.355 148.498V150.112H133.092V148.498C133.092 145.504 135.467 143.075 138.396 143.075H227.051C229.98 143.075 232.355 145.504 232.355 148.498Z" fill="#034EB9"/>
<path d="M213.645 146.72C213.645 147.415 213.095 147.977 212.415 147.977C211.736 147.977 211.186 147.415 211.186 146.72C211.186 146.026 211.736 145.463 212.415 145.463C213.095 145.463 213.645 146.026 213.645 146.72Z" fill="#A4EBEB" fill-opacity="0.29"/>
<path d="M219.936 146.72C219.936 147.415 219.386 147.977 218.706 147.977C218.027 147.977 217.477 147.415 217.477 146.72C217.477 146.026 218.027 145.463 218.706 145.463C219.386 145.463 219.936 146.026 219.936 146.72Z" fill="#A4EBEB" fill-opacity="0.29"/>
<path d="M226.227 146.72C226.227 147.415 225.677 147.977 224.997 147.977C224.318 147.977 223.768 147.415 223.768 146.72C223.768 146.026 224.318 145.463 224.997 145.463C225.676 145.464 226.227 146.026 226.227 146.72Z" fill="#A4EBEB" fill-opacity="0.29"/>
<path d="M163.825 139.648H144.18C141.267 139.648 138.904 137.233 138.904 134.255V114.171C138.904 111.192 141.267 108.777 144.18 108.777H163.825C166.739 108.777 169.101 111.192 169.101 114.171V134.255C169.1 137.234 166.739 139.648 163.825 139.648Z" stroke="#034EB9" stroke-width="0.943036" stroke-miterlimit="10"/>
<path d="M149.292 119.746L144.941 124.194L149.327 128.676" stroke="#034EB9" stroke-width="1.76014" stroke-miterlimit="10" stroke-linecap="round" stroke-linejoin="round"/>
<path d="M158.712 119.746L163.062 124.194L158.678 128.676" stroke="#034EB9" stroke-width="1.76014" stroke-miterlimit="10" stroke-linecap="round" stroke-linejoin="round"/>
<path d="M156.039 119.746L151.965 128.676" stroke="#034EB9" stroke-width="1.76014" stroke-miterlimit="10" stroke-linecap="round" stroke-linejoin="round"/>
<path d="M232.355 33.4273V96.2306C232.355 99.6396 229.655 102.4 226.32 102.4H139.127C135.799 102.4 133.092 99.6396 133.092 96.2306V33.4273C133.092 30.0182 135.799 27.2578 139.127 27.2578H226.32C229.655 27.2578 232.355 30.0182 232.355 33.4273Z" fill="#44A6D1"/>
<path d="M212.251 61.8098C220.196 61.8098 226.637 55.2252 226.637 47.1027C226.637 38.9801 220.196 32.3955 212.251 32.3955C204.306 32.3955 197.865 38.9801 197.865 47.1027C197.865 55.2252 204.306 61.8098 212.251 61.8098Z" fill="#F5F5F5"/>
<path d="M191.44 102.4H139.127C135.799 102.4 133.092 99.6401 133.092 96.231V86.3433L155.984 45.8043C157.179 43.685 160.174 43.685 161.369 45.8043L178.655 76.4103L191.491 99.1423C192.111 100.228 192.015 101.465 191.44 102.4Z" fill="white"/>
<path d="M213.999 102.4H163.973L178.654 76.4095L186.562 62.4038C187.639 60.4956 190.332 60.4956 191.409 62.4038L213.999 102.4Z" fill="#F5F5F5"/>
<path d="M313.224 219.096H274.658V278.349H313.224V219.096Z" fill="#034EB9"/>
<path d="M313.224 278.35H327.99V219.096H313.224V278.35Z" fill="#034EB9"/>
<path d="M326.18 221.372H315.338V223.263H326.18V221.372Z" fill="#44A6D1"/>
<path d="M326.18 225.435H315.338V227.325H326.18V225.435Z" fill="#44A6D1"/>
<path d="M326.18 229.498H315.338V231.389H326.18V229.498Z" fill="#44A6D1"/>
<path d="M326.18 233.56H315.338V235.45H326.18V233.56Z" fill="#44A6D1"/>
<path d="M326.18 237.62H315.338V239.511H326.18V237.62Z" fill="#44A6D1"/>
<path d="M326.18 241.685H315.338V243.575H326.18V241.685Z" fill="#44A6D1"/>
<path d="M326.18 245.746H315.338V247.637H326.18V245.746Z" fill="#44A6D1"/>
<path d="M326.18 249.809H315.338V251.699H326.18V249.809Z" fill="#44A6D1"/>
<path d="M326.18 253.873H315.338V255.764H326.18V253.873Z" fill="#44A6D1"/>
<path d="M326.18 257.935H315.338V259.825H326.18V257.935Z" fill="#44A6D1"/>
<path d="M326.18 261.995H315.338V263.886H326.18V261.995Z" fill="#44A6D1"/>
<path d="M326.18 266.059H315.338V267.949H326.18V266.059Z" fill="#44A6D1"/>
<path d="M326.18 270.121H315.338V272.012H326.18V270.121Z" fill="#44A6D1"/>
<path d="M326.18 274.184H315.338V276.074H326.18V274.184Z" fill="#44A6D1"/>
<path d="M268.395 278.348H287.995C287.995 278.348 289.091 274.78 286.716 270.359C286.716 270.359 285.138 271.653 280.413 270.778C280.413 270.778 278.441 272.49 277.079 273.159C275.71 273.837 267.866 275.412 268.395 278.348Z" fill="#263238"/>
<path d="M269.763 221.846C271.029 229.568 276.87 255.695 279.381 271.13C283.971 271.529 286.175 270.991 287.343 270.716C287.114 265.334 286.661 252.46 286.715 246.814C286.802 237.272 287.24 224.69 283.131 217.784L269.316 218.896C269.401 219.642 269.477 220.248 269.544 220.682C269.611 221.098 269.687 221.482 269.763 221.846Z" fill="#263238"/>
<path d="M232.941 278.348H252.542C252.542 278.348 253.637 274.78 251.263 270.359C251.263 270.359 249.685 271.653 244.96 270.778C244.96 270.778 242.988 272.49 241.626 273.159C240.257 273.837 232.413 275.412 232.941 278.348Z" fill="#263238"/>
<path d="M244.391 270.679C248.136 271.627 250.849 271.534 252.133 271.387C253.176 265.183 254.822 251.532 256.304 245.134C258.602 235.189 260.853 221.511 259.289 216.632L245.7 213.143C245.654 213.582 244.548 255.443 244.391 270.679Z" fill="#263238"/>
<path d="M298.477 198.9C298.204 196.155 297.89 194.149 297.89 194.149L282.707 197.948L269.81 200.952C265.029 202.041 259.253 203.352 254.161 204.529C248.447 205.856 244.654 210.293 245.905 216.143L247.337 223.238C255.329 223.126 292.904 219.444 296.118 217.785C299.749 215.91 300.842 209.282 298.477 198.9Z" fill="#263238"/>
<path d="M321.143 198.902C320.87 196.157 319.561 193.211 319.561 193.211L305.373 197.95L292.476 200.954C287.695 202.044 281.919 203.354 276.827 204.531C271.113 205.858 267.32 210.295 268.571 216.145L270.003 223.24C277.995 223.128 311.399 221.938 318.784 217.787C322.348 215.783 323.508 209.284 321.143 198.902Z" fill="#263238"/>
<path d="M278.647 176.654C278.647 176.654 285.391 173.54 287.247 176.663C288.263 178.373 287.56 181.549 285.26 182.882C282.96 184.216 269.963 189.835 257.697 192.969C257.697 192.969 257.172 191.224 256.328 189.392C256.328 189.392 261.831 187.058 267.302 183.13C272.772 179.202 278.647 176.654 278.647 176.654Z" fill="#FFBE9D"/>
<path d="M280.332 155.125L274.553 178.725C274.553 178.725 275.15 184.692 281.044 181.763C286.938 178.834 290.844 160.033 290.844 160.033L280.332 155.125Z" fill="#FFBE9D"/>
<path d="M290.111 168.325C289.396 168.148 288.714 167.955 288.056 167.753C287.381 167.552 286.74 167.341 286.132 167.122C280.64 165.198 277.672 162.886 277.672 162.886C279.398 155.213 281.479 150.06 283.328 146.664C283.378 146.581 283.427 146.505 283.468 146.413C283.518 146.329 283.567 146.244 283.617 146.161C284.611 144.471 286.042 143.051 287.637 141.883C287.801 141.765 287.958 141.656 288.122 141.538L288.804 153.86L288.92 155.129L290.111 168.325Z" fill="#0149B8"/>
<path d="M290.11 168.326C289.395 168.15 288.713 167.957 288.055 167.755C287.381 167.553 286.739 167.343 286.131 167.124C287.284 158.824 288.326 153.609 288.326 153.609L288.918 155.131L290.11 168.326Z" fill="#C7E5F2"/>
<path d="M324.228 147.019C324.089 150.667 323.464 156.525 322.921 162.409C322.748 164.275 322.584 166.149 322.444 167.956C322.345 169.082 320.685 175.092 320.619 176.168C320.323 181.312 317.857 185.161 320.192 192.995C320.751 194.869 320.89 195.836 320.89 196.609C320.89 197.147 320.208 197.71 319.936 197.861C318.958 198.441 317.034 198.844 314.699 199.138H314.691C310.096 199.71 303.896 199.82 300.155 199.82C295.132 199.82 287.593 199.004 286.639 197.71C285.768 196.525 286.574 194.802 286.985 192.423C288.834 181.69 288.177 176.092 288.062 168.343C288.062 168.15 288.053 167.956 288.053 167.755C287.865 155.803 287.091 145.574 287.634 141.885C287.799 141.767 287.955 141.658 288.12 141.54C288.917 140.985 289.699 140.489 290.455 140.052C290.52 140.018 290.603 139.968 290.685 139.918C290.915 139.783 291.153 139.658 291.376 139.531C291.457 139.48 291.548 139.438 291.639 139.397C293.341 138.547 295.823 137.64 297.246 137.135C297.427 137.077 297.591 137.018 297.73 136.976C299.071 136.892 300.526 136.874 302.096 136.917C303.461 136.959 305.549 137.144 307.818 137.446C307.826 137.446 307.826 137.446 307.826 137.446C310.392 137.783 313.195 138.278 315.423 138.9C315.423 138.9 315.447 138.909 315.464 138.917C315.883 139.051 318.605 140.093 321.442 143.195C322.386 144.22 323.356 145.481 324.228 147.019Z" fill="#0149B8"/>
<path d="M320.195 192.993C320.754 194.868 320.894 195.834 320.894 196.608C320.894 197.145 320.211 197.709 319.94 197.86C318.961 198.44 317.037 198.843 314.702 199.137C315.664 199.02 317.325 197.459 317.325 196.052C317.325 195.067 316.075 188.412 316.421 184.118C316.766 179.832 317.448 173.007 316.149 167.543C314.842 162.08 313.617 154.894 313.617 154.894L320.942 159.415C320.942 159.415 321.888 160.768 322.924 162.407C322.751 164.273 322.587 166.147 322.447 167.954C322.349 169.081 317.86 185.16 320.195 192.993Z" fill="#C7E5F2"/>
<path d="M287.965 115.429C287.965 115.429 288.599 123.261 291.139 123.788C293.679 124.314 293.056 120.986 293.056 120.986L292.701 117.267L287.965 115.429Z" fill="#263238"/>
<path d="M299.682 143.816C294.708 143.211 296.565 138.269 297.248 137.134C297.428 137.076 298.284 136.806 298.349 136.765C298.357 136.757 298.365 136.757 298.365 136.757C298.53 136.622 298.653 136.42 298.752 136.168C299.237 134.866 299.015 132.268 298.998 132.1C298.998 132.092 298.998 132.092 298.998 132.092V131.621C299.08 131.31 299.163 131.016 299.229 130.739L301.843 128.637L307.376 124.191C307.376 124.191 305.904 131.629 307.088 136.32C307.179 136.673 307.36 137.169 307.82 137.446C307.82 137.454 307.828 137.446 307.828 137.446C307.977 137.547 308.157 137.614 308.38 137.647C309.736 138.302 307.845 144.808 299.682 143.816Z" fill="#FFBE9D"/>
<path d="M304.065 128.918C304.065 128.918 304.018 133.882 298.748 136.165C299.238 134.869 299.012 132.271 298.997 132.104L301.205 130.331L304.065 128.918Z" fill="#EB996E"/>
<path d="M289.182 116.545C289.182 116.545 290.331 132.796 294.623 134.177C294.623 134.177 300.092 134.703 304.018 129.304C305.149 127.749 306.579 127.399 307.046 125.52C307.804 122.468 308.874 116.84 307.509 113.449C305.566 108.618 289.366 104.783 289.182 116.545Z" fill="#FFBE9D"/>
<path d="M307.575 110.766C307.504 107.814 304.582 106.711 304.582 106.711C301.672 105.319 295.625 105.92 289.391 107.341C287.93 107.675 286.096 106.758 285.075 107.482C283.841 108.357 285.07 112.354 285.07 112.354C287.474 119.799 296.323 117.378 298.982 116.459C299.614 118.376 299.532 121.041 301.109 122.415C302.008 123.198 303.569 123.221 305.156 122.95C305.352 123.33 306.086 123.664 306.235 124.186C306.735 125.927 306.664 128.647 306.648 130.747L307.398 130.372C307.496 129.804 315.257 111.01 307.575 110.766Z" fill="#263238"/>
<path d="M293.586 122.017C293.81 123.366 293.159 124.605 292.132 124.784C291.104 124.963 290.089 124.014 289.865 122.664C289.64 121.315 290.291 120.075 291.319 119.897C292.346 119.718 293.361 120.667 293.586 122.017Z" stroke="white" stroke-width="0.527536" stroke-miterlimit="10"/>
<path d="M298.771 121.025C298.996 122.375 298.345 123.614 297.317 123.793C296.289 123.971 295.274 123.023 295.05 121.673C294.826 120.323 295.477 119.084 296.504 118.905C297.532 118.727 298.547 119.676 298.771 121.025Z" stroke="white" stroke-width="0.527536" stroke-miterlimit="10"/>
<path d="M293.586 122.016C293.586 122.016 293.813 121.639 295.008 121.744" stroke="white" stroke-width="0.527536" stroke-miterlimit="10"/>
<path d="M298.818 121.349L303.251 120.625" stroke="white" stroke-width="0.527536" stroke-miterlimit="10"/>
<path d="M303.574 126.381C306.627 127.577 307.581 119.894 304.682 119.554C302.483 119.296 302.393 122.432 302.393 122.432C302.393 122.432 301.831 125.699 303.574 126.381Z" fill="#FFBE9D"/>
<g opacity="0.5">
<path d="M304.583 120.711C304.583 120.711 304.385 120.918 304.204 121.262C304.022 121.603 303.861 122.071 303.832 122.572C303.803 122.82 303.809 123.075 303.821 123.317C303.829 123.56 303.857 123.789 303.874 123.992C303.895 124.196 303.913 124.367 303.925 124.487C303.936 124.609 303.936 124.683 303.936 124.683C303.936 124.683 303.892 124.627 303.827 124.523C303.771 124.416 303.655 124.274 303.578 124.076C303.492 123.882 303.402 123.647 303.354 123.379C303.295 123.115 303.278 122.819 303.3 122.523C303.328 122.227 303.403 121.931 303.525 121.679C303.642 121.422 303.81 121.216 303.967 121.066C304.296 120.768 304.583 120.711 304.583 120.711Z" fill="#EB996E"/>
<path d="M305.061 122.169C305.061 122.169 304.936 122.182 304.765 122.249C304.594 122.311 304.383 122.434 304.223 122.6C304.06 122.762 303.955 122.963 303.903 123.121C303.847 123.276 303.829 123.386 303.829 123.386L303.326 123.202C303.326 123.202 303.385 123.071 303.508 122.897C303.627 122.722 303.826 122.513 304.065 122.38C304.3 122.242 304.557 122.179 304.747 122.166C304.937 122.147 305.061 122.169 305.061 122.169Z" fill="#EB996E"/>
</g>
<path d="M332.93 179.764C332.93 179.764 332.93 179.764 332.929 179.772C331.587 181.363 326.495 182.523 324.045 180.322C323.276 179.62 322.407 177.773 321.552 175.48C319.38 169.617 317.324 160.847 317.324 160.847L328.719 154.894C328.719 154.894 330.185 161.614 331.448 168C331.448 168 331.459 168.064 331.483 168.177C331.894 170.223 332.277 172.235 332.577 173.962C332.59 174.011 332.594 174.051 332.598 174.099C332.899 176.16 333.093 178.31 332.93 179.764Z" fill="#FFBE9D"/>
<path d="M313.02 152.689C314.12 157.367 317.579 166.232 317.579 166.232C320.002 166.643 323.251 166.187 325.943 165.198C329.05 164.057 331.269 161.661 331.269 161.661C331.269 161.661 328.975 155.07 326.917 150.335C325.069 146.084 323.96 144.497 323.16 143.655C321.955 142.366 320.013 140.887 318.635 140.215L313.02 152.689Z" fill="#0149B8"/>
<path d="M327.43 155.743L320.744 152.793L315.475 138.914C315.475 138.914 316.44 139.214 317.711 139.739C317.711 139.739 317.711 139.739 317.717 139.739C317.742 139.752 317.797 139.77 317.889 139.808C317.919 139.821 317.956 139.833 317.987 139.852C319.124 140.395 323.531 143.051 326.581 152.7C326.605 152.781 326.629 152.862 326.654 152.943C326.978 154.056 327.216 154.949 327.344 155.412C327.357 155.455 327.369 155.499 327.381 155.549C327.4 155.612 327.413 155.68 327.43 155.743Z" fill="#193091"/>
<path d="M332.929 179.765C332.929 179.765 332.929 179.765 332.928 179.773C332.83 180.626 332.599 181.239 332.187 181.456C332.121 181.499 331.186 182.068 331.12 182.111C329.727 182.983 327.2 184.464 324.057 185.846C316.435 189.212 305.361 193.117 299.391 194.906C299.391 194.906 298.802 193.182 297.883 191.386C297.883 191.386 303.283 188.822 308.59 184.666C313.906 180.519 321.55 175.48 321.55 175.48L323.481 173.159C323.481 173.159 330.344 166.701 331.446 168.001C331.446 168.001 331.457 168.066 331.481 168.179C331.645 168.852 332.189 171.33 332.575 173.963C332.588 174.012 332.592 174.052 332.597 174.1C332.898 176.161 333.092 178.31 332.929 179.765Z" fill="#FFBE9D"/>
<path d="M298.673 190.993C298.673 190.993 297.331 191.819 295.963 191.525C295.207 191.362 294.902 191.046 294.343 190.946C293.783 190.846 292.294 190.658 291.556 190.288C290.819 189.918 290.531 189.877 290.557 190.634C290.583 191.391 292.038 192.045 292.433 192.255C292.827 192.465 293.322 193.136 293.375 193.221C293.429 193.305 290.951 194.631 290.284 194.362C290.284 194.362 290.086 194.972 290.199 195.312C290.312 195.653 290.821 195.772 290.861 195.943C290.9 196.115 290.743 196.465 290.854 196.736C290.965 197.008 291.419 197.009 291.603 197.45C291.786 197.892 291.584 197.899 291.718 198.359C291.851 198.82 292.428 198.902 292.537 199.14C292.646 199.377 292.588 199.655 292.83 199.819C293.072 199.982 295.3 199.251 296.114 198.895C296.928 198.538 299.102 195.339 301.508 194.248L298.673 190.993Z" fill="#FFBE9D"/>
<path d="M310.065 205.275H292.73V203.541H310.065C310.534 203.541 310.914 203.929 310.914 204.408C310.914 204.887 310.534 205.275 310.065 205.275Z" fill="#4B5A9B"/>
<path d="M300.685 205.274H257.281C256.762 205.274 256.305 204.919 256.166 204.408L247.283 171.715C247.087 170.992 247.619 170.275 248.354 170.275H290.326C291.304 170.275 292.162 170.942 292.424 171.905L301.276 204.48C301.383 204.879 301.089 205.274 300.685 205.274Z" fill="#4B5A9B"/>
<path d="M299.112 205.274H255.709C255.189 205.274 254.734 204.919 254.594 204.408L245.711 171.715C245.515 170.992 246.047 170.275 246.781 170.275H288.754C289.732 170.275 290.59 170.942 290.852 171.905L299.703 204.48C299.811 204.879 299.517 205.274 299.112 205.274Z" fill="#5ECADA"/>
<path d="M369.161 102.401H330.014C327.505 102.401 325.471 104.481 325.471 107.046V116.501C325.471 118.867 327.202 120.82 329.441 121.108C329.769 121.15 330.014 121.435 330.014 121.773V126.949C330.014 127.248 330.389 127.371 330.56 127.127L334.547 121.427C334.671 121.25 334.871 121.144 335.084 121.144H369.161C371.67 121.144 373.704 119.065 373.704 116.5V107.045C373.704 104.481 371.67 102.401 369.161 102.401Z" stroke="white" stroke-width="0.943036" stroke-miterlimit="10"/>
<path d="M336.022 111.757C336.022 112.602 335.352 113.286 334.527 113.286C333.7 113.286 333.031 112.601 333.031 111.757C333.031 110.913 333.701 110.229 334.527 110.229C335.352 110.229 336.022 110.913 336.022 111.757Z" stroke="white" stroke-width="0.943036" stroke-miterlimit="10"/>
<path d="M343.553 111.757C343.553 112.602 342.883 113.286 342.058 113.286C341.232 113.286 340.562 112.601 340.562 111.757C340.562 110.913 341.232 110.229 342.058 110.229C342.883 110.229 343.553 110.913 343.553 111.757Z" stroke="white" stroke-width="0.943036" stroke-miterlimit="10"/>
<path d="M351.085 111.757C351.085 112.602 350.415 113.286 349.59 113.286C348.764 113.286 348.094 112.601 348.094 111.757C348.094 110.913 348.764 110.229 349.59 110.229C350.415 110.229 351.085 110.913 351.085 111.757Z" stroke="white" stroke-width="0.943036" stroke-miterlimit="10"/>
<path d="M358.617 111.757C358.617 112.602 357.947 113.286 357.121 113.286C356.295 113.286 355.625 112.601 355.625 111.757C355.625 110.913 356.295 110.229 357.121 110.229C357.947 110.229 358.617 110.913 358.617 111.757Z" stroke="white" stroke-width="0.943036" stroke-miterlimit="10"/>
<path d="M366.148 111.757C366.148 112.602 365.478 113.286 364.652 113.286C363.825 113.286 363.156 112.601 363.156 111.757C363.156 110.913 363.826 110.229 364.652 110.229C365.477 110.229 366.148 110.913 366.148 111.757Z" stroke="white" stroke-width="0.943036" stroke-miterlimit="10"/>
<path d="M59.8262 143.853H98.9738C101.483 143.853 103.517 145.932 103.517 148.497V157.952C103.517 160.319 101.785 162.271 99.547 162.559C99.2187 162.602 98.9738 162.887 98.9738 163.224V168.4C98.9738 168.699 98.5983 168.822 98.4279 168.579L94.4404 162.878C94.3164 162.701 94.1165 162.596 93.9033 162.596H59.8262C57.3172 162.596 55.2832 160.517 55.2832 157.952V148.497C55.2832 145.932 57.3172 143.853 59.8262 143.853Z" stroke="white" stroke-width="0.943036" stroke-miterlimit="10"/>
<path d="M92.9668 153.21C92.9668 154.055 93.6367 154.739 94.4622 154.739C95.2885 154.739 95.9583 154.054 95.9583 153.21C95.9583 152.366 95.2885 151.682 94.4622 151.682C93.6367 151.681 92.9668 152.366 92.9668 153.21Z" stroke="white" stroke-width="0.943036" stroke-miterlimit="10"/>
<path d="M85.4355 153.21C85.4355 154.055 86.1054 154.739 86.931 154.739C87.7572 154.739 88.4264 154.054 88.4264 153.21C88.4264 152.366 87.7565 151.682 86.931 151.682C86.1054 151.681 85.4355 152.366 85.4355 153.21Z" stroke="white" stroke-width="0.943036" stroke-miterlimit="10"/>
<path d="M77.9023 153.21C77.9023 154.055 78.5722 154.739 79.3977 154.739C80.224 154.739 80.8932 154.054 80.8932 153.21C80.8932 152.366 80.2233 151.682 79.3977 151.682C78.5722 151.681 77.9023 152.366 77.9023 153.21Z" stroke="white" stroke-width="0.943036" stroke-miterlimit="10"/>
<path d="M70.373 153.21C70.373 154.055 71.0429 154.739 71.8684 154.739C72.6947 154.739 73.3639 154.054 73.3639 153.21C73.3639 152.366 72.694 151.682 71.8684 151.682C71.0429 151.681 70.373 152.366 70.373 153.21Z" stroke="white" stroke-width="0.943036" stroke-miterlimit="10"/>
<path d="M62.8398 153.21C62.8398 154.055 63.5097 154.739 64.336 154.739C65.1623 154.739 65.8314 154.054 65.8314 153.21C65.8314 152.366 65.1615 151.682 64.336 151.682C63.509 151.681 62.8398 152.366 62.8398 153.21Z" stroke="white" stroke-width="0.943036" stroke-miterlimit="10"/>
<path d="M296.25 80.5908H224.899C220.963 80.5908 217.773 77.3296 217.773 73.3067C217.773 69.2837 220.963 66.0225 224.899 66.0225H296.25C300.185 66.0225 303.375 69.2837 303.375 73.3067C303.375 77.3296 300.185 80.5908 296.25 80.5908Z" fill="white" stroke="#034EB9" stroke-width="0.943036" stroke-miterlimit="10"/>
<path d="M295.203 72.8062C295.203 74.9459 293.507 76.6799 291.414 76.6799C289.321 76.6799 287.625 74.9459 287.625 72.8062C287.625 70.6665 289.321 68.9326 291.414 68.9326C293.507 68.9326 295.203 70.6665 295.203 72.8062Z" stroke="#034EB9" stroke-width="1.76014" stroke-miterlimit="10"/>
<path d="M294.094 75.5459L296.186 77.6848" stroke="#034EB9" stroke-width="1.76014" stroke-miterlimit="10" stroke-linecap="round"/>
<path d="M188.162 278.704H170.212C167.071 278.704 164.525 276.101 164.525 272.891V254.54C164.525 251.329 167.071 248.727 170.212 248.727H188.162C191.302 248.727 193.848 251.329 193.848 254.54V272.891C193.848 276.101 191.302 278.704 188.162 278.704Z" fill="#193091"/>
<path d="M182.818 278.704H164.868C161.728 278.704 159.182 276.101 159.182 272.891V254.54C159.182 251.329 161.728 248.727 164.868 248.727H182.818C185.959 248.727 188.505 251.329 188.505 254.54V272.891C188.505 276.101 185.959 278.704 182.818 278.704Z" fill="#034EB9"/>
<path d="M170.378 258.057L178.795 263.025C179.315 263.332 179.315 264.098 178.795 264.405L170.378 269.373C169.859 269.68 169.209 269.296 169.209 268.683V258.747C169.21 258.134 169.859 257.751 170.378 258.057Z" fill="white"/>
<path d="M373.838 278.703H350.373C346.267 278.703 342.939 275.301 342.939 271.103V247.114C342.939 242.917 346.267 239.515 350.373 239.515H373.838C377.944 239.515 381.272 242.917 381.272 247.114V271.103C381.272 275.3 377.944 278.703 373.838 278.703Z" fill="#193091"/>
<path d="M366.854 278.703H343.389C339.283 278.703 335.955 275.301 335.955 271.103V247.114C335.955 242.917 339.283 239.515 343.389 239.515H366.854C370.959 239.515 374.287 242.917 374.287 247.114V271.103C374.287 275.3 370.959 278.703 366.854 278.703Z" fill="#034EB9"/>
<path d="M359.727 249.128C359.727 251.729 357.665 253.837 355.121 253.837C352.578 253.837 350.516 251.729 350.516 249.128C350.516 246.528 352.578 244.42 355.121 244.42C357.665 244.42 359.727 246.528 359.727 249.128Z" fill="white"/>
<path d="M364.722 265.07V272.02C364.722 272.649 364.224 273.158 363.61 273.158H346.632C346.018 273.158 345.52 272.649 345.52 272.02V265.07C345.52 259.65 349.818 255.255 355.121 255.255C360.424 255.256 364.722 259.65 364.722 265.07Z" fill="white"/>
<path d="M269.399 88.9854H254.328C253.702 88.9854 253.195 88.4672 253.195 87.8276C253.195 87.1881 253.702 86.6699 254.328 86.6699H269.399C270.025 86.6699 270.532 87.1881 270.532 87.8276C270.532 88.4665 270.025 88.9854 269.399 88.9854Z" fill="#F5F5F5"/>
<path d="M284.477 88.9854H273.57C272.944 88.9854 272.438 88.4672 272.438 87.8276C272.438 87.1881 272.944 86.6699 273.57 86.6699H284.477C285.102 86.6699 285.609 87.1881 285.609 87.8276C285.61 88.4665 285.102 88.9854 284.477 88.9854Z" fill="#F5F5F5"/>
<path d="M260.731 94.0772H254.328C253.702 94.0772 253.195 93.559 253.195 92.9194C253.195 92.2799 253.702 91.7617 254.328 91.7617H260.731C261.356 91.7617 261.863 92.2799 261.863 92.9194C261.863 93.5583 261.355 94.0772 260.731 94.0772Z" fill="#F5F5F5"/>
<path d="M284.477 94.0772H264.533C263.907 94.0772 263.4 93.559 263.4 92.9194C263.4 92.2799 263.907 91.7617 264.533 91.7617H284.477C285.103 91.7617 285.609 92.2799 285.609 92.9194C285.61 93.5583 285.103 94.0772 284.477 94.0772Z" fill="#F5F5F5"/>
<path d="M274.194 99.168H254.328C253.702 99.168 253.195 98.6498 253.195 98.0103C253.195 97.3707 253.702 96.8525 254.328 96.8525H274.194C274.82 96.8525 275.327 97.3707 275.327 98.0103C275.327 98.6491 274.82 99.168 274.194 99.168Z" fill="#F5F5F5"/>
<path d="M284.477 99.168H278.074C277.448 99.168 276.941 98.6498 276.941 98.0103C276.941 97.3707 277.448 96.8525 278.074 96.8525H284.477C285.103 96.8525 285.61 97.3707 285.61 98.0103C285.611 98.6491 285.103 99.168 284.477 99.168Z" fill="#F5F5F5"/>
<path d="M78.5555 207.24H25.9434C24.3861 207.24 23.123 205.948 23.123 204.356V177.205C23.123 175.612 24.3861 174.321 25.9434 174.321H78.5555C80.1129 174.321 81.3759 175.613 81.3759 177.205V204.356C81.3767 205.949 80.1137 207.24 78.5555 207.24Z" fill="#193091"/>
<path d="M25.5977 178.77H78.8996" stroke="white" stroke-width="0.943036" stroke-miterlimit="10" stroke-linecap="round"/>
<path d="M77.4932 177.166C77.8497 177.166 78.1387 176.87 78.1387 176.506C78.1387 176.141 77.8497 175.846 77.4932 175.846C77.1367 175.846 76.8477 176.141 76.8477 176.506C76.8477 176.87 77.1367 177.166 77.4932 177.166Z" fill="white"/>
<path d="M74.1279 177.166C74.4845 177.166 74.7735 176.87 74.7735 176.506C74.7735 176.141 74.4845 175.846 74.1279 175.846C73.7714 175.846 73.4824 176.141 73.4824 176.506C73.4824 176.87 73.7714 177.166 74.1279 177.166Z" fill="white"/>
<path d="M70.7608 177.166C71.1173 177.166 71.4063 176.87 71.4063 176.506C71.4063 176.141 71.1173 175.846 70.7608 175.846C70.4042 175.846 70.1152 176.141 70.1152 176.506C70.1152 176.87 70.4042 177.166 70.7608 177.166Z" fill="white"/>
<path d="M35.5355 183.199H26.4908C25.9987 183.199 25.5996 182.791 25.5996 182.288C25.5996 181.785 25.9987 181.377 26.4908 181.377H35.5355C36.0276 181.377 36.4267 181.785 36.4267 182.288C36.4267 182.791 36.0276 183.199 35.5355 183.199Z" fill="#5ECADA"/>
<path d="M35.5355 187.409H26.4908C25.9987 187.409 25.5996 187.001 25.5996 186.498C25.5996 185.995 25.9987 185.587 26.4908 185.587H35.5355C36.0276 185.587 36.4267 185.995 36.4267 186.498C36.4267 187.002 36.0276 187.409 35.5355 187.409Z" fill="#5ECADA"/>
<path d="M35.5355 191.621H26.4908C25.9987 191.621 25.5996 191.213 25.5996 190.71C25.5996 190.207 25.9987 189.799 26.4908 189.799H35.5355C36.0276 189.799 36.4267 190.207 36.4267 190.71C36.4267 191.213 36.0276 191.621 35.5355 191.621Z" fill="#5ECADA"/>
<path d="M35.5355 195.831H26.4908C25.9987 195.831 25.5996 195.423 25.5996 194.92C25.5996 194.417 25.9987 194.009 26.4908 194.009H35.5355C36.0276 194.009 36.4267 194.417 36.4267 194.92C36.4267 195.423 36.0276 195.831 35.5355 195.831Z" fill="#5ECADA"/>
<path d="M35.5355 200.042H26.4908C25.9987 200.042 25.5996 199.634 25.5996 199.131C25.5996 198.628 25.9987 198.22 26.4908 198.22H35.5355C36.0276 198.22 36.4267 198.628 36.4267 199.131C36.4267 199.635 36.0276 200.042 35.5355 200.042Z" fill="#5ECADA"/>
<path d="M35.5355 204.254H26.4908C25.9987 204.254 25.5996 203.846 25.5996 203.343C25.5996 202.84 25.9987 202.432 26.4908 202.432H35.5355C36.0276 202.432 36.4267 202.84 36.4267 203.343C36.4267 203.846 36.0276 204.254 35.5355 204.254Z" fill="#5ECADA"/>
<path d="M78.0109 183.199H39.0338C38.5417 183.199 38.1426 182.791 38.1426 182.288C38.1426 181.785 38.5417 181.377 39.0338 181.377H78.0109C78.503 181.377 78.9021 181.785 78.9021 182.288C78.9029 182.791 78.5037 183.199 78.0109 183.199Z" fill="#034EB9"/>
<path d="M78.0109 187.41H39.0338C38.5417 187.41 38.1426 187.002 38.1426 186.499C38.1426 185.996 38.5417 185.588 39.0338 185.588H78.0109C78.503 185.588 78.9021 185.996 78.9021 186.499C78.9029 187.003 78.5037 187.41 78.0109 187.41Z" fill="#034EB9"/>
<path d="M78.0109 191.62H39.0338C38.5417 191.62 38.1426 191.212 38.1426 190.709C38.1426 190.206 38.5417 189.798 39.0338 189.798H78.0109C78.503 189.798 78.9021 190.206 78.9021 190.709C78.9029 191.212 78.5037 191.62 78.0109 191.62Z" fill="#034EB9"/>
<path d="M78.0109 195.831H39.0338C38.5417 195.831 38.1426 195.423 38.1426 194.92C38.1426 194.417 38.5417 194.009 39.0338 194.009H78.0109C78.503 194.009 78.9021 194.417 78.9021 194.92C78.9029 195.423 78.5037 195.831 78.0109 195.831Z" fill="#034EB9"/>
<path d="M78.0109 200.042H39.0338C38.5417 200.042 38.1426 199.634 38.1426 199.131C38.1426 198.628 38.5417 198.22 39.0338 198.22H78.0109C78.503 198.22 78.9021 198.628 78.9021 199.131C78.9029 199.635 78.5037 200.042 78.0109 200.042Z" fill="#034EB9"/>
<path d="M78.0109 204.254H39.0338C38.5417 204.254 38.1426 203.846 38.1426 203.343C38.1426 202.84 38.5417 202.432 39.0338 202.432H78.0109C78.503 202.432 78.9021 202.84 78.9021 203.343C78.9029 203.846 78.5037 204.254 78.0109 204.254Z" fill="#034EB9"/>
<path d="M351.673 35.2664C354.758 22.0991 346.819 8.86746 333.939 5.71273C321.059 2.55799 308.117 10.6748 305.031 23.8421C301.945 37.0094 309.884 50.241 322.764 53.3958C335.644 56.5505 348.587 48.4337 351.673 35.2664Z" stroke="#A4EBEB" stroke-opacity="0.29" stroke-width="0.831422" stroke-miterlimit="10"/>
<path d="M336.788 49.0687C347.318 44.306 352.078 31.7183 347.419 20.9533C342.76 10.1884 330.448 5.32259 319.918 10.0853C309.388 14.848 304.628 27.4357 309.287 38.2007C313.946 48.9657 326.258 53.8314 336.788 49.0687Z" fill="#034EB9"/>
<path d="M330.242 29.5629C330.242 30.6346 329.392 31.5027 328.345 31.5027C327.296 31.5027 326.447 30.6339 326.447 29.5629C326.447 28.4912 327.297 27.623 328.345 27.623C329.392 27.6223 330.242 28.4912 330.242 29.5629Z" fill="white"/>
<path d="M328.138 29.1807C327.851 29.3429 327.49 29.2373 327.331 28.9439L321.199 17.6375C321.041 17.3441 321.144 16.9753 321.431 16.8124C321.718 16.6502 322.079 16.7558 322.238 17.0485L328.369 28.3549C328.528 28.649 328.425 29.0186 328.138 29.1807Z" fill="white"/>
<path d="M328.646 29.871C328.878 29.6342 329.254 29.6342 329.486 29.871L334.79 35.2938C335.022 35.5306 335.022 35.9152 334.79 36.1521C334.559 36.3889 334.182 36.3889 333.951 36.1521L328.646 30.7293C328.415 30.4924 328.415 30.1078 328.646 29.871Z" fill="white"/>
<path d="M328.475 12.5029V10.0518" stroke="white" stroke-width="2.10593" stroke-miterlimit="10" stroke-linecap="round"/>
<path d="M345.035 29.6943H347.433" stroke="white" stroke-width="2.10593" stroke-miterlimit="10" stroke-linecap="round"/>
<path d="M328.219 46.623V49.0742" stroke="white" stroke-width="2.10593" stroke-miterlimit="10" stroke-linecap="round"/>
<path d="M311.659 29.4336H309.262" stroke="white" stroke-width="2.10593" stroke-miterlimit="10" stroke-linecap="round"/>
<g opacity="0.5">
<path d="M320.113 14.7227L318.914 12.5996" stroke="#A4EBEB" stroke-opacity="0.29" stroke-width="1.05297" stroke-miterlimit="10" stroke-linecap="round"/>
<path d="M342.861 21.1455L344.937 19.9199" stroke="#A4EBEB" stroke-opacity="0.29" stroke-width="1.05297" stroke-miterlimit="10" stroke-linecap="round"/>
<path d="M336.58 44.4014L337.779 46.5245" stroke="#A4EBEB" stroke-opacity="0.29" stroke-width="1.05297" stroke-miterlimit="10" stroke-linecap="round"/>
<path d="M313.831 37.9795L311.754 39.2051" stroke="#A4EBEB" stroke-opacity="0.29" stroke-width="1.05297" stroke-miterlimit="10" stroke-linecap="round"/>
</g>
<g opacity="0.5">
<path d="M313.959 20.919L311.883 19.6934" stroke="#A4EBEB" stroke-opacity="0.29" stroke-width="1.05297" stroke-miterlimit="10" stroke-linecap="round"/>
<path d="M336.801 14.8516L338 12.7285" stroke="#A4EBEB" stroke-opacity="0.29" stroke-width="1.05297" stroke-miterlimit="10" stroke-linecap="round"/>
<path d="M342.734 38.2031L344.81 39.4287" stroke="#A4EBEB" stroke-opacity="0.29" stroke-width="1.05297" stroke-miterlimit="10" stroke-linecap="round"/>
<path d="M319.894 44.2695L318.695 46.3926" stroke="#A4EBEB" stroke-opacity="0.29" stroke-width="1.05297" stroke-miterlimit="10" stroke-linecap="round"/>
</g>
<path d="M43.4225 152.94H17.0888C13.1898 152.94 10.0293 149.709 10.0293 145.723V118.801C10.0293 114.815 13.1898 111.584 17.0888 111.584H43.4225C47.3214 111.584 50.4819 114.815 50.4819 118.801V145.723C50.4819 149.708 47.3214 152.94 43.4225 152.94Z" fill="#193091"/>
<path d="M41.6916 149.357H12.5508C9.42721 149.357 6.89453 146.768 6.89453 143.574V113.783C6.89453 110.589 9.42647 108 12.5508 108H41.6916C44.8152 108 47.3479 110.588 47.3479 113.783V143.574C47.3472 146.767 44.8152 149.357 41.6916 149.357Z" fill="#F5F5F5" stroke="#A4EBEB" stroke-opacity="0.29" stroke-width="1.05297" stroke-miterlimit="10"/>
<path d="M34.1224 123.943H33.9114V121.574C33.9114 117.686 30.818 114.522 27.0142 114.522C23.2104 114.522 20.1171 117.686 20.1171 121.574V123.943H20.0706C19.0016 123.943 18.1348 124.83 18.1348 125.922V134.85C18.1348 135.943 19.0016 136.829 20.0706 136.829H34.1224C35.1914 136.829 36.0582 135.943 36.0582 134.85V125.922C36.0582 124.829 35.1914 123.943 34.1224 123.943ZM21.864 121.574C21.864 118.671 24.1754 116.309 27.0142 116.309C29.8531 116.309 32.1644 118.671 32.1644 121.574V123.943H21.8633L21.864 121.574Z" fill="#A4EBEB" fill-opacity="0.29"/>
<path d="M29.3679 128.533C29.3679 127.108 28.1004 125.985 26.6545 126.28C25.8024 126.453 25.0956 127.168 24.9178 128.037C24.7039 129.085 25.1886 130.042 25.9824 130.517C26.1432 130.613 26.2354 130.794 26.1867 130.978L25.795 132.456C25.5626 133.334 26.2096 134.199 27.0993 134.199C27.9898 134.199 28.6368 133.334 28.4044 132.456L28.0171 130.994C27.9677 130.808 28.0621 130.624 28.2266 130.529C28.9075 130.134 29.3679 129.39 29.3679 128.533Z" fill="#F5F5F5"/>
<path d="M35.2295 139.958H18.9667C18.5085 139.958 18.1367 139.578 18.1367 139.109C18.1367 138.641 18.5085 138.261 18.9667 138.261H35.2295C35.6876 138.261 36.0594 138.641 36.0594 139.109C36.0594 139.578 35.6876 139.958 35.2295 139.958Z" fill="#A4EBEB" fill-opacity="0.29"/>
<path d="M35.2295 142.837H18.9667C18.5085 142.837 18.1367 142.457 18.1367 141.988C18.1367 141.52 18.5085 141.14 18.9667 141.14H35.2295C35.6876 141.14 36.0594 141.52 36.0594 141.988C36.0594 142.457 35.6876 142.837 35.2295 142.837Z" fill="#A4EBEB" fill-opacity="0.29"/>
<path d="M362.066 201.552H346.563C344.268 201.552 342.406 199.65 342.406 197.303V181.454C342.406 179.107 344.267 177.205 346.563 177.205H362.066C364.361 177.205 366.221 179.107 366.221 181.454V197.303C366.221 199.65 364.361 201.552 362.066 201.552Z" fill="#193091"/>
<path d="M361.045 199.444H343.89C342.051 199.444 340.561 197.919 340.561 196.04V178.501C340.561 176.621 342.052 175.098 343.89 175.098H361.045C362.885 175.098 364.375 176.622 364.375 178.501V196.04C364.375 197.919 362.885 199.444 361.045 199.444Z" fill="#F5F5F5" stroke="#A4EBEB" stroke-opacity="0.29" stroke-width="1.05297" stroke-miterlimit="10"/>
<path d="M347.657 194.537C347.59 194.537 347.522 194.528 347.455 194.509C347.063 194.396 346.835 193.979 346.946 193.579L350.548 180.545C350.659 180.143 351.068 179.909 351.458 180.025C351.85 180.137 352.078 180.554 351.967 180.955L348.365 193.988C348.274 194.321 347.978 194.537 347.657 194.537Z" fill="white"/>
<path d="M353.681 194.537C353.614 194.537 353.547 194.528 353.481 194.509C353.088 194.396 352.86 193.979 352.972 193.579L356.574 180.545C356.684 180.143 357.094 179.909 357.484 180.025C357.876 180.137 358.104 180.554 357.993 180.955L354.39 193.988C354.299 194.321 354.003 194.537 353.681 194.537Z" fill="white"/>
<path d="M358.844 185.067H346.095C345.687 185.067 345.357 184.73 345.357 184.313C345.357 183.896 345.687 183.559 346.095 183.559H358.844C359.252 183.559 359.582 183.896 359.582 184.313C359.582 184.73 359.252 185.067 358.844 185.067Z" fill="white"/>
<path d="M358.844 191.022H346.095C345.687 191.022 345.357 190.685 345.357 190.268C345.357 189.851 345.687 189.514 346.095 189.514H358.844C359.252 189.514 359.582 189.851 359.582 190.268C359.582 190.685 359.252 191.022 358.844 191.022Z" fill="white"/>
<path d="M74.5669 124.214H65.3466C64.7882 124.214 64.3359 123.751 64.3359 123.181C64.3359 122.61 64.7889 122.147 65.3466 122.147H74.5669C75.1254 122.147 75.5777 122.611 75.5777 123.181C75.5777 123.751 75.1254 124.214 74.5669 124.214Z" fill="#F5F5F5"/>
<path d="M83.8551 128.802H65.3466C64.7882 128.802 64.3359 128.339 64.3359 127.769C64.3359 127.198 64.7889 126.735 65.3466 126.735H83.8551C84.4136 126.735 84.8658 127.198 84.8658 127.769C84.8658 128.34 84.4136 128.802 83.8551 128.802Z" fill="#F5F5F5"/>
<path d="M67.5326 133.392H65.3466C64.7882 133.392 64.3359 132.929 64.3359 132.358C64.3359 131.788 64.7889 131.325 65.3466 131.325H67.5326C68.091 131.325 68.5433 131.788 68.5433 132.358C68.5433 132.929 68.091 133.392 67.5326 133.392Z" fill="#F5F5F5"/>
<path d="M83.8554 133.392H70.9677C70.4093 133.392 69.957 132.929 69.957 132.358C69.957 131.788 70.41 131.325 70.9677 131.325H83.8554C84.4138 131.325 84.8661 131.788 84.8661 132.358C84.8661 132.929 84.4138 133.392 83.8554 133.392Z" fill="#F5F5F5"/>
<path d="M83.8537 124.214H78.2646C77.7061 124.214 77.2539 123.751 77.2539 123.181C77.2539 122.61 77.7069 122.147 78.2646 122.147H83.8537C84.4122 122.147 84.8645 122.611 84.8645 123.181C84.8645 123.751 84.4122 124.214 83.8537 124.214Z" fill="#F5F5F5"/>
<path d="M31.8592 265.195C30.6582 265.195 29.5338 265.532 28.5718 266.118C28.186 262.599 25.2667 259.862 21.7211 259.862C17.9129 259.862 14.8255 263.019 14.8255 266.912C14.8255 267.173 14.8402 267.43 14.8675 267.684C14.551 267.624 14.2257 267.591 13.8922 267.591C10.984 267.591 8.62695 270 8.62695 272.974C8.62695 275.947 10.984 278.356 13.8922 278.356H31.8599C35.4151 278.356 38.2967 275.41 38.2967 271.776C38.2967 268.141 35.4144 265.195 31.8592 265.195Z" fill="white"/>
<path d="M-56 278.257H423.695" stroke="white" stroke-width="1.17343" stroke-miterlimit="10" stroke-linecap="round"/>
</g>
<defs>
<clipPath id="clip0_1956_5245">
<rect width="424" height="282" fill="white"/>
</clipPath>
</defs>
</svg>
