<svg width="22" height="22" fill="none" xmlns="http://www.w3.org/2000/svg"><path d="M16.238 4.216c-.003.762-.1 1.521-.288 2.26-.029.11-.029.11.081.142.6.163 1.182.384 1.738.66a4.95 4.95 0 0 1 1.32.926c.206.202.369.444.478.71.2.514.068.973-.238 1.398-.33.465-.787.792-1.274 1.076a8.735 8.735 0 0 1-1.98.824c-.11.033-.117.037-.088.153.13.5.216 1.01.258 1.524.053.66.034 1.32-.17 1.966-.1.377-.314.714-.613.965-.226.172-.5.268-.784.274a2.883 2.883 0 0 1-1.31-.29 7.217 7.217 0 0 1-1.787-1.184 8.64 8.64 0 0 1-.489-.455c-.048-.052-.075-.04-.12 0a8.838 8.838 0 0 1-1.47 1.182c-.46.306-.968.532-1.503.669-.284.074-.58.091-.871.05-.53-.089-.866-.418-1.083-.88a3.444 3.444 0 0 1-.281-1.226c-.06-.865.078-1.706.283-2.54.032-.13.032-.132-.101-.17a8.727 8.727 0 0 1-1.709-.67 4.908 4.908 0 0 1-1.358-1.004c-.29-.315-.509-.676-.537-1.116-.01-.26.055-.517.188-.74.246-.413.585-.763.99-1.022a7.863 7.863 0 0 1 2.214-1.014c.09-.028.18-.055.27-.077.07-.017.088-.049.07-.12a10.647 10.647 0 0 1-.24-1.21 11.568 11.568 0 0 1-.067-.804 5.06 5.06 0 0 1 .078-1.154 2.44 2.44 0 0 1 .38-.977 1.32 1.32 0 0 1 1.035-.59c.474-.034.912.095 1.339.276.684.31 1.318.722 1.877 1.224.15.127.295.26.44.398.09.089.11.088.2 0 .39-.387.811-.738 1.262-1.05a5.119 5.119 0 0 1 1.681-.803c.257-.064.523-.08.786-.047.489.066.817.358 1.04.78.176.352.285.734.32 1.126.023.186.034.373.033.56zm-5.26 2.2a17.582 17.582 0 0 0-1.604.052.146.146 0 0 0-.117.077c-.361.525-.694 1.067-1.004 1.622-.22.387-.424.777-.611 1.179a.154.154 0 0 0 0 .141c.176.381.374.75.578 1.116.323.58.667 1.145 1.044 1.69a.158.158 0 0 0 .13.073c.323.03.649.042.973.046.73.011 1.46.011 2.188-.044a.274.274 0 0 0 .24-.138c.576-.88 1.1-1.795 1.567-2.738a.172.172 0 0 0 0-.173c-.2-.401-.41-.797-.632-1.188a21.915 21.915 0 0 0-.99-1.592.129.129 0 0 0-.103-.07c-.164-.009-.33-.025-.49-.033a19.337 19.337 0 0 0-1.169-.018v-.002zM2.773 9.402c.003.177.05.35.14.503.23.377.544.696.916.933a7.711 7.711 0 0 0 2.287 1.02c.06.018.085 0 .101-.057.037-.123.076-.247.11-.369.219-.657.474-1.3.764-1.93a.198.198 0 0 0 0-.182c-.34-.728-.628-1.48-.863-2.248-.018-.064-.05-.076-.11-.058-.672.18-1.32.438-1.933.77-.418.216-.791.51-1.1.866-.173.217-.314.456-.312.752zm4.655 7.267c.083-.006.164-.01.246-.02.36-.052.708-.164 1.031-.33a7.892 7.892 0 0 0 1.972-1.443c.048-.046.041-.076 0-.122a18.505 18.505 0 0 1-1.55-1.909.14.14 0 0 0-.11-.069c-.182-.015-.362-.034-.543-.051a15.54 15.54 0 0 1-1.852-.295c-.128-.029-.129-.03-.16.095-.184.758-.314 1.524-.276 2.31.008.357.074.71.194 1.047.229.592.538.777 1.048.787zm8.42-2.26c-.01-.142-.021-.336-.036-.528a8.719 8.719 0 0 0-.245-1.437c-.015-.063-.047-.079-.11-.061-.082.023-.165.04-.248.058a16.83 16.83 0 0 1-2.134.319.246.246 0 0 0-.203.11c-.449.663-.947 1.29-1.49 1.879-.038.04-.04.073 0 .11.087.079.171.16.256.24.423.403.89.756 1.393 1.053.433.252.88.46 1.391.514.33.035.646-.02.889-.277a1.44 1.44 0 0 0 .273-.428c.208-.48.247-.99.264-1.551zM6.188 4.313c0 .11 0 .266.015.425A9.68 9.68 0 0 0 6.48 6.38c.019.078.054.087.125.07.424-.103.854-.179 1.287-.244.347-.052.695-.099 1.046-.125a.25.25 0 0 0 .203-.11 16.57 16.57 0 0 1 1.513-1.863c.047-.05.037-.077 0-.12a8.673 8.673 0 0 0-1.5-1.189c-.477-.294-.975-.54-1.54-.611a1.21 1.21 0 0 0-.66.066c-.249.12-.44.335-.531.596-.194.45-.244.927-.235 1.462zm9.625.009c0-.25-.019-.498-.056-.744A2.361 2.361 0 0 0 15.4 2.56a.903.903 0 0 0-.754-.4 2.237 2.237 0 0 0-.924.188c-.916.369-1.667.977-2.367 1.658-.037.036-.028.062 0 .095.062.062.12.128.18.193.486.537.935 1.105 1.346 1.7a.22.22 0 0 0 .18.088c.137.014.274.024.41.042.653.074 1.3.187 1.939.336.07.017.101 0 .119-.071.174-.676.27-1.37.284-2.067zm3.41 5.085a1.091 1.091 0 0 0-.274-.698 3.501 3.501 0 0 0-.972-.817 8.736 8.736 0 0 0-2.09-.869c-.071-.02-.095 0-.11.07a16.904 16.904 0 0 1-.866 2.236.16.16 0 0 0 0 .15c.35.73.65 1.482.897 2.252.035.11.035.11.144.08a8.7 8.7 0 0 0 1.85-.77 3.77 3.77 0 0 0 1.127-.912c.18-.199.286-.454.298-.722h-.005zm-5.857 2.89c.2-.026.402-.049.602-.077.46-.064.92-.149 1.373-.255.067-.016.077-.045.057-.11a16.861 16.861 0 0 0-.712-1.844c-.012-.028-.016-.074-.054-.072-.037.003-.04.048-.054.075-.24.473-.494.938-.77 1.394-.166.276-.338.55-.507.823-.012.02-.037.038-.024.061.013.023.042 0 .064 0l.025.005zM7.376 9.93c-.014.03-.024.047-.031.065-.268.606-.5 1.227-.697 1.86-.04.13-.04.128.094.158.625.134 1.256.232 1.892.295.033 0 .077.02.098-.012.02-.033-.02-.057-.037-.084a21.088 21.088 0 0 1-1.084-1.839l-.234-.443zm2.282 2.884-.01.023c.117.154.232.308.35.46.303.39.621.764.956 1.124.072.078.075.084.147 0 .251-.27.49-.552.716-.844.182-.233.357-.472.534-.71.012-.015.032-.03.022-.053-.01-.023-.024-.013-.039-.011a3.76 3.76 0 0 1-.402.019c-.33.026-.66.018-.984.018-.43.005-.86.008-1.29-.026zm-.027-6.8h.074c.316-.011.632-.026.948-.035.416-.013.831.01 1.247.017.135 0 .27.016.403.023.02 0 .043.017.055-.007.013-.025-.01-.038-.023-.053a17.241 17.241 0 0 0-1.238-1.517c-.083-.091-.09-.094-.155-.022-.372.406-.73.824-1.062 1.263l-.25.332zm3.63.523.031.062c.471.718.902 1.46 1.293 2.225.01.02.014.052.042.05.027 0 .032-.031.04-.052a17.168 17.168 0 0 0 .694-1.84c.02-.066.013-.103-.06-.11-.02 0-.04-.01-.06-.015-.468-.11-.941-.191-1.417-.257a5.188 5.188 0 0 0-.56-.063h-.003zM7.377 8.91c.41-.82.869-1.615 1.374-2.38-.69.07-1.374.183-2.05.336-.067.016-.075.049-.055.11a16.684 16.684 0 0 0 .73 1.934zM11.18 18.781c-.024.03-.013.063-.013.094v1.24c0 .038.017.093-.033.11a.295.295 0 0 1-.189 0c-.027-.012-.024-.046-.024-.072v-1.662c0-.058.022-.086.082-.085.285.007.22-.046.356.203l.66 1.235c0 .01.013.019.024.035a.167.167 0 0 0 .013-.098v-1.248c0-.042-.016-.098.036-.117a.267.267 0 0 1 .18 0c.045.018.03.067.03.102V20.145c0 .063-.02.096-.086.09h-.01c-.231.007-.231.008-.34-.194l-.622-1.173c-.024-.033-.024-.07-.065-.087zM3.968 19.373c.26.212.337.525.49.792.024.042.011.062-.04.067-.17.019-.186.01-.264-.144-.066-.13-.135-.26-.198-.392a.394.394 0 0 0-.372-.235c-.325 0-.255-.034-.262.237v.44c0 .073-.027.103-.098.095a.423.423 0 0 0-.053 0c-.07.008-.103-.02-.099-.094.005-.074 0-.141 0-.212v-1.406c0-.11 0-.12.12-.117.198-.006.398-.001.596.014a.51.51 0 0 1 .422.732.446.446 0 0 1-.242.223zm-.646-.44v.237c0 .057.019.088.08.085.108.003.216-.001.324-.014a.316.316 0 0 0 .024-.618 1.71 1.71 0 0 0-.368-.013c-.046 0-.059.028-.059.068l-.001.255zM7.067 20.043a.57.57 0 0 1-.66.195.39.39 0 0 1-.277-.377.418.418 0 0 1 .25-.428.754.754 0 0 1 .3-.064h.316c.054 0 .071-.025.064-.078a.304.304 0 0 0-.251-.251.839.839 0 0 0-.48.057c-.09.039-.087.038-.093-.06a.125.125 0 0 1 .11-.151 1.22 1.22 0 0 1 .45-.05c.33.049.483.21.496.544.01.257 0 .516 0 .77 0 .087-.057.08-.11.08-.053-.002-.12.013-.117-.077.004-.023.002-.054.002-.11zm-.415.03a.422.422 0 0 0 .414-.465c0-.039-.02-.06-.059-.06a1.696 1.696 0 0 0-.47.034.22.22 0 0 0-.157.152c-.06.185.064.338.272.339zM13.605 20.059a.558.558 0 0 1-.508.207.413.413 0 0 1-.397-.335c-.039-.254.051-.431.266-.513a.87.87 0 0 1 .31-.05h.202c.141 0 .169-.046.11-.175a.397.397 0 0 0-.388-.163 1.076 1.076 0 0 0-.33.078c-.056.024-.071 0-.077-.053a.13.13 0 0 1 .018-.107.132.132 0 0 1 .092-.056c.154-.048.316-.065.476-.05a.499.499 0 0 1 .468.513v.79c0 .078-.035.096-.102.093-.068-.003-.138.012-.13-.093a.767.767 0 0 0-.01-.086zm-.185-.513a1.055 1.055 0 0 0-.33.034c-.134.04-.177.11-.168.269a.22.22 0 0 0 .195.22.39.39 0 0 0 .481-.323c.039-.172.02-.196-.152-.196l-.026-.004zM5.342 19.6h-.413c-.092 0-.11.022-.087.11a.427.427 0 0 0 .428.357.964.964 0 0 0 .44-.084c.06-.027.087-.027.091.053a.144.144 0 0 1-.12.17 1.078 1.078 0 0 1-.691 0 .615.615 0 0 1-.403-.569c-.022-.271.033-.521.267-.696a.683.683 0 0 1 .716-.04c.23.144.29.369.28.624 0 .056-.035.066-.082.066l-.426.009zm-.11-.178h.306c.08 0 .096-.033.082-.105a.355.355 0 0 0-.363-.294c-.229.01-.388.141-.41.336 0 .05.018.061.059.061l.326.002zM18.113 19.6h-.414c-.086 0-.101.022-.085.11a.428.428 0 0 0 .433.364.963.963 0 0 0 .44-.086c.065-.03.084-.016.088.057a.14.14 0 0 1-.116.165 1.21 1.21 0 0 1-.58.042.621.621 0 0 1-.508-.528c-.043-.287-.009-.558.232-.75a.632.632 0 0 1 .727-.068c.242.13.303.365.294.623 0 .06-.035.073-.085.073h-.43l.004-.002zm-.11-.178h.306c.079 0 .096-.033.082-.104a.355.355 0 0 0-.363-.295.393.393 0 0 0-.41.33c0 .052.018.063.059.063l.326.006zM16.5 19.974c.11-.304.228-.608.341-.913l.037-.098c.014-.032.021-.101.09-.104.22 0 .192 0 .13.163-.136.362-.273.724-.404 1.087a.155.155 0 0 1-.177.125c-.198-.012-.17.032-.246-.173-.133-.357-.27-.713-.4-1.07-.014-.04-.07-.093 0-.127a.175.175 0 0 1 .213.06c.073.189.142.378.213.568l.181.483.022-.001zM14.3 19.476v-.352c0-.057-.018-.09-.08-.087-.063.003-.08-.029-.08-.086 0-.057.016-.097.083-.093.067.005.077-.026.077-.08v-.229c0-.076.06-.077.115-.077.056 0 .117-.01.11.078v.212c0 .07.022.1.097.098h.29c.064 0 .086.031.088.092 0 .06-.029.088-.092.087h-.289c-.062 0-.094.02-.092.087v.685c0 .19.05.228.242.229h.123c.074 0 .104.024.11.101.005.077-.04.098-.11.095-.11.002-.22-.003-.33-.017a.3.3 0 0 1-.251-.26.67.67 0 0 1-.017-.103v-.378l.006-.003zM8.348 20.267c-.404 0-.66-.236-.684-.628a.77.77 0 0 1 .181-.619c.205-.22.592-.234.844-.124a.188.188 0 0 1 .04.203c-.025.024-.049 0-.07-.009a.748.748 0 0 0-.396-.056.368.368 0 0 0-.291.202.676.676 0 0 0 0 .626.44.44 0 0 0 .498.202.876.876 0 0 0 .209-.066c.04-.019.057-.013.062.035.014.131 0 .157-.128.197a.79.79 0 0 1-.265.037zM9.13 19.516v-.39c0-.055-.013-.093-.078-.088-.065.004-.084-.034-.084-.094s.023-.089.084-.084c.06.004.08-.033.078-.09v-.22c0-.073.058-.079.11-.078.052.002.119-.013.117.076-.003.09 0 .148 0 .22 0 .073.027.094.094.092h.28c.069 0 .086.032.085.093 0 .062-.02.087-.082.086h-.29c-.064 0-.087.025-.087.089v.685c0 .184.05.226.235.227h.11c.101 0 .119.025.11.13 0 .038-.018.063-.058.062-.126.01-.252.004-.377-.017a.294.294 0 0 1-.235-.243 2.985 2.985 0 0 1-.012-.456zM15.51 19.553v.581c0 .098-.052.098-.123.1-.072 0-.11-.018-.11-.103v-1.17c0-.092.042-.103.118-.104.075 0 .117.02.115.11v.587zM15.51 18.48c0 .133-.045.167-.178.136a.054.054 0 0 1-.05-.052v-.176c0-.036.024-.049.059-.053.148-.027.169-.005.169.145z" fill="#00D8FF"/><path d="M11 7.824a1.576 1.576 0 1 1-1.575 1.578A1.569 1.569 0 0 1 11 7.824z" fill="#00D8FF"/></svg>