<svg class="social-svg-icon" width="32" height="32" viewBox="0 0 32 32" fill="none" xmlns="http://www.w3.org/2000/svg">
<circle cx="16" cy="16" r="16" fill="#70E3E1"/>
<path d="M21.22 13.3334C21.22 13.4468 21.22 13.5668 21.22 13.6801C21.2262 14.6869 21.0325 15.6849 20.6501 16.6162C20.2676 17.5476 19.7042 18.3937 18.9922 19.1056C18.2803 19.8176 17.4342 20.381 16.5028 20.7635C15.5715 21.1459 14.5735 21.3396 13.5667 21.3334C12.1014 21.3377 10.6662 20.9187 9.43335 20.1268C9.65335 20.1268 9.86002 20.1268 10.1 20.1268C11.309 20.1268 12.4829 19.7206 13.4333 18.9734C12.87 18.9683 12.3227 18.785 11.8699 18.4497C11.4172 18.1144 11.0823 17.6442 10.9133 17.1068C11.0831 17.1338 11.2548 17.1472 11.4267 17.1468C11.6648 17.145 11.9019 17.116 12.1333 17.0601C11.531 16.9372 10.9897 16.6099 10.6009 16.1336C10.2122 15.6574 9.9999 15.0615 10 14.4468C10.3727 14.6524 10.7881 14.7688 11.2133 14.7868C10.8381 14.5385 10.5306 14.2007 10.3188 13.8038C10.1069 13.4068 9.99738 12.9633 10 12.5134C10.0008 12.0451 10.125 11.5852 10.36 11.1801C11.0345 12.0119 11.8762 12.6927 12.8305 13.1785C13.7849 13.6643 14.8306 13.9442 15.9 14.0001C15.8577 13.7983 15.8354 13.5929 15.8334 13.3868C15.816 12.838 15.9684 12.2973 16.2698 11.8384C16.5713 11.3795 17.007 11.0248 17.5175 10.8228C18.028 10.6208 18.5884 10.5813 19.1222 10.7097C19.656 10.838 20.1372 11.1281 20.5 11.5401C21.1034 11.4189 21.681 11.1933 22.2067 10.8734C22.0059 11.4955 21.5836 12.0222 21.02 12.3534C21.5558 12.2955 22.0796 12.1561 22.5734 11.9401C22.2078 12.4741 21.7574 12.9447 21.24 13.3334H21.22Z" fill="white"/>
</svg>
