<svg width="26" height="24" viewBox="0 0 26 24" fill="#000000" xmlns="http://www.w3.org/2000/svg">
									<path d="M3.75578 0.320251C1.96842 0.320251 0.799805 1.49392 0.799805 3.03655C0.799805 4.54511 1.9336 5.75225 3.68719 5.75225H3.72111C5.54344 5.75225 6.67754 4.54511 6.67754 3.03655C6.64347 1.49392 5.54344 0.320251 3.75578 0.320251Z"/>
									<path d="M1.10864 7.89862H6.33385V23.6189H1.10864V7.89862Z"/>
									<path d="M19.1592 7.52966C16.3404 7.52966 14.4502 10.1784 14.4502 10.1784V7.89862H9.22485V23.6189H14.4499V14.8401C14.4499 14.3701 14.484 13.9009 14.622 13.5648C14.9998 12.6263 15.8594 11.6541 17.3029 11.6541C19.1937 11.6541 19.9499 13.0957 19.9499 15.209V23.6189H25.1747V14.6052C25.1747 9.77658 22.5967 7.52966 19.1592 7.52966Z"/>
								</svg>