<svg width="40" height="41" viewBox="0 0 40 41" fill="none" xmlns="http://www.w3.org/2000/svg">
<g id="book_svgrepo.com">
<path id="Vector" d="M20 30.9723V14.5723" stroke="black" stroke-width="2.5" stroke-miterlimit="10" stroke-linecap="round" stroke-linejoin="round"/>
<path id="Vector_2" d="M4.80078 29.3883V7.06829C4.80078 6.52429 5.32878 6.14029 5.84078 6.30029L19.7608 10.7003C19.9208 10.7483 20.0808 10.7483 20.2408 10.7003L34.1608 6.30029C34.6728 6.14029 35.2008 6.52429 35.2008 7.06829V29.3883C35.2008 29.7403 34.9768 30.0443 34.6408 30.1563L20.2408 34.7003C20.0808 34.7483 19.9208 34.7483 19.7608 34.7003L5.36078 30.1563C5.02478 30.0443 4.80078 29.7243 4.80078 29.3883Z" stroke="black" stroke-width="2.5" stroke-miterlimit="10" stroke-linecap="round" stroke-linejoin="round"/>
<path id="Vector_3" d="M8.60742 11.9639L16.2074 14.3639" stroke="black" stroke-width="2.5" stroke-miterlimit="10" stroke-linecap="round" stroke-linejoin="round"/>
<path id="Vector_4" d="M8.60742 16.7646L13.7754 18.3966" stroke="black" stroke-width="2.5" stroke-miterlimit="10" stroke-linecap="round" stroke-linejoin="round"/>
<path id="Vector_5" d="M8.60742 21.5645L11.8874 22.6045" stroke="black" stroke-width="2.5" stroke-miterlimit="10" stroke-linecap="round" stroke-linejoin="round"/>
<path id="Vector_6" d="M8.60742 26.3643L16.2074 28.7643" stroke="black" stroke-width="2.5" stroke-miterlimit="10" stroke-linecap="round" stroke-linejoin="round"/>
<path id="Vector_7" d="M31.4086 11.9639L23.8086 14.3639" stroke="black" stroke-width="2.5" stroke-miterlimit="10" stroke-linecap="round" stroke-linejoin="round"/>
<path id="Vector_8" d="M29.2806 17.4365L23.8086 19.1645" stroke="black" stroke-width="2.5" stroke-miterlimit="10" stroke-linecap="round" stroke-linejoin="round"/>
<path id="Vector_9" d="M28.1126 22.6045L23.8086 23.9645" stroke="black" stroke-width="2.5" stroke-miterlimit="10" stroke-linecap="round" stroke-linejoin="round"/>
<path id="Vector_10" d="M31.4087 26.3643L27.9688 27.4523" stroke="black" stroke-width="2.5" stroke-miterlimit="10" stroke-linecap="round" stroke-linejoin="round"/>
</g>
</svg>
