<svg width="24" height="24" viewBox="0 0 24 24" fill="none" xmlns="http://www.w3.org/2000/svg">
<g id="back_svgrepo.com" clip-path="url(#clip0_2445_1636)">
<g id="Group">
<path id="Vector" d="M23.3347 11.3366H2.27075L7.98768 5.61965C8.24888 5.35844 8.24888 4.93953 7.98768 4.67833C7.72647 4.41712 7.30756 4.41712 7.04636 4.67833L0.195903 11.5288C-0.0653011 11.79 -0.0653011 12.2089 0.195903 12.4701L7.04636 19.3206C7.1745 19.4487 7.34699 19.5177 7.51455 19.5177C7.68212 19.5177 7.85461 19.4536 7.98275 19.3206C8.24396 19.0594 8.24396 18.6404 7.98275 18.3792L2.26582 12.6623H23.3347C23.7043 12.6623 24 12.3666 24 11.997C24 11.6273 23.7043 11.3366 23.3347 11.3366Z" fill="black"/>
</g>
</g>
<defs>
<clipPath id="clip0_2445_1636">
<rect width="24" height="24" fill="white"/>
</clipPath>
</defs>
</svg>
