<svg width="20" height="20" viewBox="0 0 20 20" fill="none" xmlns="http://www.w3.org/2000/svg">
<path fill-rule="evenodd" clip-rule="evenodd" d="M1.46863 3.99586C0.413257 2.83503 1.2561 1 2.84465 1H17.1554C18.7439 1 19.5867 2.83504 18.5314 3.99586L12.7615 10.3422V18.1C12.7615 18.4119 12.5964 18.7016 12.3249 18.8656C12.0536 19.0296 11.7147 19.0445 11.4294 18.905L7.74728 17.105C7.43542 16.9525 7.23843 16.6409 7.23843 16.3V10.3422L1.46863 3.99586ZM17.1554 2.8H2.84465L8.84694 9.40204C8.9967 9.56683 9.07946 9.77959 9.07946 10V15.7438L10.9205 16.6438V10C10.9205 9.77959 11.0033 9.56683 11.153 9.40204L17.1554 2.8Z" fill="#0F5EBE"/>
</svg>
