<svg width="26" height="26" viewBox="0 0 26 26" fill="none" xmlns="http://www.w3.org/2000/svg">
<path d="M13 0C5.82 0 0 5.82 0 13C0 20.18 5.82 26 13 26C20.18 26 26 20.18 26 13C26 5.82 20.18 0 13 0ZM20.258 9.307L10.772 18.792C10.534 19.029 10.149 19.029 9.911 18.792L9.72 18.601L9.719 18.602L4.5 13.346C4.262 13.108 4.262 12.722 4.5 12.484L5.794 11.191C6.032 10.953 6.418 10.953 6.656 11.191L10.345 14.907L18.101 7.151C18.339 6.913 18.725 6.913 18.963 7.151L20.257 8.445C20.496 8.682 20.496 9.068 20.258 9.307Z" fill="#1261BF"/>
</svg>
