<svg width="20" height="21" viewBox="0 0 20 21" fill="none" xmlns="http://www.w3.org/2000/svg">
<path d="M9.99935 18.8333C14.6017 18.8333 18.3327 15.1023 18.3327 10.5C18.3327 5.89759 14.6017 2.16663 9.99935 2.16663C5.39698 2.16663 1.66602 5.89759 1.66602 10.5C1.66602 15.1023 5.39698 18.8333 9.99935 18.8333Z" stroke="black" stroke-linecap="square"/>
<path d="M9.99935 18.8333C12.2216 16.8131 13.3327 14.0353 13.3327 10.5C13.3327 6.96461 12.2216 4.18683 9.99935 2.16663C7.77713 4.18683 6.66602 6.96461 6.66602 10.5C6.66602 14.0353 7.77713 16.8131 9.99935 18.8333Z" stroke="black" stroke-linecap="round"/>
<path d="M2.08398 8H17.9173M2.08398 13H17.9173" stroke="black" stroke-linecap="round"/>
</svg>
