<svg width="16" height="16" viewBox="0 0 16 16" fill="none" xmlns="http://www.w3.org/2000/svg">
<path d="M13 11.2456C13 12.2149 12.1961 13 11.2051 13C10.2134 13 9.40978 12.2149 9.40978 11.2456C9.40978 11.2139 9.41275 11.1829 9.41451 11.1514L5.86104 9.38085C5.56302 9.59666 5.19481 9.72607 4.79536 9.72607C3.80363 9.72607 3 8.94067 3 7.97168C3 7.0027 3.80363 6.21729 4.79536 6.21729C5.23926 6.21729 5.64494 6.37575 5.95845 6.63673L9.41801 4.91285C9.41301 4.86036 9.40976 4.80787 9.40976 4.75439C9.40976 3.78564 10.2134 3 11.2051 3C12.1961 3 13 3.78564 13 4.75439C13 5.7234 12.1961 6.5088 11.2051 6.5088C10.763 6.5088 10.3593 6.35207 10.0465 6.09352L6.58247 7.81984C6.58695 7.8699 6.59022 7.92043 6.59022 7.9717C6.59022 8.06276 6.58073 8.15139 6.56723 8.23879L9.99906 9.94875C10.3178 9.66554 10.74 9.49124 11.2051 9.49124C12.1961 9.4912 13 10.2769 13 11.2456Z" fill="#85848D"/>
</svg>
