<svg width="32" height="32" viewBox="0 0 32 32" fill="none" xmlns="http://www.w3.org/2000/svg">
<circle cx="16" cy="16" r="16" fill="#282828"/>
<path fill-rule="evenodd" clip-rule="evenodd" d="M12.7037 22.625V12.2088H9.64932V22.6249H12.7037V22.625ZM11.1768 10.7872C12.2416 10.7872 12.9049 9.98669 12.9049 8.98716C12.8848 7.96541 12.2416 7.1875 11.1968 7.1875C10.1518 7.18753 9.46875 7.96544 9.46875 8.98719C9.46875 9.98672 10.1317 10.7872 11.1567 10.7872L11.1768 10.7872ZM14.3942 22.625C14.3942 22.625 14.4343 13.1861 14.3942 12.2089H17.449V13.7194H17.4288C17.8304 13.0086 18.5541 11.9643 20.2018 11.9643C22.212 11.9643 23.7188 13.453 23.7188 16.6524V22.625H20.6644V17.0527C20.6644 15.6525 20.2224 14.6971 19.1168 14.6971C18.2731 14.6971 17.7703 15.3412 17.5495 15.9638C17.4687 16.1854 17.449 16.4967 17.449 16.808V22.625H14.3942Z" fill="white"/>
</svg>
