<svg width="22" height="22" fill="none" xmlns="http://www.w3.org/2000/svg"><path d="M10.902 0 .612 3.621l1.625 13.482 8.675 4.768 8.72-4.833 1.625-13.48L10.902 0z" fill="#B3B3B3"/><path d="m20.231 4.337-9.35-3.19v19.585l7.838-4.338L20.23 4.337z" fill="#A6120D"/><path d="M1.766 4.394 3.16 16.45l7.718 4.28V1.146L1.766 4.394z" fill="#DD1B16"/><path d="m13.452 11.573-2.575 1.204H8.163l-1.276 3.19-2.372.044 6.362-14.153 2.575 9.715zm-.25-.607-2.308-4.57L9 10.888h1.877l2.326.079z" fill="#F2F2F2"/><path d="m10.877 1.858.017 4.537 2.15 4.496h-2.162l-.004 1.88h2.988l1.396 3.235 2.27.042-6.655-14.19z" fill="#B3B3B3"/></svg>