<svg width="40" height="40" viewBox="0 0 40 40" fill="none" xmlns="http://www.w3.org/2000/svg">
<g id="tram-transport_svgrepo.com">
<path id="Vector" d="M20.0007 3.33301C16.4711 3.38918 12.9854 4.12481 9.73404 5.49967C9.17597 5.73216 8.7001 6.1261 8.3675 6.63094C8.0349 7.13578 7.86074 7.72849 7.86737 8.33301V27.683C7.86516 28.082 7.94211 28.4774 8.09377 28.8464C8.24542 29.2154 8.46877 29.5507 8.75088 29.8328C9.033 30.1149 9.36827 30.3383 9.73729 30.4899C10.1063 30.6416 10.5017 30.7186 10.9007 30.7163H29.234C29.6338 30.7185 30.03 30.6417 30.4 30.4902C30.7699 30.3388 31.1063 30.1157 31.3897 29.8338C31.6731 29.5519 31.8981 29.2168 32.0516 28.8477C32.205 28.4786 32.284 28.0828 32.284 27.683V8.33301C32.284 7.71885 32.0976 7.11916 31.7494 6.61324C31.4012 6.10732 30.9077 5.71902 30.334 5.49967C27.062 4.11641 23.5528 3.38061 20.0007 3.33301Z" fill="white" stroke="black" stroke-width="2.5" stroke-miterlimit="10"/>
<path id="Vector_2" d="M32.2172 12.4668H7.86719V21.6001H32.2172V12.4668Z" fill="white" stroke="black" stroke-width="2.5" stroke-miterlimit="10"/>
<path id="Vector_3" d="M12.4327 27.6837C13.2703 27.6837 13.9493 27.0047 13.9493 26.1671C13.9493 25.3294 13.2703 24.6504 12.4327 24.6504C11.5951 24.6504 10.916 25.3294 10.916 26.1671C10.916 27.0047 11.5951 27.6837 12.4327 27.6837Z" fill="black"/>
<path id="Vector_4" d="M27.6495 27.6837C28.4871 27.6837 29.1661 27.0047 29.1661 26.1671C29.1661 25.3294 28.4871 24.6504 27.6495 24.6504C26.8118 24.6504 26.1328 25.3294 26.1328 26.1671C26.1328 27.0047 26.8118 27.6837 27.6495 27.6837Z" fill="black"/>
<path id="Vector_5" d="M17 7.90039H23.0833" stroke="black" stroke-width="2.5" stroke-miterlimit="10"/>
<path id="Vector_6" d="M13.1839 30.7168L7.86719 38.3335" stroke="black" stroke-width="2.5" stroke-miterlimit="10"/>
<path id="Vector_7" d="M27.6504 30.7168L32.9671 38.3335" stroke="black" stroke-width="2.5" stroke-miterlimit="10"/>
<path id="Vector_8" d="M30.6837 35.2832H10.9004" stroke="black" stroke-width="2.5" stroke-miterlimit="10"/>
</g>
</svg>
