<svg width="40" height="41" viewBox="0 0 40 41" fill="none" xmlns="http://www.w3.org/2000/svg">
<g id="shopping-cart-14_svgrepo.com" clip-path="url(#clip0_1957_6009)">
<g id="Group">
<path id="Vector" d="M38.4075 7.97919C38.0122 7.49637 37.4205 7.21575 36.7964 7.21575H9.66131L8.7367 4.03942V4.04004C8.31225 2.62004 7.14756 1.54418 5.69897 1.23379L2.38131 0.523403C1.82014 0.4027 1.26702 0.760825 1.14624 1.32262C1.02624 1.88434 1.38374 2.43754 1.94624 2.55754L5.26256 3.26864C5.96819 3.41981 6.536 3.94379 6.74295 4.63629L12.8052 25.4603C12.6687 25.524 12.5366 25.5929 12.4093 25.6692C11.756 26.0586 11.2319 26.6051 10.8805 27.2432C10.5442 27.8494 10.3658 28.5365 10.3486 29.2456H10.3459V29.3536H10.3486C10.3619 29.9075 10.4799 30.4388 10.6848 30.9236C11.0131 31.699 11.5583 32.355 12.2455 32.8193C12.932 33.2842 13.767 33.5568 14.6558 33.5561H34.1533C34.7284 33.5561 35.194 33.0905 35.194 32.5161C35.194 31.9418 34.7283 31.4761 34.1533 31.4761L14.6558 31.4755C14.3454 31.4755 14.0549 31.4132 13.7883 31.3011C13.3897 31.1326 13.0467 30.8487 12.8066 30.4918C12.5758 30.1489 12.4392 29.745 12.4286 29.302C12.4405 28.7733 12.609 28.3143 12.9047 27.9475C13.058 27.7585 13.2469 27.5927 13.4765 27.4554C13.7033 27.32 13.9707 27.2126 14.2844 27.145L33.8813 23.9553C35.1615 23.7464 36.1802 22.7674 36.4389 21.4958L38.8359 9.71153V9.71028C38.8637 9.57364 38.8771 9.43434 38.8771 9.29637C38.8771 8.8202 38.7138 8.35465 38.4075 7.97919ZM34.4 21.0814C34.3137 21.5059 33.9741 21.8322 33.547 21.9012L14.8229 24.9497L10.2662 9.29645H36.7964H36.7971L34.4 21.0814Z" fill="black"/>
<path id="Vector_2" d="M17.0637 35.2486C16.6066 34.9395 16.0502 34.7571 15.4585 34.7578C15.0638 34.7578 14.6838 34.838 14.3402 34.984C13.8242 35.2022 13.3878 35.5649 13.0781 36.0233C12.7684 36.4803 12.5866 37.0368 12.5879 37.6284C12.5873 38.0224 12.6675 38.4025 12.8134 38.7461C13.0323 39.2628 13.3944 39.6992 13.8521 40.0083C14.3098 40.3188 14.8669 40.4998 15.4585 40.4998C15.8525 40.4998 16.232 40.4195 16.5755 40.2737C17.0922 40.0555 17.5286 39.692 17.8384 39.2343C18.1474 38.7773 18.3291 38.2202 18.3291 37.6285C18.3291 37.2346 18.2482 36.8552 18.103 36.5109C17.8841 35.9941 17.5213 35.5577 17.0637 35.2486ZM16.5251 38.0788C16.4376 38.2857 16.2896 38.4641 16.1046 38.5888C15.9188 38.7135 15.7013 38.7858 15.4585 38.7865C15.296 38.7858 15.1455 38.754 15.0081 38.6949C14.8019 38.6088 14.6227 38.4602 14.4981 38.2758C14.3734 38.0894 14.3011 37.8712 14.3004 37.6284C14.3011 37.4665 14.3335 37.3166 14.3913 37.178C14.4781 36.9718 14.6267 36.7934 14.8117 36.668C14.9975 36.5434 15.2157 36.4716 15.4584 36.471C15.6203 36.471 15.7702 36.5036 15.9081 36.5619C16.1151 36.6488 16.2928 36.7967 16.4175 36.9824C16.5429 37.1681 16.6152 37.3857 16.6152 37.6284C16.6153 37.7909 16.5828 37.9408 16.5251 38.0788Z" fill="black"/>
<path id="Vector_3" d="M32.809 35.2486C32.3513 34.9395 31.7949 34.7571 31.2033 34.7578C30.8093 34.7578 30.4292 34.838 30.0856 34.984C29.569 35.2022 29.1325 35.5649 28.8228 36.0233C28.5138 36.4803 28.332 37.0368 28.332 37.6284C28.332 38.0224 28.413 38.4025 28.5582 38.7461C28.7764 39.2628 29.1399 39.6992 29.5976 40.009C30.0546 40.3188 30.6117 40.4998 31.2034 40.4998C31.5973 40.4998 31.9773 40.4195 32.3209 40.2737C32.837 40.0555 33.2734 39.692 33.5831 39.2343C33.8928 38.7773 34.0745 38.2202 34.0739 37.6285C34.0739 37.2346 33.9937 36.8552 33.8477 36.5109C33.6288 35.9941 33.2666 35.5577 32.809 35.2486ZM32.2698 38.0788C32.1828 38.2857 32.0343 38.4641 31.8499 38.5888C31.6642 38.7135 31.4453 38.7858 31.2033 38.7865C31.0408 38.7858 30.8909 38.754 30.7529 38.6949C30.5459 38.6088 30.3682 38.4602 30.2435 38.2758C30.1175 38.0894 30.0459 37.8712 30.0459 37.6284C30.0459 37.4665 30.0777 37.3166 30.1361 37.178C30.2236 36.9718 30.3715 36.7934 30.5566 36.668C30.7423 36.5434 30.9605 36.4716 31.2033 36.471C31.3658 36.471 31.5156 36.5036 31.6536 36.5619C31.8599 36.6488 32.0384 36.7967 32.163 36.9824C32.2877 37.1681 32.36 37.3857 32.3607 37.6284C32.3606 37.7909 32.3281 37.9408 32.2698 38.0788Z" fill="black"/>
<path id="Vector_4" d="M16.3852 11.5951C16.2155 11.0107 15.6039 10.6757 15.0195 10.8462C14.4352 11.0167 14.1009 11.6282 14.2708 12.2119L17.1241 21.9818C17.2952 22.5655 17.9068 22.9011 18.4905 22.73C19.0741 22.5602 19.4098 21.948 19.2387 21.3637L16.3852 11.5951Z" fill="black"/>
<path id="Vector_5" d="M21.2019 11.5768C21.0321 10.9925 20.4205 10.6575 19.8362 10.8274C19.2519 10.9985 18.9169 11.61 19.0874 12.1937L21.7338 21.2552C21.9049 21.8396 22.5165 22.1745 23.1001 22.0041C23.6838 21.8336 24.0194 21.2221 23.8483 20.6377L21.2019 11.5768Z" fill="black"/>
<path id="Vector_6" d="M26.0202 11.5586C25.8498 10.9742 25.2382 10.6392 24.6546 10.8104C24.0702 10.9802 23.7353 11.5924 23.9058 12.176L26.3512 20.5504C26.5217 21.1348 27.1339 21.4697 27.7176 21.2994C28.3012 21.1289 28.6369 20.5166 28.4657 19.9329L26.0202 11.5586Z" fill="black"/>
<path id="Vector_7" d="M30.8386 11.5391C30.6689 10.9548 30.0567 10.6205 29.4723 10.7903C28.8886 10.9615 28.5537 11.573 28.7241 12.1566L30.9553 19.7982C31.1265 20.3826 31.738 20.7175 32.3217 20.547C32.9053 20.3759 33.241 19.7651 33.0705 19.1807L30.8386 11.5391Z" fill="black"/>
</g>
</g>
<defs>
<clipPath id="clip0_1957_6009">
<rect width="40" height="40" fill="white" transform="translate(0 0.5)"/>
</clipPath>
</defs>
</svg>
