<?xml version="1.0" encoding="UTF-8"?>
<svg xmlns="http://www.w3.org/2000/svg" xmlns:xlink="http://www.w3.org/1999/xlink" width="32px" height="32px" viewBox="0 0 32 32" version="1.1">
<g id="surface1">
<path style=" stroke:none;fill-rule:nonzero;fill:rgb(0.392157%,0%,0.784314%);fill-opacity:1;" d="M 29.59375 10.34375 C 29.589844 10.292969 29.582031 10.246094 29.566406 10.199219 C 29.558594 10.179688 29.554688 10.160156 29.542969 10.140625 C 29.515625 10.082031 29.480469 10.023438 29.433594 9.976562 L 29.433594 9.972656 L 19.625 0.167969 C 19.578125 0.117188 19.519531 0.0820312 19.457031 0.0546875 C 19.441406 0.046875 19.425781 0.0429688 19.40625 0.0390625 C 19.359375 0.0195312 19.308594 0.0117188 19.253906 0.0078125 C 19.242188 0.0078125 19.230469 0 19.21875 0 L 12.742188 0 C 10.628906 0 8.910156 1.71875 8.910156 3.832031 L 8.910156 4.792969 L 6.230469 4.792969 C 4.117188 4.792969 2.398438 6.511719 2.398438 8.625 L 2.398438 28.167969 C 2.398438 30.28125 4.117188 32 6.230469 32 L 19.257812 32 C 21.371094 32 23.089844 30.28125 23.089844 28.167969 L 23.089844 27.207031 L 25.769531 27.207031 C 27.882812 27.207031 29.601562 25.488281 29.601562 23.375 L 29.601562 10.382812 C 29.601562 10.367188 29.59375 10.355469 29.59375 10.34375 Z M 19.792969 1.960938 L 27.640625 9.804688 L 22.476562 9.804688 C 20.996094 9.804688 19.792969 8.601562 19.792969 7.125 Z M 21.941406 28.167969 C 21.941406 29.648438 20.738281 30.851562 19.257812 30.851562 L 6.230469 30.851562 C 4.75 30.851562 3.546875 29.648438 3.546875 28.167969 L 3.546875 8.625 C 3.546875 7.144531 4.75 5.941406 6.230469 5.941406 L 12.136719 5.941406 L 12.136719 11.917969 C 12.136719 14.03125 13.851562 15.75 15.964844 15.75 L 21.941406 15.75 Z M 21.128906 14.601562 L 15.964844 14.601562 C 14.488281 14.601562 13.285156 13.398438 13.285156 11.917969 L 13.285156 6.753906 Z M 25.769531 26.058594 L 23.089844 26.058594 L 23.089844 15.175781 C 23.089844 15.160156 23.082031 15.148438 23.082031 15.136719 C 23.078125 15.085938 23.070312 15.039062 23.054688 14.992188 C 23.046875 14.972656 23.042969 14.953125 23.035156 14.933594 C 23.007812 14.875 22.972656 14.816406 22.921875 14.769531 C 22.921875 14.769531 22.921875 14.765625 22.921875 14.765625 L 13.117188 4.960938 C 13.066406 4.914062 13.007812 4.878906 12.945312 4.847656 C 12.929688 4.84375 12.914062 4.835938 12.894531 4.832031 C 12.847656 4.8125 12.796875 4.804688 12.746094 4.800781 C 12.734375 4.800781 12.722656 4.792969 12.707031 4.792969 L 10.058594 4.792969 L 10.058594 3.832031 C 10.058594 2.351562 11.261719 1.148438 12.742188 1.148438 L 18.644531 1.148438 L 18.644531 7.125 C 18.644531 9.238281 20.363281 10.957031 22.476562 10.957031 L 28.453125 10.957031 L 28.453125 23.375 C 28.453125 24.855469 27.25 26.058594 25.769531 26.058594 Z M 25.769531 26.058594 "/>
</g>
</svg>
