<svg width="375" height="261" viewBox="0 0 375 261" fill="none" xmlns="http://www.w3.org/2000/svg">
<path d="M270.46 76.3429H167.158V2.53516H270.46V76.3429ZM167.817 75.6837H269.801V3.19434H167.817V75.6837Z" fill="#F7F9FF"/>
<path d="M170.025 0.329102H164.953V5.40083H170.025V0.329102Z" fill="#263238"/>
<path d="M170.353 5.73091H164.623V0H170.353V5.73091ZM165.282 5.07173H169.694V0.65918H165.282V5.07173Z" fill="#F7F9FF"/>
<path d="M272.507 0.519531H267.436V5.59126H272.507V0.519531Z" fill="#263238"/>
<path d="M272.836 5.92134H267.105V0.19043H272.836V5.92134ZM267.765 5.26216H272.177V0.84961H267.765V5.26216Z" fill="#F7F9FF"/>
<path d="M170.025 73.4775H164.953V78.5493H170.025V73.4775Z" fill="#263238"/>
<path d="M170.353 78.8793H164.623V73.1484H170.353V78.8793ZM165.282 78.2202H169.694V73.8076H165.282V78.2202Z" fill="#F7F9FF"/>
<path d="M272.507 73.4775H267.436V78.5493H272.507V73.4775Z" fill="#263238"/>
<path d="M272.836 78.8793H267.105V73.1484H272.836V78.8793ZM267.765 78.2202H272.177V73.8076H267.765V78.2202Z" fill="#F7F9FF"/>
<path d="M372.31 188.164H270.607V115.496H372.31V188.164ZM271.267 187.505H371.651V116.155H271.267V187.505Z" fill="#F7F9FF"/>
<path d="M273.434 113.329H268.441V118.322H273.434V113.329Z" fill="#263238"/>
<path d="M273.763 118.651H268.111V112.999H273.763V118.651ZM268.771 117.992H273.104V113.658H268.771V117.992Z" fill="#F7F9FF"/>
<path d="M374.321 113.515H369.328V118.507H374.321V113.515Z" fill="#263238"/>
<path d="M374.65 118.837H368.998V113.186H374.65V118.837ZM369.657 118.178H373.991V113.845H369.657V118.178Z" fill="#F7F9FF"/>
<path d="M273.434 185.34H268.441V190.332H273.434V185.34Z" fill="#263238"/>
<path d="M273.763 190.662H268.111V185.01H273.763V190.662ZM268.771 190.002H273.104V185.669H268.771V190.002Z" fill="#F7F9FF"/>
<path d="M374.323 185.34H369.33V190.332H374.323V185.34Z" fill="#263238"/>
<path d="M374.652 190.662H369V185.01H374.652V190.662ZM369.659 190.002H373.993V185.669H369.659V190.002Z" fill="#F7F9FF"/>
<path d="M306.43 260.666L204.751 260.62C195.369 260.616 187.767 253.852 187.771 245.513L187.892 28.6365C187.897 20.2966 195.506 13.5393 204.888 13.5439L306.568 13.5888C315.95 13.5927 323.551 20.3572 323.547 28.6965L323.426 245.573C323.421 253.913 315.812 260.67 306.43 260.666Z" fill="#A4EBEB" fill-opacity="0.29"/>
<path d="M306.438 260.996C306.435 260.996 306.432 260.996 306.429 260.996L204.75 260.95C200.131 260.948 195.789 259.346 192.522 256.438C189.243 253.521 187.439 249.641 187.441 245.512L187.562 28.636C187.567 20.1313 195.336 13.2139 204.879 13.2139C204.883 13.2139 204.885 13.2139 204.888 13.2139L306.567 13.2594C311.185 13.2613 315.529 14.8638 318.796 17.7708C322.074 20.6876 323.878 24.5682 323.876 28.6973L323.754 245.573C323.75 254.079 315.982 260.996 306.438 260.996ZM306.429 260.336C306.432 260.336 306.435 260.336 306.437 260.336C315.62 260.336 323.091 253.716 323.096 245.573L323.217 28.6973C323.219 24.7594 321.494 21.0542 318.358 18.2638C315.212 15.4636 311.024 13.9212 306.568 13.9192L204.888 13.873C204.885 13.873 204.882 13.873 204.879 13.873C195.698 13.873 188.226 20.4945 188.221 28.6367L188.101 245.512C188.099 249.451 189.824 253.156 192.959 255.946C196.106 258.746 200.293 260.289 204.75 260.291L306.429 260.336Z" fill="#263238"/>
<path d="M302.537 256.724L208.809 256.682C200.161 256.678 193.154 250.139 193.158 242.076L193.275 32.396C193.279 24.3329 200.294 17.7998 208.942 17.8037L302.67 17.8459C311.318 17.8499 318.325 24.3889 318.321 32.452L318.204 242.132C318.2 250.195 311.185 256.728 302.537 256.724Z" fill="#263238"/>
<path opacity="0.89" d="M238.396 33.4462C237.928 33.4455 237.485 33.2801 237.152 32.9801C236.808 32.671 236.618 32.2577 236.619 31.8154C236.619 31.3737 236.808 30.9604 237.153 30.6512C237.487 30.352 237.928 30.1865 238.396 30.1865H238.396C238.864 30.1872 239.306 30.352 239.64 30.6519C239.984 30.9611 240.173 31.375 240.172 31.8167C240.171 32.7151 239.374 33.4462 238.396 33.4462ZM238.396 30.8457C238.091 30.8457 237.806 30.9512 237.593 31.1417C237.39 31.3236 237.278 31.5629 237.278 31.8154C237.278 32.0678 237.39 32.3071 237.593 32.4897C237.805 32.6809 238.09 32.7863 238.395 32.7863C239.011 32.7863 239.512 32.3513 239.512 31.816C239.512 31.5635 239.401 31.3243 239.198 31.1423C238.986 30.9512 238.701 30.8457 238.396 30.8457Z" fill="#F7F9FF"/>
<path opacity="0.89" d="M232.018 32.6425C231.532 32.6425 231.137 32.272 231.137 31.8165C231.138 31.361 231.534 30.9912 232.018 30.9912C232.019 30.9912 232.019 30.9912 232.019 30.9912C232.505 30.9912 232.9 31.3617 232.9 31.8165C232.899 32.272 232.504 32.6425 232.018 32.6425ZM232.019 31.651C231.897 31.651 231.796 31.7275 231.796 31.8178C231.796 31.9965 232.24 31.9978 232.241 31.8172C232.24 31.7269 232.139 31.651 232.019 31.651Z" fill="#F7F9FF"/>
<path opacity="0.89" d="M266.891 33.0179L244.709 33.0081C243.996 33.0074 243.416 32.4708 243.416 31.8116C243.416 31.4854 243.555 31.1802 243.808 30.9534C244.051 30.7352 244.371 30.6152 244.71 30.6152H244.711L266.891 30.6251C267.231 30.6251 267.551 30.7458 267.793 30.9639C268.046 31.1914 268.185 31.4966 268.185 31.8222C268.185 32.4814 267.604 33.0179 266.891 33.0179ZM244.709 31.2744C244.533 31.2744 244.369 31.3344 244.248 31.4438C244.136 31.544 244.075 31.6745 244.075 31.8116C244.075 32.1076 244.359 32.3489 244.709 32.3489L266.89 32.3588C267.24 32.3588 267.525 32.1182 267.525 31.8222C267.525 31.6851 267.464 31.5546 267.352 31.4544C267.23 31.3449 267.066 31.285 266.891 31.285L244.71 31.2751L244.709 31.2744Z" fill="#F7F9FF"/>
<path d="M267.702 249.512H267.7L243.655 249.501C242.584 249.5 241.578 249.083 240.822 248.326C240.066 247.569 239.65 246.562 239.65 245.492V245.32C239.652 243.112 241.449 241.316 243.657 241.316H243.658L267.704 241.328C268.774 241.328 269.78 241.746 270.536 242.502C271.292 243.259 271.708 244.266 271.708 245.336V245.508C271.708 247.716 269.911 249.512 267.702 249.512ZM243.658 241.976C241.813 241.976 240.312 243.476 240.31 245.32V245.492C240.31 246.386 240.657 247.228 241.289 247.86C241.921 248.493 242.761 248.842 243.656 248.842L267.701 248.853H267.702C269.548 248.853 271.049 247.353 271.05 245.508V245.336C271.05 244.442 270.703 243.6 270.071 242.968C269.439 242.335 268.599 241.987 267.705 241.987L243.66 241.976C243.658 241.976 243.658 241.976 243.658 241.976Z" fill="#F7F9FF"/>
<path d="M314.575 45.249H197.4V231.597H314.575V45.249Z" fill="#F7F9FF"/>
<path opacity="0.81" d="M318.313 45.248H193.221V231.596H318.313V45.248Z" fill="#F7F9FF"/>
<path opacity="0.69" d="M305.416 86.583L254.184 86.5039C254.002 86.5032 253.855 86.3556 253.855 86.1737C253.855 85.9917 254.004 85.8447 254.185 85.8447H254.186L305.416 85.9238C305.598 85.9245 305.745 86.0721 305.745 86.2541C305.745 86.436 305.597 86.583 305.416 86.583Z" fill="#263238"/>
<path opacity="0.69" d="M279.764 109.067L254.147 109.027C253.965 109.027 253.818 108.879 253.818 108.697C253.818 108.515 253.967 108.368 254.148 108.368L279.764 108.408C279.946 108.408 280.093 108.556 280.093 108.738C280.093 108.92 279.945 109.067 279.764 109.067Z" fill="#263238"/>
<path opacity="0.69" d="M269.057 93.2904L254.167 93.2607C253.985 93.2607 253.837 93.1124 253.838 92.9305C253.839 92.7486 253.986 92.6016 254.167 92.6016H254.168L269.058 92.6312C269.24 92.6319 269.387 92.7795 269.387 92.9615C269.386 93.1434 269.238 93.2904 269.057 93.2904Z" fill="#263238"/>
<path opacity="0.69" d="M305.397 93.3392L272.642 93.3096C272.46 93.3089 272.312 93.1619 272.312 92.9793C272.312 92.7974 272.46 92.6504 272.642 92.6504L305.397 92.6801C305.579 92.6807 305.727 92.8277 305.727 93.0103C305.727 93.1922 305.579 93.3392 305.397 93.3392Z" fill="#263238"/>
<path opacity="0.69" d="M283.128 101.283H283.127L254.167 101.253C253.986 101.252 253.838 101.105 253.838 100.923C253.838 100.741 253.986 100.594 254.167 100.594H254.168L283.129 100.623C283.31 100.624 283.458 100.772 283.458 100.954C283.458 101.136 283.31 101.283 283.128 101.283Z" fill="#263238"/>
<path opacity="0.69" d="M305.398 101.331H305.397L286.27 101.302C286.088 101.301 285.941 101.153 285.941 100.972C285.941 100.79 286.09 100.643 286.271 100.643L305.398 100.672C305.58 100.672 305.727 100.821 305.727 101.002C305.727 101.184 305.579 101.331 305.398 101.331Z" fill="#263238"/>
<path opacity="0.69" d="M305.416 64.3565L254.184 64.2773C254.002 64.2767 253.855 64.129 253.855 63.9471C253.855 63.7652 254.004 63.6182 254.185 63.6182H254.186L305.416 63.6973C305.598 63.6979 305.745 63.8456 305.745 64.0275C305.745 64.2088 305.597 64.3565 305.416 64.3565Z" fill="#263238"/>
<path opacity="0.69" d="M269.057 71.0599L254.167 71.0303C253.985 71.0296 253.837 70.882 253.838 70.7C253.839 70.5181 253.986 70.3711 254.167 70.3711H254.168L269.058 70.4008C269.24 70.4014 269.387 70.5491 269.387 70.731C269.386 70.9129 269.238 71.0599 269.057 71.0599Z" fill="#263238"/>
<path opacity="0.69" d="M305.397 71.1127L272.642 71.083C272.46 71.0823 272.312 70.9354 272.312 70.7528C272.312 70.5708 272.46 70.4238 272.642 70.4238L305.397 70.4535C305.579 70.4535 305.727 70.6011 305.727 70.7831C305.727 70.965 305.579 71.1127 305.397 71.1127Z" fill="#263238"/>
<path opacity="0.69" d="M283.128 79.0541H283.127L254.167 79.0244C253.986 79.0238 253.838 78.8761 253.838 78.6942C253.838 78.5122 253.986 78.3652 254.167 78.3652H254.168L283.129 78.3949C283.31 78.3956 283.458 78.5432 283.458 78.7252C283.457 78.9064 283.31 79.0541 283.128 79.0541Z" fill="#263238"/>
<path opacity="0.69" d="M305.398 79.1039H305.397L286.27 79.0742C286.088 79.0736 285.941 78.9259 285.941 78.744C285.941 78.562 286.09 78.415 286.271 78.415L305.398 78.4447C305.58 78.4454 305.727 78.593 305.727 78.7749C305.727 78.9569 305.579 79.1039 305.398 79.1039Z" fill="#263238"/>
<path d="M246.112 59.3955H208.588V113.343H246.112V59.3955Z" fill="#034EB9"/>
<path d="M246.112 59.3955H208.588V72.1058H246.112V59.3955Z" fill="#193091"/>
<path d="M272.22 171.207H208.379V123.293H272.22V171.207ZM209.039 170.548H271.561V123.952H209.038V170.548H209.039Z" fill="#263238"/>
<path d="M210.27 121.985H207.148V125.261H210.27V121.985Z" fill="#263238"/>
<path d="M273.354 122.106H270.232V125.383H273.354V122.106Z" fill="#263238"/>
<path d="M210.27 169.24H207.148V172.516H210.27V169.24Z" fill="#263238"/>
<path d="M273.354 169.24H270.232V172.516H273.354V169.24Z" fill="#263238"/>
<path d="M240.147 136.473H215.148C214.042 136.473 213.145 135.576 213.145 134.469C213.145 133.362 214.042 132.465 215.148 132.465H240.147C241.253 132.465 242.15 133.362 242.15 134.469C242.15 135.576 241.253 136.473 240.147 136.473Z" fill="#B3DDEE"/>
<path d="M240.147 152.87H215.148C214.042 152.87 213.145 151.973 213.145 150.866C213.145 149.759 214.042 148.862 215.148 148.862H240.147C241.253 148.862 242.15 149.759 242.15 150.866C242.15 151.973 241.253 152.87 240.147 152.87Z" fill="#A4EBEB" fill-opacity="0.29"/>
<path d="M246.314 144.381H230.814C229.708 144.381 228.811 143.484 228.811 142.377C228.811 141.27 229.708 140.373 230.814 140.373H246.314C247.421 140.373 248.318 141.27 248.318 142.377C248.318 143.484 247.421 144.381 246.314 144.381Z" fill="#B3DDEE"/>
<path d="M255.53 136.473H247.48C246.374 136.473 245.477 135.576 245.477 134.469C245.477 133.362 246.374 132.465 247.48 132.465H255.53C256.637 132.465 257.534 133.362 257.534 134.469C257.534 135.576 256.637 136.473 255.53 136.473Z" fill="#A4EBEB" fill-opacity="0.29"/>
<path d="M237.957 161.896H215.148C214.042 161.896 213.145 160.999 213.145 159.893C213.145 158.786 214.042 157.889 215.148 157.889H237.957C239.064 157.889 239.961 158.786 239.961 159.893C239.961 160.999 239.064 161.896 237.957 161.896Z" fill="#B3DDEE"/>
<path d="M252.181 161.896H245.041C243.934 161.896 243.037 160.999 243.037 159.893C243.037 158.786 243.934 157.889 245.041 157.889H252.181C253.288 157.889 254.185 158.786 254.185 159.893C254.185 160.999 253.288 161.896 252.181 161.896Z" fill="#A4EBEB" fill-opacity="0.29"/>
<path d="M223.198 144.384H215.148C214.042 144.384 213.145 143.487 213.145 142.38C213.145 141.273 214.042 140.376 215.148 140.376H223.198C224.305 140.376 225.202 141.273 225.202 142.38C225.202 143.487 224.305 144.384 223.198 144.384Z" fill="#A4EBEB" fill-opacity="0.29"/>
<path d="M209.262 217.209H266.361C266.882 217.209 267.304 216.787 267.304 216.266V185.058C267.304 184.537 266.882 184.114 266.361 184.114H209.262C208.741 184.114 208.318 184.537 208.318 185.058V216.266C208.318 216.787 208.74 217.209 209.262 217.209Z" fill="#B3DDEE"/>
<path d="M221.911 208.291C226.848 208.291 230.85 204.289 230.85 199.353C230.85 194.416 226.848 190.414 221.911 190.414C216.975 190.414 212.973 194.416 212.973 199.353C212.973 204.289 216.975 208.291 221.911 208.291Z" fill="#F7F9FF"/>
<path d="M259.047 192.61H237.443C237.261 192.61 237.113 192.463 237.113 192.281C237.113 192.099 237.261 191.951 237.443 191.951H259.047C259.229 191.951 259.376 192.099 259.376 192.281C259.376 192.463 259.229 192.61 259.047 192.61Z" fill="#F7F9FF"/>
<path d="M262.682 204.927H250.777C250.595 204.927 250.447 204.779 250.447 204.597C250.447 204.415 250.595 204.268 250.777 204.268H262.682C262.864 204.268 263.012 204.415 263.012 204.597C263.012 204.779 262.864 204.927 262.682 204.927Z" fill="#F7F9FF"/>
<path d="M247.915 209.376H236.009C235.827 209.376 235.68 209.228 235.68 209.046C235.68 208.864 235.827 208.717 236.009 208.717H247.915C248.097 208.717 248.245 208.864 248.245 209.046C248.245 209.228 248.098 209.376 247.915 209.376Z" fill="#F7F9FF"/>
<path d="M249.36 200.64H236.009C235.827 200.64 235.68 200.492 235.68 200.31C235.68 200.128 235.827 199.98 236.009 199.98H249.36C249.542 199.98 249.69 200.128 249.69 200.31C249.69 200.492 249.542 200.64 249.36 200.64Z" fill="#F7F9FF"/>
<path d="M261.996 200.64H253.232C253.05 200.64 252.902 200.492 252.902 200.31C252.902 200.128 253.05 199.98 253.232 199.98H261.996C262.178 199.98 262.325 200.128 262.325 200.31C262.325 200.492 262.178 200.64 261.996 200.64Z" fill="#6FE2E1"/>
<path d="M244.134 204.927H235.416C235.234 204.927 235.086 204.779 235.086 204.597C235.086 204.415 235.234 204.268 235.416 204.268H244.134C244.316 204.268 244.464 204.415 244.464 204.597C244.464 204.779 244.317 204.927 244.134 204.927Z" fill="#6FE2E1"/>
<path d="M331.778 179.78H275.436V221.92H331.778V179.78Z" fill="#F7F9FF"/>
<g opacity="0.48">
<path d="M332.108 222.249H275.105V179.45H332.108V222.249ZM275.765 221.59H331.449V180.109H275.765V221.59Z" fill="#263238"/>
<path d="M276.827 178.318H274.043V181.24H276.827V178.318Z" fill="#263238"/>
<path d="M333.083 178.426H330.299V181.347H333.083V178.426Z" fill="#263238"/>
<path d="M276.827 220.459H274.043V223.38H276.827V220.459Z" fill="#263238"/>
<path d="M333.083 220.459H330.299V223.38H333.083V220.459Z" fill="#263238"/>
</g>
<path d="M308.465 190.19H283.467C282.36 190.19 281.463 189.293 281.463 188.187C281.463 187.08 282.36 186.183 283.467 186.183H308.465C309.572 186.183 310.469 187.08 310.469 188.187C310.469 189.293 309.572 190.19 308.465 190.19Z" fill="#B3DDEE"/>
<path d="M308.465 206.588H283.467C282.36 206.588 281.463 205.691 281.463 204.584C281.463 203.477 282.36 202.58 283.467 202.58H308.465C309.572 202.58 310.469 203.477 310.469 204.584C310.469 205.691 309.572 206.588 308.465 206.588Z" fill="#A4EBEB" fill-opacity="0.29"/>
<path d="M314.632 198.099H299.133C298.026 198.099 297.129 197.201 297.129 196.095C297.129 194.988 298.026 194.091 299.133 194.091H314.632C315.739 194.091 316.636 194.988 316.636 196.095C316.635 197.201 315.738 198.099 314.632 198.099Z" fill="#B3DDEE"/>
<path d="M323.849 190.19H315.799C314.692 190.19 313.795 189.293 313.795 188.187C313.795 187.08 314.692 186.183 315.799 186.183H323.849C324.955 186.183 325.853 187.08 325.853 188.187C325.853 189.293 324.955 190.19 323.849 190.19Z" fill="#A4EBEB" fill-opacity="0.29"/>
<path d="M306.276 215.613H283.467C282.36 215.613 281.463 214.716 281.463 213.609C281.463 212.503 282.36 211.605 283.467 211.605H306.276C307.383 211.605 308.28 212.503 308.28 213.609C308.279 214.716 307.382 215.613 306.276 215.613Z" fill="#B3DDEE"/>
<path d="M320.5 215.613H313.359C312.253 215.613 311.355 214.716 311.355 213.609C311.355 212.503 312.253 211.605 313.359 211.605H320.5C321.606 211.605 322.504 212.503 322.504 213.609C322.503 214.716 321.606 215.613 320.5 215.613Z" fill="#A4EBEB" fill-opacity="0.29"/>
<path d="M291.517 198.102H283.467C282.36 198.102 281.463 197.204 281.463 196.098C281.463 194.991 282.36 194.094 283.467 194.094H291.517C292.623 194.094 293.521 194.991 293.521 196.098C293.52 197.204 292.623 198.102 291.517 198.102Z" fill="#A4EBEB" fill-opacity="0.29"/>
<path d="M343.737 109.357H301.767C301.247 109.357 300.824 108.934 300.824 108.413V71.5341C300.824 71.0134 301.247 70.5908 301.767 70.5908H343.737C344.258 70.5908 344.681 71.0134 344.681 71.5341V108.413C344.681 108.934 344.258 109.357 343.737 109.357Z" fill="#B3DDEE"/>
<path d="M307.652 76.9351C307.568 76.9351 307.484 76.9029 307.419 76.8389L304.38 73.7988C304.251 73.6702 304.251 73.4613 304.38 73.3327C304.508 73.2042 304.717 73.2042 304.846 73.3327L307.885 76.3729C308.014 76.5014 308.014 76.7104 307.885 76.8389C307.821 76.9029 307.737 76.9351 307.652 76.9351Z" fill="#F7F9FF"/>
<path d="M304.612 76.9351C304.528 76.9351 304.444 76.9029 304.38 76.8389C304.251 76.7104 304.251 76.5014 304.38 76.3729L307.419 73.3327C307.548 73.2042 307.757 73.2042 307.885 73.3327C308.014 73.4613 308.014 73.6702 307.885 73.7988L304.846 76.8389C304.781 76.9029 304.697 76.9351 304.612 76.9351Z" fill="#F7F9FF"/>
<path d="M316.132 86.167V87.5506L309.377 90.3989L316.132 93.1866V94.5702L307.871 91.0911V89.7074L316.132 86.167Z" fill="#F7F9FF"/>
<path d="M327.546 82.4238L319.549 97.8058H318.125L326.121 82.4238H327.546Z" fill="#F7F9FF"/>
<path d="M329.541 86.167L337.802 89.7074V91.0911L329.541 94.5702V93.1866L336.296 90.3989L329.541 87.5506V86.167Z" fill="#F7F9FF"/>
<path d="M358.733 166.637H262.937C262.417 166.637 261.994 166.214 261.994 165.694V128.814C261.994 128.294 262.417 127.871 262.937 127.871H358.733C359.253 127.871 359.676 128.294 359.676 128.814V165.694C359.676 166.215 359.253 166.637 358.733 166.637Z" fill="#5ECADA"/>
<path d="M268.822 134.214C268.737 134.214 268.653 134.182 268.589 134.118L265.55 131.078C265.421 130.95 265.421 130.741 265.55 130.612C265.678 130.483 265.887 130.483 266.016 130.612L269.055 133.652C269.184 133.781 269.184 133.99 269.055 134.118C268.99 134.182 268.906 134.214 268.822 134.214Z" fill="#4D9CA9"/>
<path d="M265.782 134.214C265.698 134.214 265.613 134.182 265.55 134.118C265.421 133.99 265.421 133.781 265.55 133.652L268.589 130.612C268.718 130.483 268.927 130.483 269.055 130.612C269.184 130.741 269.184 130.95 269.055 131.078L266.016 134.118C265.951 134.182 265.867 134.214 265.782 134.214Z" fill="#4D9CA9"/>
<path d="M293.574 142.124H271.828C271.646 142.124 271.498 141.976 271.498 141.794C271.498 141.613 271.646 141.465 271.828 141.465H293.574C293.756 141.465 293.904 141.613 293.904 141.794C293.904 141.976 293.756 142.124 293.574 142.124Z" fill="#4D9CA9"/>
<path d="M318.61 142.124H299.226C299.044 142.124 298.896 141.976 298.896 141.794C298.896 141.613 299.044 141.465 299.226 141.465H318.61C318.792 141.465 318.94 141.613 318.94 141.794C318.94 141.976 318.793 142.124 318.61 142.124Z" fill="#4D9CA9"/>
<path d="M291.211 154.367H271.828C271.646 154.367 271.498 154.22 271.498 154.038C271.498 153.856 271.646 153.708 271.828 153.708H291.211C291.393 153.708 291.54 153.856 291.54 154.038C291.54 154.22 291.393 154.367 291.211 154.367Z" fill="#4D9CA9"/>
<path d="M309.557 147.9H290.173C289.991 147.9 289.844 147.753 289.844 147.571C289.844 147.389 289.991 147.241 290.173 147.241H309.557C309.738 147.241 309.886 147.389 309.886 147.571C309.886 147.753 309.739 147.9 309.557 147.9Z" fill="#4D9CA9"/>
<path d="M284.552 147.9H271.828C271.646 147.9 271.498 147.753 271.498 147.571C271.498 147.389 271.646 147.241 271.828 147.241H284.552C284.734 147.241 284.881 147.389 284.881 147.571C284.881 147.753 284.734 147.9 284.552 147.9Z" fill="#4D9CA9"/>
<path d="M304.994 154.367H297.171C296.989 154.367 296.842 154.22 296.842 154.038C296.842 153.856 296.989 153.708 297.171 153.708H304.994C305.176 153.708 305.323 153.856 305.323 154.038C305.323 154.22 305.176 154.367 304.994 154.367Z" fill="#4D9CA9"/>
<path d="M335.447 142.124H313.701C313.519 142.124 313.371 141.976 313.371 141.794C313.371 141.613 313.519 141.465 313.701 141.465H335.447C335.629 141.465 335.777 141.613 335.777 141.794C335.777 141.976 335.63 142.124 335.447 142.124Z" fill="#4D9CA9"/>
<path d="M346.583 142.124H329.353C329.171 142.124 329.023 141.976 329.023 141.794C329.023 141.613 329.171 141.465 329.353 141.465H346.583C346.765 141.465 346.912 141.613 346.912 141.794C346.912 141.976 346.765 142.124 346.583 142.124Z" fill="#4D9CA9"/>
<path d="M333.084 154.367H313.701C313.519 154.367 313.371 154.22 313.371 154.038C313.371 153.856 313.519 153.708 313.701 153.708H333.084C333.266 153.708 333.413 153.856 333.413 154.038C333.413 154.22 333.266 154.367 333.084 154.367Z" fill="#4D9CA9"/>
<path d="M351.43 147.9H332.046C331.864 147.9 331.717 147.753 331.717 147.571C331.717 147.389 331.864 147.241 332.046 147.241H351.43C351.612 147.241 351.76 147.389 351.76 147.571C351.76 147.753 351.612 147.9 351.43 147.9Z" fill="#4D9CA9"/>
<path d="M326.425 147.9H313.701C313.519 147.9 313.371 147.753 313.371 147.571C313.371 147.389 313.519 147.241 313.701 147.241H326.425C326.607 147.241 326.754 147.389 326.754 147.571C326.754 147.753 326.607 147.9 326.425 147.9Z" fill="#4D9CA9"/>
<path d="M346.868 154.367H339.044C338.863 154.367 338.715 154.22 338.715 154.038C338.715 153.856 338.863 153.708 339.044 153.708H346.868C347.05 153.708 347.197 153.856 347.197 154.038C347.197 154.22 347.05 154.367 346.868 154.367Z" fill="#4D9CA9"/>
<path d="M92.7961 148.125H57.1582V122.538H92.7961V148.125ZM57.8174 147.466H92.1369V123.197H57.8174V147.466Z" fill="#F7F9FF"/>
<path d="M58.3514 122.004H56.623V123.732H58.3514V122.004Z" fill="#263238"/>
<path d="M58.6799 124.062H56.293V121.675H58.6799V124.062ZM56.9521 123.403H58.0207V122.334H56.9521V123.403Z" fill="#F7F9FF"/>
<path d="M93.2772 122.067H91.5488V123.796H93.2772V122.067Z" fill="#263238"/>
<path d="M93.6063 124.126H91.2188V121.738H93.6063V124.126ZM91.8779 123.467H92.9471V122.397H91.8779V123.467Z" fill="#F7F9FF"/>
<path d="M58.3514 146.933H56.623V148.661H58.3514V146.933Z" fill="#263238"/>
<path d="M58.6799 148.99H56.293V146.604H58.6799V148.99ZM56.9521 148.331H58.0207V147.263H56.9521V148.331Z" fill="#F7F9FF"/>
<path d="M93.2772 146.933H91.5488V148.661H93.2772V146.933Z" fill="#263238"/>
<path d="M93.6063 148.99H91.2188V146.604H93.6063V148.99ZM91.8779 148.331H92.9471V147.263H91.8779V148.331Z" fill="#F7F9FF"/>
<path d="M69.1227 161.657H20.058C19.559 161.657 19.1035 161.375 18.88 160.93L0.471763 124.249C0.0320898 123.373 0.668859 122.34 1.64972 122.34H51.019C51.5206 122.34 51.9788 122.625 52.2009 123.075L70.3046 159.755C70.737 160.631 70.0996 161.657 69.1227 161.657Z" fill="#F7F9FF"/>
<path d="M69.123 161.986H20.0576C19.4314 161.986 18.8665 161.638 18.5856 161.077L0.176725 124.397C-0.0816732 123.883 -0.0553042 123.283 0.2466 122.793C0.549164 122.302 1.07321 122.01 1.64933 122.01H51.0186C51.6501 122.01 52.2163 122.362 52.4958 122.929L70.6002 159.609C70.854 160.123 70.825 160.721 70.5224 161.208C70.2198 161.695 69.6965 161.986 69.123 161.986ZM1.64999 122.67C1.30458 122.67 0.989494 122.845 0.808878 123.139C0.627604 123.433 0.611787 123.793 0.766694 124.101L19.1749 160.781C19.3437 161.118 19.6825 161.327 20.0582 161.327H69.1236C69.4671 161.327 69.7815 161.152 69.9628 160.86C70.144 160.568 70.1618 160.209 70.0096 159.901L51.9052 123.221C51.7371 122.881 51.3976 122.67 51.0186 122.67H1.64999Z" fill="#263238"/>
<path d="M96.384 161.52C96.384 160.176 95.2943 159.087 93.9509 159.087H67.7037L50.5466 124.717C50.4352 124.494 50.2064 124.353 49.9566 124.353H1.40604C0.91627 124.353 0.597888 124.867 0.816077 125.306L19.0345 161.874C19.1465 162.099 19.3766 162.24 19.6271 162.239L68.1084 162.027C68.1203 162.027 68.1309 162.023 68.1427 162.022H96.384V161.52Z" fill="#263238"/>
<path d="M73.8443 161.068H70.7797C70.7309 161.068 70.6914 161.028 70.6914 160.979V160.346C70.6914 160.297 70.7309 160.257 70.7797 160.257H73.8443C73.893 160.257 73.9326 160.296 73.9326 160.346V160.979C73.9332 161.028 73.893 161.068 73.8443 161.068Z" fill="#F7F9FF"/>
<path d="M79.4328 161.068H76.3683C76.3195 161.068 76.2793 161.028 76.2793 160.979V160.346C76.2793 160.297 76.3188 160.257 76.3683 160.257H79.4328C79.4816 160.257 79.5218 160.296 79.5218 160.346V160.979C79.5218 161.028 79.4822 161.068 79.4328 161.068Z" fill="#F7F9FF"/>
<path d="M35.2836 146.333C33.8637 147.753 31.2158 147.408 29.3694 145.561C27.523 143.715 27.177 141.067 28.5975 139.647C30.0174 138.227 32.6653 138.573 34.5117 140.419C36.358 142.265 36.7034 144.913 35.2836 146.333Z" fill="#F7F9FF"/>
<path d="M33.0293 147.534C31.7195 147.534 30.2786 146.938 29.1369 145.795C27.1653 143.824 26.8185 140.961 28.365 139.415C29.9114 137.869 32.7729 138.215 34.7458 140.187C36.7174 142.158 37.0642 145.021 35.5177 146.568C34.8665 147.218 33.9818 147.534 33.0293 147.534ZM30.856 139.102C30.0742 139.102 29.3564 139.356 28.831 139.882C27.5416 141.171 27.8877 143.615 29.6029 145.33C31.3181 147.044 33.763 147.391 35.0517 146.102C36.341 144.813 35.995 142.369 34.2798 140.654C33.264 139.637 31.9918 139.102 30.856 139.102Z" fill="#263238"/>
<path d="M33.4777 148.687C31.8291 148.687 30.0072 147.929 28.5603 146.481C26.0771 143.998 25.6229 140.412 27.5477 138.487C29.4712 136.563 33.0585 137.018 35.5416 139.501C38.0254 141.984 38.4796 145.57 36.5548 147.494C35.7512 148.298 34.659 148.687 33.4777 148.687ZM30.6202 137.621C29.4917 137.621 28.5003 138.001 27.7804 138.721C25.9842 140.517 26.4383 143.894 28.7929 146.249C29.9393 147.395 31.3585 148.129 32.7882 148.316C34.2009 148.502 35.4566 148.127 36.3208 147.262C37.185 146.398 37.5594 145.143 37.3748 143.729C37.1883 142.299 36.4546 140.881 35.3076 139.734C34.1613 138.588 32.7421 137.853 31.3123 137.667C31.077 137.636 30.8456 137.621 30.6202 137.621Z" fill="#F7F9FF"/>
<path d="M91.5559 107.983H78.8792C75.2557 107.983 72.3184 105.046 72.3184 101.422C72.3184 97.7986 75.2557 94.8613 78.8792 94.8613H91.5559C95.1794 94.8613 98.1167 97.7986 98.1167 101.422C98.1167 105.046 95.1794 107.983 91.5559 107.983Z" fill="#B3DDEE"/>
<path d="M79.6712 98.334C79.9395 98.3393 80.217 98.3531 80.5024 98.3749C80.7878 98.3973 81.0726 98.4381 81.358 98.4988L81.3092 99.0255C81.0733 99.0143 80.8122 99.005 80.5268 98.9971C80.2414 98.9885 79.9672 98.9846 79.7041 98.9846C79.5005 98.9846 79.3271 98.9918 79.1814 99.005C79.0357 99.0189 78.9171 99.0518 78.8235 99.1039C78.7299 99.156 78.6633 99.241 78.6218 99.359C78.5802 99.477 78.5598 99.6398 78.5598 99.8488C78.5598 100.162 78.6158 100.379 78.7286 100.503C78.8413 100.627 79.0232 100.719 79.2757 100.779L80.4279 101.067C80.8669 101.171 81.1669 101.354 81.329 101.614C81.4905 101.875 81.5716 102.224 81.5716 102.663C81.5716 102.993 81.534 103.259 81.4602 103.462C81.3864 103.665 81.2723 103.82 81.1188 103.927C80.9652 104.034 80.7674 104.108 80.5261 104.149C80.2849 104.191 79.9995 104.211 79.6705 104.211C79.484 104.211 79.2414 104.203 78.9421 104.186C78.6435 104.17 78.2988 104.126 77.9099 104.054L77.9593 103.519C78.2823 103.53 78.5433 103.54 78.7411 103.548C78.9388 103.556 79.1089 103.561 79.2513 103.561C79.3937 103.561 79.5413 103.561 79.6956 103.561C79.9863 103.561 80.215 103.539 80.3824 103.495C80.5499 103.451 80.6685 103.363 80.7364 103.232C80.805 103.1 80.8393 102.905 80.8393 102.648C80.8393 102.428 80.8149 102.258 80.7654 102.137C80.716 102.017 80.6382 101.925 80.5314 101.862C80.424 101.799 80.2882 101.749 80.124 101.71L78.9474 101.414C78.5361 101.31 78.2467 101.128 78.0793 100.871C77.9118 100.613 77.8281 100.267 77.8281 99.8336C77.8281 99.504 77.8657 99.2397 77.9395 99.0393C78.0133 98.8389 78.1254 98.688 78.277 98.5864C78.428 98.4849 78.6185 98.4177 78.8485 98.3847C79.0786 98.3518 79.3528 98.334 79.6712 98.334Z" fill="#F7F9FF"/>
<path d="M84.7491 98.3262C85.1604 98.3262 85.5098 98.3756 85.7979 98.4745C86.0866 98.5734 86.3166 98.7362 86.4893 98.9643C86.6627 99.1917 86.7886 99.4949 86.8677 99.8733C86.9475 100.252 86.9877 100.718 86.9877 101.272C86.9877 101.826 86.9475 102.292 86.8677 102.671C86.7886 103.05 86.662 103.353 86.4893 103.58C86.3166 103.808 86.0866 103.971 85.7979 104.07C85.5098 104.169 85.1604 104.219 84.7491 104.219C84.3318 104.219 83.9805 104.169 83.6951 104.07C83.4096 103.971 83.1796 103.809 83.0036 103.58C82.8282 103.353 82.7004 103.05 82.6213 102.671C82.5415 102.293 82.502 101.826 82.502 101.272C82.502 100.718 82.5415 100.252 82.6213 99.8733C82.7004 99.4949 82.8282 99.1917 83.0036 98.9643C83.1796 98.7362 83.4096 98.5734 83.6951 98.4745C83.9805 98.3756 84.3318 98.3262 84.7491 98.3262ZM84.7491 98.9761C84.376 98.9761 84.0807 99.0473 83.8638 99.1904C83.6476 99.3327 83.4934 99.57 83.4031 99.9023C83.3127 100.235 83.2673 100.691 83.2673 101.273C83.2673 101.849 83.3127 102.304 83.4031 102.639C83.494 102.973 83.6476 103.212 83.8638 103.354C84.0807 103.497 84.3753 103.569 84.7491 103.569C85.1215 103.569 85.4155 103.497 85.6291 103.354C85.8433 103.212 85.9969 102.973 86.0899 102.639C86.1835 102.304 86.2303 101.849 86.2303 101.273C86.2303 100.691 86.1835 100.235 86.0899 99.9023C85.9963 99.5707 85.8433 99.3334 85.6291 99.1904C85.4155 99.048 85.1222 98.9761 84.7491 98.9761ZM84.4109 104.465C84.7346 104.602 85.078 104.718 85.4399 104.811C85.8025 104.904 86.1861 104.981 86.5922 105.041L86.3614 105.766C85.9336 105.678 85.5414 105.556 85.1848 105.399C84.8282 105.243 84.5019 105.077 84.2059 104.901L84.4109 104.465Z" fill="#F7F9FF"/>
<path d="M88.9112 98.4326V102.959C88.9112 103.146 88.956 103.283 89.047 103.371C89.1373 103.458 89.2757 103.502 89.4623 103.502H91.511L91.5446 104.062C91.188 104.09 90.8241 104.106 90.4543 104.111C90.0832 104.117 89.7147 104.12 89.3469 104.12C88.9303 104.12 88.6337 104.019 88.4583 103.815C88.2823 103.612 88.1953 103.357 88.1953 103.05V98.4333L88.9112 98.4326Z" fill="#F7F9FF"/>
<path d="M80.7078 143.038H69.3105C64.9422 143.038 61.4004 139.496 61.4004 135.128C61.4004 130.76 64.9422 127.218 69.3105 127.218H80.7078C85.0761 127.218 88.6179 130.759 88.6179 135.128C88.6179 139.496 85.0768 143.038 80.7078 143.038Z" fill="#B3DDEE"/>
<path d="M70.8999 132.5V133.359L66.7075 135.127L70.8999 136.857V137.715L65.7734 135.557V134.698L70.8999 132.5Z" fill="#F7F9FF"/>
<path d="M77.983 130.176L73.0207 139.722H72.1367L77.099 130.176H77.983Z" fill="#F7F9FF"/>
<path d="M79.2207 132.5L84.3472 134.697V135.556L79.2207 137.715V136.857L83.4124 135.126L79.2207 133.358V132.5Z" fill="#F7F9FF"/>
<path d="M60.7947 114.298H44.9157C41.7846 114.298 39.2461 111.76 39.2461 108.629C39.2461 105.497 41.7846 102.959 44.9157 102.959H60.7947C63.9258 102.959 66.4643 105.497 66.4643 108.629C66.4636 111.76 63.9258 114.298 60.7947 114.298Z" fill="#44A6D1"/>
<path d="M47.4858 105.773C47.6401 105.773 47.8121 105.781 48.0006 105.795C48.1898 105.808 48.3843 105.833 48.584 105.868C48.7844 105.903 48.9677 105.952 49.1364 106.015L49.0204 106.593C48.789 106.572 48.5458 106.557 48.29 106.546C48.0343 106.535 47.8154 106.53 47.6335 106.53C47.2274 106.53 46.9051 106.586 46.6665 106.698C46.4278 106.81 46.2564 107.007 46.1516 107.287C46.0468 107.567 45.9941 107.956 45.9941 108.454C45.9941 108.951 46.0468 109.342 46.1516 109.625C46.2564 109.909 46.4285 110.107 46.6665 110.219C46.9044 110.331 47.2274 110.387 47.6335 110.387C47.7383 110.387 47.8747 110.384 48.0435 110.376C48.2116 110.37 48.3915 110.359 48.584 110.345C48.7772 110.331 48.9604 110.31 49.1364 110.282L49.2313 110.881C48.9716 110.972 48.6901 111.038 48.3849 111.08C48.0804 111.123 47.7772 111.144 47.4759 111.144C46.8873 111.144 46.4146 111.056 46.0574 110.881C45.7001 110.706 45.4424 110.423 45.2848 110.03C45.1273 109.637 45.0488 109.112 45.0488 108.453C45.0488 107.794 45.1292 107.269 45.2901 106.876C45.4509 106.483 45.7106 106.202 46.0679 106.03C46.4239 105.859 46.8972 105.773 47.4858 105.773Z" fill="#F7F9FF"/>
<path d="M52.1425 105.773C52.3673 105.773 52.6052 105.781 52.8577 105.794C53.1095 105.808 53.36 105.826 53.6092 105.847C53.8577 105.868 54.0877 105.896 54.2974 105.931L54.2242 106.582C53.9019 106.568 53.5782 106.556 53.2519 106.545C52.9256 106.535 52.602 106.529 52.2796 106.529C51.9639 106.523 51.7154 106.529 51.5328 106.55C51.3508 106.572 51.219 106.628 51.1386 106.719C51.0582 106.81 51.0173 106.964 51.0173 107.181C51.0173 107.448 51.0806 107.622 51.2065 107.707C51.3324 107.791 51.5183 107.861 51.7641 107.917L53.2565 108.253C53.6626 108.351 53.9618 108.502 54.155 108.705C54.3475 108.909 54.4437 109.227 54.4437 109.662C54.4437 110.082 54.3646 110.397 54.2077 110.608C54.0502 110.818 53.8096 110.958 53.4872 111.028C53.1649 111.098 52.7555 111.133 52.2579 111.133C52.0759 111.133 51.8043 111.126 51.4438 111.112C51.0825 111.098 50.6851 111.056 50.2507 110.986L50.3139 110.335C50.482 110.341 50.66 110.351 50.8499 110.361C51.039 110.372 51.2368 110.377 51.4438 110.377C51.6501 110.377 51.8624 110.377 52.0792 110.377C52.4648 110.377 52.7661 110.36 52.983 110.324C53.2005 110.289 53.3541 110.221 53.4457 110.119C53.5367 110.018 53.5822 109.866 53.5822 109.662C53.5822 109.41 53.509 109.242 53.3613 109.158C53.2143 109.074 53.0179 109.004 52.7727 108.947L51.3014 108.611C51.0212 108.541 50.7971 108.448 50.6284 108.333C50.4603 108.218 50.3383 108.067 50.2605 107.881C50.1834 107.695 50.1445 107.462 50.1445 107.182C50.1445 106.783 50.2144 106.481 50.3548 106.278C50.4946 106.075 50.7121 105.938 51.0061 105.868C51.3021 105.798 51.6804 105.767 52.1425 105.773Z" fill="#F7F9FF"/>
<path d="M57.4804 105.773C57.7052 105.773 57.9431 105.781 58.1956 105.794C58.4474 105.808 58.6979 105.826 58.9471 105.847C59.1956 105.868 59.4256 105.896 59.6353 105.931L59.5621 106.582C59.2397 106.568 58.9161 106.556 58.5898 106.545C58.2635 106.535 57.9398 106.529 57.6175 106.529C57.3018 106.523 57.0532 106.529 56.8707 106.55C56.6887 106.572 56.5569 106.628 56.4765 106.719C56.396 106.81 56.3552 106.964 56.3552 107.181C56.3552 107.448 56.4185 107.622 56.5444 107.707C56.6703 107.791 56.8562 107.861 57.102 107.917L58.5944 108.253C59.0005 108.351 59.2997 108.502 59.4929 108.705C59.6854 108.909 59.7816 109.227 59.7816 109.662C59.7816 110.082 59.7025 110.397 59.5456 110.608C59.3881 110.818 59.1475 110.958 58.8251 111.028C58.5028 111.098 58.0934 111.133 57.5957 111.133C57.4138 111.133 57.1422 111.126 56.7817 111.112C56.4204 111.098 56.0229 111.056 55.5885 110.986L55.6518 110.335C55.8199 110.341 55.9979 110.351 56.1877 110.361C56.3769 110.372 56.5747 110.377 56.7817 110.377C56.988 110.377 57.2002 110.377 57.4171 110.377C57.8027 110.377 58.104 110.36 58.3209 110.324C58.5384 110.289 58.692 110.221 58.7836 110.119C58.8746 110.018 58.92 109.866 58.92 109.662C58.92 109.41 58.8469 109.242 58.6992 109.158C58.5522 109.074 58.3558 109.004 58.1106 108.947L56.6393 108.611C56.3591 108.541 56.135 108.448 55.9663 108.333C55.7982 108.218 55.6762 108.067 55.5984 107.881C55.5213 107.695 55.4824 107.462 55.4824 107.182C55.4824 106.783 55.5523 106.481 55.6927 106.278C55.8324 106.075 56.05 105.938 56.344 105.868C56.6393 105.798 57.0183 105.767 57.4804 105.773Z" fill="#F7F9FF"/>
<path d="M88.2678 78.5499C88.2678 79.4003 87.579 80.0891 86.7286 80.0891C85.879 80.0891 85.1895 79.4003 85.1895 78.5499C85.1895 77.7002 85.8783 77.0107 86.7286 77.0107C87.579 77.0107 88.2678 77.7002 88.2678 78.5499Z" fill="#44A6D1"/>
<path d="M29.4819 105.687C29.4819 106.112 29.1371 106.456 28.7126 106.456C28.2875 106.456 27.9434 106.112 27.9434 105.687C27.9434 105.263 28.2881 104.918 28.7126 104.918C29.1371 104.917 29.4819 105.262 29.4819 105.687Z" fill="#F7F9FF"/>
<path d="M43.5717 84.2888C43.5717 84.714 43.227 85.0581 42.8025 85.0581C42.3779 85.0581 42.0332 84.7133 42.0332 84.2888C42.0332 83.8643 42.3779 83.5195 42.8025 83.5195C43.227 83.5195 43.5717 83.8636 43.5717 84.2888Z" fill="#F7F9FF"/>
<path d="M51.187 44.4577C51.187 44.8829 50.8422 45.227 50.4177 45.227C49.9932 45.227 49.6484 44.8823 49.6484 44.4577C49.6484 44.0326 49.9932 43.6885 50.4177 43.6885C50.8422 43.6885 51.187 44.0326 51.187 44.4577Z" fill="#F7F9FF"/>
<path opacity="0.49" d="M23.0209 63.8571C23.0209 64.2823 22.6762 64.6264 22.2517 64.6264C21.8272 64.6264 21.4824 64.2817 21.4824 63.8571C21.4824 63.432 21.8272 63.0879 22.2517 63.0879C22.6762 63.0879 23.0209 63.4326 23.0209 63.8571Z" fill="#F7F9FF"/>
<path opacity="0.49" d="M68.0034 68.4685C68.0034 68.8936 67.6586 69.2377 67.2341 69.2377C66.8089 69.2377 66.4648 68.893 66.4648 68.4685C66.4648 68.044 66.8096 67.6992 67.2341 67.6992C67.6586 67.6992 68.0034 68.0433 68.0034 68.4685Z" fill="#F7F9FF"/>
<path d="M62.0666 90.5197C62.0666 91.3693 61.3778 92.0588 60.5275 92.0588C59.6778 92.0588 58.9883 91.37 58.9883 90.5197C58.9883 89.67 59.6771 88.9805 60.5275 88.9805C61.3778 88.9811 62.0666 89.67 62.0666 90.5197Z" fill="#F7F9FF"/>
<path d="M16.2421 260.279C15.5539 260.279 14.9066 260.013 14.4168 259.528C13.9251 259.04 13.6522 258.389 13.6489 257.697L13.2461 169.654C13.2428 168.961 13.5091 168.309 13.9976 167.817C14.4847 167.325 15.1353 167.052 15.8275 167.049L109.692 166.619C109.695 166.619 109.699 166.619 109.703 166.619C111.128 166.619 112.291 167.775 112.298 169.201L112.701 257.244C112.704 257.937 112.438 258.589 111.949 259.082C111.462 259.573 110.811 259.846 110.119 259.85L16.2546 260.279C16.2507 260.279 16.2461 260.279 16.2421 260.279ZM109.703 167.278C109.7 167.278 109.697 167.278 109.695 167.278L15.8301 167.707C15.314 167.71 14.8288 167.914 14.4656 168.28C14.1017 168.647 13.9027 169.134 13.9053 169.651L14.3081 257.694C14.3107 258.21 14.5144 258.695 14.8809 259.059C15.2461 259.42 15.7286 259.62 16.2414 259.62C16.2447 259.62 16.248 259.62 16.2513 259.62L110.115 259.19C110.631 259.187 111.117 258.983 111.48 258.617C111.844 258.25 112.043 257.763 112.04 257.246L111.637 169.203C111.633 168.14 110.766 167.278 109.703 167.278Z" fill="#263238"/>
<path d="M108.516 173.788L108.889 255.283C108.895 256.533 107.886 257.551 106.636 257.557L19.7313 257.955C18.4808 257.961 17.463 256.952 17.4571 255.702L17.084 174.207C17.0781 172.956 18.0873 171.938 19.3378 171.932L106.242 171.534C107.493 171.529 108.511 172.538 108.516 173.788Z" fill="#F7F9FF"/>
<path d="M112.274 164.033L112.299 169.483L13.1917 169.937L13.166 164.376C13.1608 163.18 14.1265 162.205 15.3229 162.199L109.986 161.766C111.244 161.76 112.268 162.775 112.274 164.033Z" fill="#5ECADA"/>
<path d="M18.0675 167.586C17.204 167.586 16.502 166.884 16.502 166.021C16.502 165.157 17.204 164.455 18.0675 164.455C18.9304 164.455 19.6331 165.157 19.6331 166.021C19.6331 166.883 18.9304 167.586 18.0675 167.586ZM18.0675 164.949C17.4762 164.949 16.9963 165.43 16.9963 166.021C16.9963 166.611 17.4762 167.092 18.0675 167.092C18.6581 167.092 19.1387 166.611 19.1387 166.021C19.1387 165.429 18.6581 164.949 18.0675 164.949Z" fill="#F7F9FF"/>
<path d="M23.5714 167.586C22.7085 167.586 22.0059 166.884 22.0059 166.021C22.0059 165.157 22.7085 164.455 23.5714 164.455C24.4349 164.455 25.137 165.157 25.137 166.021C25.137 166.883 24.4349 167.586 23.5714 167.586ZM23.5714 164.949C22.9808 164.949 22.5002 165.43 22.5002 166.021C22.5002 166.611 22.9808 167.092 23.5714 167.092C24.1627 167.092 24.6426 166.611 24.6426 166.021C24.6426 165.429 24.1627 164.949 23.5714 164.949Z" fill="#F7F9FF"/>
<path d="M28.923 167.586C28.0594 167.586 27.3574 166.884 27.3574 166.021C27.3574 165.157 28.0594 164.455 28.923 164.455C29.7858 164.455 30.4885 165.157 30.4885 166.021C30.4885 166.883 29.7858 167.586 28.923 167.586ZM28.923 164.949C28.3323 164.949 27.8518 165.43 27.8518 166.021C27.8518 166.611 28.3323 167.092 28.923 167.092C29.5136 167.092 29.9941 166.611 29.9941 166.021C29.9941 165.429 29.5136 164.949 28.923 164.949Z" fill="#F7F9FF"/>
<path d="M61.1798 198.53H27.2729C27.091 198.53 26.9434 198.383 26.9434 198.201C26.9434 198.019 27.091 197.871 27.2729 197.871H61.1798C61.3618 197.871 61.5094 198.019 61.5094 198.201C61.5094 198.383 61.3624 198.53 61.1798 198.53Z" fill="#5ECADA"/>
<path d="M70.8876 183.874H27.271C27.0891 183.874 26.9414 183.726 26.9414 183.544C26.9414 183.363 27.0891 183.215 27.271 183.215H70.8876C71.0695 183.215 71.2172 183.363 71.2172 183.544C71.2172 183.726 71.0695 183.874 70.8876 183.874Z" fill="#5ECADA"/>
<path opacity="0.69" d="M85.427 183.874H76.3745C76.1926 183.874 76.0449 183.726 76.0449 183.544C76.0449 183.363 76.1926 183.215 76.3745 183.215H85.427C85.609 183.215 85.7566 183.363 85.7566 183.544C85.7566 183.726 85.6096 183.874 85.427 183.874Z" fill="#263238"/>
<path d="M70.8876 214.585H27.271C27.0891 214.585 26.9414 214.437 26.9414 214.255C26.9414 214.073 27.0891 213.926 27.271 213.926H70.8876C71.0695 213.926 71.2172 214.073 71.2172 214.255C71.2172 214.437 71.0695 214.585 70.8876 214.585Z" fill="#5ECADA"/>
<path d="M85.427 214.585H76.3745C76.1926 214.585 76.0449 214.437 76.0449 214.255C76.0449 214.073 76.1926 213.926 76.3745 213.926H85.427C85.609 213.926 85.7566 214.073 85.7566 214.255C85.7566 214.437 85.6096 214.585 85.427 214.585Z" fill="#5ECADA"/>
<path d="M85.427 198.53H76.3745C76.1926 198.53 76.0449 198.383 76.0449 198.201C76.0449 198.019 76.1926 197.871 76.3745 197.871H85.427C85.609 197.871 85.7566 198.019 85.7566 198.201C85.7566 198.383 85.6096 198.53 85.427 198.53Z" fill="#5ECADA"/>
<path opacity="0.69" d="M100.331 198.53H91.2788C91.0969 198.53 90.9492 198.383 90.9492 198.201C90.9492 198.019 91.0969 197.871 91.2788 197.871H100.331C100.513 197.871 100.66 198.019 100.66 198.201C100.66 198.383 100.513 198.53 100.331 198.53Z" fill="#263238"/>
<path opacity="0.69" d="M56.3487 191.086H27.271C27.0891 191.086 26.9414 190.938 26.9414 190.756C26.9414 190.574 27.0891 190.427 27.271 190.427H56.3487C56.5307 190.427 56.6783 190.574 56.6783 190.756C56.6783 190.938 56.5307 191.086 56.3487 191.086Z" fill="#263238"/>
<path d="M74.4545 191.086H61.6987C61.5168 191.086 61.3691 190.938 61.3691 190.756C61.3691 190.574 61.5168 190.427 61.6987 190.427H74.4545C74.6365 190.427 74.7841 190.574 74.7841 190.756C74.7841 190.938 74.6365 191.086 74.4545 191.086Z" fill="#44A6D1"/>
<path opacity="0.69" d="M74.4542 206.532H45.3765C45.1945 206.532 45.0469 206.385 45.0469 206.203C45.0469 206.021 45.1945 205.873 45.3765 205.873H74.4542C74.6361 205.873 74.7838 206.021 74.7838 206.203C74.7838 206.385 74.6361 206.532 74.4542 206.532Z" fill="#263238"/>
<path d="M40.0268 206.532H27.271C27.0891 206.532 26.9414 206.385 26.9414 206.203C26.9414 206.021 27.0891 205.873 27.271 205.873H40.0268C40.2087 205.873 40.3564 206.021 40.3564 206.203C40.3564 206.385 40.2094 206.532 40.0268 206.532Z" fill="#44A6D1"/>
<path d="M70.8876 224.938H27.271C27.0891 224.938 26.9414 224.79 26.9414 224.608C26.9414 224.426 27.0891 224.278 27.271 224.278H70.8876C71.0695 224.278 71.2172 224.426 71.2172 224.608C71.2172 224.79 71.0695 224.938 70.8876 224.938Z" fill="#44A6D1"/>
<path opacity="0.69" d="M85.427 224.938H76.3745C76.1926 224.938 76.0449 224.79 76.0449 224.608C76.0449 224.426 76.1926 224.278 76.3745 224.278H85.427C85.609 224.278 85.7566 224.426 85.7566 224.608C85.7566 224.79 85.6096 224.938 85.427 224.938Z" fill="#263238"/>
<path d="M70.8876 239.594H27.271C27.0891 239.594 26.9414 239.446 26.9414 239.264C26.9414 239.082 27.0891 238.935 27.271 238.935H70.8876C71.0695 238.935 71.2172 239.082 71.2172 239.264C71.2172 239.446 71.0695 239.594 70.8876 239.594Z" fill="#5ECADA"/>
<path d="M85.427 239.594H76.3745C76.1926 239.594 76.0449 239.446 76.0449 239.264C76.0449 239.082 76.1926 238.935 76.3745 238.935H85.427C85.609 238.935 85.7566 239.082 85.7566 239.264C85.7566 239.446 85.6096 239.594 85.427 239.594Z" fill="#5ECADA"/>
<path opacity="0.69" d="M100.331 239.594H91.2788C91.0969 239.594 90.9492 239.446 90.9492 239.264C90.9492 239.082 91.0969 238.935 91.2788 238.935H100.331C100.513 238.935 100.66 239.082 100.66 239.264C100.66 239.446 100.513 239.594 100.331 239.594Z" fill="#263238"/>
<path opacity="0.69" d="M56.3487 232.148H27.271C27.0891 232.148 26.9414 232.001 26.9414 231.819C26.9414 231.637 27.0891 231.489 27.271 231.489H56.3487C56.5307 231.489 56.6783 231.637 56.6783 231.819C56.6783 232.001 56.5307 232.148 56.3487 232.148Z" fill="#263238"/>
<path d="M74.4545 232.148H61.6987C61.5168 232.148 61.3691 232.001 61.3691 231.819C61.3691 231.637 61.5168 231.489 61.6987 231.489H74.4545C74.6365 231.489 74.7841 231.637 74.7841 231.819C74.7841 232.001 74.6365 232.148 74.4545 232.148Z" fill="#44A6D1"/>
<path opacity="0.69" d="M74.4542 247.595H45.3765C45.1945 247.595 45.0469 247.447 45.0469 247.265C45.0469 247.083 45.1945 246.936 45.3765 246.936H74.4542C74.6361 246.936 74.7838 247.083 74.7838 247.265C74.7838 247.447 74.6361 247.595 74.4542 247.595Z" fill="#263238"/>
<path d="M40.0268 247.595H27.271C27.0891 247.595 26.9414 247.447 26.9414 247.265C26.9414 247.083 27.0891 246.936 27.271 246.936H40.0268C40.2087 246.936 40.3564 247.083 40.3564 247.265C40.3564 247.447 40.2094 247.595 40.0268 247.595Z" fill="#44A6D1"/>
<path d="M72.8755 260.577H133.21C134.894 260.577 136.26 259.211 136.26 257.527V234.067C136.26 232.383 134.894 231.018 133.21 231.018H72.8755C71.1913 231.018 69.8262 232.383 69.8262 234.067V257.527C69.8262 259.211 71.1913 260.577 72.8755 260.577Z" fill="#B3DDEE"/>
<path d="M120.682 245.92H99.6733C99.4914 245.92 99.3438 245.772 99.3438 245.59C99.3438 245.408 99.4914 245.261 99.6733 245.261H120.682C120.864 245.261 121.012 245.408 121.012 245.59C121.012 245.772 120.864 245.92 120.682 245.92Z" fill="#F7F9FF"/>
<path d="M106.323 239.291H85.314C85.132 239.291 84.9844 239.143 84.9844 238.961C84.9844 238.779 85.132 238.632 85.314 238.632H106.323C106.505 238.632 106.652 238.779 106.652 238.961C106.652 239.143 106.505 239.291 106.323 239.291Z" fill="#F7F9FF"/>
<path d="M126.204 239.291H112.414C112.232 239.291 112.084 239.143 112.084 238.961C112.084 238.779 112.232 238.632 112.414 238.632H126.204C126.386 238.632 126.534 238.779 126.534 238.961C126.534 239.143 126.386 239.291 126.204 239.291Z" fill="#6FE2E1"/>
<path d="M106.323 252.272H85.314C85.132 252.272 84.9844 252.125 84.9844 251.943C84.9844 251.761 85.132 251.613 85.314 251.613H106.323C106.505 251.613 106.652 251.761 106.652 251.943C106.652 252.125 106.505 252.272 106.323 252.272Z" fill="#F7F9FF"/>
<path d="M121.498 252.272H112.414C112.232 252.272 112.084 252.125 112.084 251.943C112.084 251.761 112.232 251.613 112.414 251.613H121.498C121.68 251.613 121.827 251.761 121.827 251.943C121.827 252.125 121.68 252.272 121.498 252.272Z" fill="#6FE2E1"/>
<path d="M93.2142 245.92H84.7358C84.5539 245.92 84.4062 245.772 84.4062 245.59C84.4062 245.408 84.5539 245.261 84.7358 245.261H93.2142C93.3961 245.261 93.5438 245.408 93.5438 245.59C93.5438 245.772 93.3961 245.92 93.2142 245.92Z" fill="#6FE2E1"/>
<path d="M77.0294 238.102C76.945 238.102 76.8606 238.07 76.796 238.006L73.7566 234.967C73.628 234.838 73.628 234.629 73.7566 234.501C73.8851 234.372 74.0941 234.372 74.2226 234.501L77.2621 237.54C77.3906 237.669 77.3906 237.878 77.2621 238.006C77.1981 238.07 77.1138 238.102 77.0294 238.102Z" fill="#F7F9FF"/>
<path d="M73.9899 238.102C73.9055 238.102 73.8212 238.07 73.7566 238.006C73.628 237.878 73.628 237.669 73.7566 237.54L76.796 234.501C76.9246 234.372 77.1335 234.372 77.2621 234.501C77.3906 234.629 77.3906 234.838 77.2621 234.967L74.2226 238.006C74.1587 238.07 74.0743 238.102 73.9899 238.102Z" fill="#F7F9FF"/>
<path d="M226.89 94.4675H162.605C160.964 94.4675 159.635 93.3436 159.635 91.9573V49.7303V44.9789C159.635 43.5927 160.964 42.4688 162.605 42.4688H226.89C228.53 42.4688 229.86 43.5927 229.86 44.9789V91.9573C229.859 93.3436 228.53 94.4675 226.89 94.4675Z" fill="#F7F9FF"/>
<path d="M226.889 94.7965H162.605C160.785 94.7965 159.305 93.5658 159.305 92.0523V51.5523L230.19 51.2432V92.0523C230.19 93.5658 228.709 94.7965 226.889 94.7965ZM159.964 52.2095V92.053C159.964 93.2026 161.149 94.138 162.605 94.138H226.889C228.345 94.138 229.53 93.2026 229.53 92.053V51.9056L159.964 52.2095Z" fill="#263238"/>
<path d="M159.254 52.193V44.9354C159.254 43.5729 160.596 42.4688 162.252 42.4688H227.137C228.793 42.4688 230.135 43.5729 230.135 44.9354V51.8759" fill="#5ECADA"/>
<path d="M164.701 48.9126C163.911 48.9126 163.268 48.2462 163.268 47.4275C163.268 46.6082 163.911 45.9424 164.701 45.9424C165.492 45.9424 166.135 46.6088 166.135 47.4275C166.135 48.2469 165.492 48.9126 164.701 48.9126ZM164.701 46.6016C164.274 46.6016 163.927 46.9727 163.927 47.4275C163.927 47.8823 164.274 48.2535 164.701 48.2535C165.128 48.2535 165.476 47.883 165.476 47.4275C165.476 46.972 165.128 46.6016 164.701 46.6016Z" fill="#F7F9FF"/>
<path d="M168.844 48.9126C168.054 48.9126 167.41 48.2462 167.41 47.4275C167.41 46.6082 168.054 45.9424 168.844 45.9424C169.634 45.9424 170.278 46.6088 170.278 47.4275C170.278 48.2469 169.635 48.9126 168.844 48.9126ZM168.844 46.6016C168.417 46.6016 168.069 46.9727 168.069 47.4275C168.069 47.8823 168.417 48.2535 168.844 48.2535C169.27 48.2535 169.618 47.883 169.618 47.4275C169.618 46.972 169.271 46.6016 168.844 46.6016Z" fill="#F7F9FF"/>
<path d="M172.908 48.9126C172.118 48.9126 171.475 48.2462 171.475 47.4275C171.475 46.6082 172.118 45.9424 172.908 45.9424C173.699 45.9424 174.342 46.6088 174.342 47.4275C174.342 48.2469 173.699 48.9126 172.908 48.9126ZM172.908 46.6016C172.482 46.6016 172.134 46.9727 172.134 47.4275C172.134 47.8823 172.481 48.2535 172.908 48.2535C173.335 48.2535 173.683 47.883 173.683 47.4275C173.683 46.972 173.335 46.6016 172.908 46.6016Z" fill="#F7F9FF"/>
<g opacity="0.31">
<path d="M224.697 91.2472H164.798C163.518 91.2472 162.477 90.2057 162.477 88.9256V55.6957C162.477 54.4155 163.518 53.374 164.798 53.374H224.697C225.977 53.374 227.019 54.4155 227.019 55.6957V88.9256C227.019 90.2057 225.977 91.2472 224.697 91.2472ZM164.798 54.0332C163.881 54.0332 163.136 54.7787 163.136 55.6957V88.9256C163.136 89.8425 163.882 90.588 164.798 90.588H224.697C225.614 90.588 226.36 89.8425 226.36 88.9256V55.6957C226.36 54.7787 225.613 54.0332 224.697 54.0332H164.798Z" fill="#263238"/>
<path opacity="0.69" d="M186.21 85.7945H169.711V66.9268H186.21V85.7945ZM170.37 85.1353H185.55V67.5859H170.37V85.1353Z" fill="#263238"/>
<path d="M185.879 65.3554H170.039V58.9297H170.403H185.879V65.3554Z" fill="#5ECADA"/>
<path d="M194.227 73.6465V58.9297H219.574V59.2678V73.6465H194.227Z" fill="#5ECADA"/>
<path d="M185.805 65.3554H169.965V58.9297H170.329H185.805V65.3554Z" fill="#A4EBEB" fill-opacity="0.29"/>
<path d="M194.148 73.6465V58.9297H219.496V59.2678V73.6465H194.148Z" fill="#A4EBEB" fill-opacity="0.29"/>
<path opacity="0.69" d="M219.903 86.631H193.896V77.6807H219.903V86.631ZM194.556 85.9718H219.244V78.3398H194.556V85.9718Z" fill="#263238"/>
</g>
<path d="M185.801 65.3554H169.961V58.9297H170.325H185.801V65.3554Z" fill="#A4EBEB" fill-opacity="0.29"/>
<path d="M194.146 73.6465V58.9297H219.494V59.2678V73.6465H194.146Z" fill="#A4EBEB" fill-opacity="0.29"/>
<path d="M199.287 68.0181C198.142 68.0181 197.211 67.0866 197.211 65.9416C197.211 64.7967 198.142 63.8652 199.287 63.8652C200.432 63.8652 201.364 64.7967 201.364 65.9416C201.364 67.0866 200.432 68.0181 199.287 68.0181ZM199.287 64.359C198.415 64.359 197.705 65.0689 197.705 65.941C197.705 66.8137 198.415 67.523 199.287 67.523C200.16 67.523 200.87 66.8131 200.87 65.941C200.87 65.0689 200.16 64.359 199.287 64.359Z" fill="#F7F9FF"/>
<path d="M206.926 68.0181C205.781 68.0181 204.85 67.0866 204.85 65.9416C204.85 64.7967 205.781 63.8652 206.926 63.8652C208.071 63.8652 209.002 64.7967 209.002 65.9416C209.002 67.0866 208.071 68.0181 206.926 68.0181ZM206.926 64.359C206.054 64.359 205.344 65.0689 205.344 65.941C205.344 66.8137 206.054 67.523 206.926 67.523C207.798 67.523 208.508 66.8131 208.508 65.941C208.508 65.0689 207.798 64.359 206.926 64.359Z" fill="#F7F9FF"/>
<path d="M214.356 68.0181C213.211 68.0181 212.279 67.0866 212.279 65.9416C212.279 64.7967 213.211 63.8652 214.356 63.8652C215.501 63.8652 216.432 64.7967 216.432 65.9416C216.433 67.0866 215.501 68.0181 214.356 68.0181ZM214.356 64.359C213.484 64.359 212.774 65.0689 212.774 65.941C212.774 66.8137 213.484 67.523 214.356 67.523C215.228 67.523 215.938 66.8131 215.938 65.941C215.938 65.0689 215.228 64.359 214.356 64.359Z" fill="#F7F9FF"/>
<path d="M129.229 212.459L127.085 214.852L114.946 228.828C114.142 229.754 112.621 229.19 112.614 227.965L112.432 197.205C112.427 196.384 113.097 195.718 113.919 195.73L128.323 195.486L129.229 212.459Z" fill="#44A6D1"/>
<path d="M114.815 197.205C114.81 196.384 115.48 195.718 116.302 195.73L128.325 195.527L128.323 195.486L113.919 195.73C113.097 195.718 112.426 196.383 112.432 197.205L112.614 227.965C112.622 229.19 114.143 229.754 114.946 228.828L115.164 228.578C115.068 228.398 114.999 228.198 114.997 227.965L114.815 197.205Z" fill="#263238"/>
<path d="M115.08 224.692C114.9 224.692 114.752 224.546 114.75 224.366L114.436 195.745C114.434 195.563 114.58 195.413 114.761 195.411C114.763 195.411 114.764 195.411 114.765 195.411C114.945 195.411 115.093 195.557 115.095 195.737L115.409 224.358C115.411 224.54 115.265 224.69 115.084 224.692C115.082 224.692 115.081 224.692 115.08 224.692Z" fill="#F7F9FF"/>
<path d="M121.865 204.971C121.707 204.971 121.546 204.957 121.384 204.93C119.826 204.666 118.772 203.183 119.037 201.623C119.165 200.868 119.579 200.209 120.203 199.765C120.828 199.321 121.586 199.149 122.343 199.276C123.902 199.54 124.955 201.023 124.692 202.583C124.454 203.98 123.238 204.971 121.865 204.971ZM121.859 199.895C121.405 199.895 120.963 200.035 120.584 200.303C120.104 200.644 119.785 201.153 119.687 201.734C119.483 202.935 120.294 204.077 121.495 204.28C122.691 204.485 123.838 203.673 124.041 202.472C124.139 201.891 124.005 201.305 123.664 200.825C123.322 200.344 122.814 200.025 122.232 199.926C122.108 199.905 121.983 199.895 121.859 199.895Z" fill="#F7F9FF"/>
<path d="M127.085 215.181C127.008 215.181 126.93 215.154 126.868 215.099L124.007 212.58C123.87 212.459 123.856 212.252 123.977 212.115C124.098 211.979 124.306 211.964 124.442 212.085L127.303 214.604C127.44 214.725 127.453 214.932 127.332 215.069C127.267 215.143 127.176 215.181 127.085 215.181Z" fill="#F7F9FF"/>
<path d="M125.134 217.333C125.057 217.333 124.979 217.306 124.916 217.251L122.056 214.732C121.918 214.612 121.905 214.404 122.026 214.267C122.146 214.131 122.354 214.117 122.491 214.238L125.351 216.757C125.489 216.877 125.502 217.085 125.381 217.221C125.316 217.296 125.225 217.333 125.134 217.333Z" fill="#F7F9FF"/>
<path d="M123.213 219.361C123.136 219.361 123.058 219.334 122.995 219.279L120.134 216.76C119.997 216.64 119.983 216.432 120.104 216.296C120.224 216.159 120.432 216.145 120.569 216.266L123.43 218.785C123.567 218.905 123.58 219.113 123.46 219.249C123.395 219.323 123.304 219.361 123.213 219.361Z" fill="#F7F9FF"/>
<path d="M130.273 213.18C129.045 213.18 127.716 213.051 127.439 212.534C127.381 212.424 127.379 212.291 127.437 212.169C127.75 211.502 131.28 209.94 131.83 209.827C132.26 209.739 132.7 209.823 133.067 210.065C133.435 210.306 133.686 210.677 133.774 211.108C133.957 211.997 133.382 212.869 132.493 213.052C132.366 213.078 131.359 213.18 130.273 213.18ZM128.182 212.318C128.911 212.59 131.545 212.575 132.361 212.407C132.894 212.297 133.238 211.774 133.129 211.24C133.076 210.982 132.925 210.76 132.705 210.615C132.485 210.469 132.22 210.419 131.963 210.472C131.362 210.596 128.87 211.799 128.182 212.318Z" fill="#F7F9FF"/>
<path d="M129.982 217.732C129.855 217.732 129.725 217.717 129.597 217.686C129.17 217.584 128.807 217.321 128.577 216.947C128.392 216.647 126.904 212.596 127.568 212.173C127.664 212.11 127.831 212.048 128.073 212.104C129.067 212.332 131.044 214.672 131.383 215.222C131.613 215.597 131.684 216.039 131.582 216.467C131.48 216.895 131.217 217.257 130.843 217.488C130.579 217.649 130.283 217.732 129.982 217.732ZM128.027 212.769C128.093 213.543 128.808 216.064 129.139 216.601C129.277 216.826 129.494 216.983 129.75 217.045C130.011 217.107 130.272 217.063 130.497 216.925C130.961 216.64 131.106 216.031 130.821 215.567C130.391 214.867 128.671 213.026 128.027 212.769Z" fill="#F7F9FF"/>
<path d="M180.19 146.762L156.667 130.303C156.487 130.187 142.14 129.429 142.14 129.429C141.95 129.393 141.762 129.395 141.582 129.423L112.937 123.189L111.277 129.06C109.651 134.809 109.65 140.897 111.273 146.647L123.876 191.28L123.492 191.545C122.944 191.929 122.683 192.605 122.831 193.257L128.715 219.16C128.984 220.345 130.401 220.839 131.349 220.079L131.885 219.649L139.127 245.297C139.258 245.762 139.73 246.044 140.202 245.94L163.206 240.878C164.177 240.665 164.797 239.712 164.6 238.738L156.71 199.739L181.879 179.552C192.653 170.91 191.796 154.252 180.19 146.762ZM151.18 172.409L149.438 163.796L158.969 167.026L151.18 172.409Z" fill="#263238"/>
<path d="M157.327 203.13C157.173 203.13 157.034 203.02 157.004 202.863L146.293 147.311C146.259 147.132 146.375 146.96 146.555 146.925C146.731 146.892 146.906 147.006 146.941 147.186L157.652 202.737C157.686 202.916 157.57 203.089 157.391 203.124C157.369 203.128 157.348 203.13 157.327 203.13Z" fill="#F7F9FF"/>
<path d="M165.355 169.567C165.32 169.567 165.284 169.561 165.248 169.549L149.727 164.242C149.555 164.184 149.463 163.996 149.522 163.824C149.58 163.652 149.768 163.559 149.94 163.619L165.462 168.926C165.634 168.984 165.726 169.172 165.666 169.344C165.621 169.481 165.492 169.567 165.355 169.567Z" fill="#F7F9FF"/>
<path d="M158.935 241.868L161.652 243.581L177.461 253.215C178.508 253.852 178.206 255.447 176.999 255.658L146.702 260.978C145.893 261.12 145.125 260.57 144.998 259.758L142.352 245.598L158.935 241.868Z" fill="#44A6D1"/>
<path d="M177.46 253.214L176.911 252.879C176.723 253.129 176.454 253.325 176.091 253.389L145.795 258.709C145.422 258.774 145.06 258.688 144.764 258.501L144.998 259.757C145.124 260.57 145.893 261.119 146.702 260.977L176.999 255.657C178.206 255.446 178.506 253.852 177.46 253.214Z" fill="#263238"/>
<path d="M144.868 259.25C144.712 259.25 144.573 259.138 144.544 258.979C144.512 258.8 144.631 258.628 144.81 258.596L172.977 253.502C173.151 253.474 173.327 253.588 173.36 253.768C173.392 253.947 173.273 254.119 173.094 254.151L144.928 259.244C144.908 259.248 144.888 259.25 144.868 259.25Z" fill="#F7F9FF"/>
<path d="M149.958 253.728C148.377 253.728 147.09 252.441 147.09 250.86C147.09 249.279 148.377 247.992 149.958 247.992C151.539 247.992 152.825 249.278 152.825 250.86C152.825 252.441 151.539 253.728 149.958 253.728ZM149.958 248.652C148.74 248.652 147.749 249.643 147.749 250.86C147.749 252.078 148.74 253.069 149.958 253.069C151.175 253.069 152.166 252.078 152.166 250.86C152.166 249.643 151.175 248.652 149.958 248.652Z" fill="#F7F9FF"/>
<path d="M159.646 247.153C159.587 247.153 159.527 247.137 159.473 247.104C159.318 247.008 159.27 246.805 159.366 246.65L161.372 243.408C161.467 243.253 161.671 243.206 161.825 243.301C161.98 243.397 162.028 243.6 161.932 243.755L159.926 246.997C159.864 247.098 159.756 247.153 159.646 247.153Z" fill="#F7F9FF"/>
<path d="M162.095 248.717C162.036 248.717 161.976 248.701 161.922 248.667C161.767 248.571 161.719 248.368 161.815 248.214L163.821 244.972C163.917 244.816 164.12 244.769 164.275 244.865C164.43 244.96 164.478 245.164 164.381 245.318L162.376 248.56C162.314 248.661 162.205 248.717 162.095 248.717Z" fill="#F7F9FF"/>
<path d="M164.416 250.271C164.356 250.271 164.296 250.255 164.242 250.222C164.087 250.126 164.039 249.923 164.136 249.768L166.141 246.527C166.236 246.372 166.439 246.323 166.595 246.42C166.75 246.515 166.798 246.718 166.702 246.873L164.696 250.115C164.634 250.216 164.526 250.271 164.416 250.271Z" fill="#F7F9FF"/>
<path d="M159.065 243.699C159.025 243.699 158.986 243.693 158.945 243.682C158.236 243.485 156.106 240.266 155.903 239.743C155.574 238.897 155.994 237.941 156.841 237.611C157.251 237.451 157.698 237.462 158.101 237.639C158.503 237.817 158.813 238.14 158.972 238.55C159.072 238.807 160.179 242.943 159.305 243.618C159.237 243.67 159.153 243.699 159.065 243.699ZM157.437 238.158C157.318 238.158 157.197 238.179 157.08 238.225C156.572 238.423 156.321 238.996 156.518 239.504C156.74 240.075 158.342 242.332 158.969 242.923C159.117 242.16 158.66 239.564 158.358 238.788C158.207 238.397 157.832 238.158 157.437 238.158Z" fill="#F7F9FF"/>
<path d="M159.245 243.652C159.102 243.652 158.993 243.621 158.93 243.552C158.853 243.467 158.764 243.314 158.779 243.066C158.837 242.049 160.814 239.707 161.3 239.282C161.983 238.685 163.025 238.752 163.624 239.436C164.222 240.119 164.153 241.161 163.47 241.759C163.236 241.964 160.302 243.651 159.245 243.652ZM162.385 239.533C162.153 239.533 161.922 239.614 161.735 239.777C161.117 240.318 159.588 242.321 159.443 242.999C160.195 242.805 162.561 241.678 163.035 241.263C163.234 241.089 163.352 240.848 163.37 240.585C163.387 240.322 163.302 240.068 163.128 239.869C162.933 239.647 162.66 239.533 162.385 239.533Z" fill="#F7F9FF"/>
<path d="M156.763 51.9762C156.371 51.3098 155.99 50.7047 155.636 50.1655C154.405 48.2914 152.851 46.3106 152.965 44.1959C153.684 30.8607 139.635 26.8397 129.28 29.4771C129.146 29.1146 128.988 28.7533 128.798 28.3974C127.104 25.2247 123.812 23.6776 121.444 24.9419C120.232 25.5893 119.501 26.849 119.3 28.3479C116.857 28.4132 114.751 29.5265 113.883 31.4836C112.707 34.1375 114.201 37.44 117.258 39.3701C115.665 40.7675 113.826 41.9527 111.642 43.101L111.107 43.3825C103.83 47.2084 102.266 56.1099 106.011 61.0254L107.088 62.4545C107.254 62.6754 107.429 62.8896 107.61 63.0979C108.272 63.8553 108.486 64.8045 108.163 65.6839C107.564 67.3167 107.287 69.0839 107.438 70.9553C108.001 77.915 114.394 83.8733 122.551 84.9741C128.208 85.7374 133.506 84.1462 137.18 81.106C141.571 77.472 146.592 74.4332 151.721 71.5637C155.914 69.2184 158.805 65.3154 159.205 60.6893C159.477 57.545 158.549 54.5371 156.763 51.9762Z" fill="#263238"/>
<path d="M152.67 57.1303L151.598 46.7383C149.765 43.9309 144.999 43.1992 143.226 41.1623C141.809 39.5348 141.245 39.2158 141.166 37.8223C140.485 44.7535 135.476 49.9347 129.963 49.4317L129.971 49.5089L128.171 49.5715C125.743 49.6559 123.827 51.7105 123.911 54.1376L123.914 54.2385C123.999 56.6656 126.053 58.5825 128.48 58.4981L129.843 58.4506L127.742 71.9427C127.273 76.0165 144.202 76.9413 144.671 72.8676L145.26 67.7477C149.947 66.5533 153.182 62.0854 152.67 57.1303Z" fill="#FFBE9D"/>
<path d="M127.866 55.5799C127.759 55.5799 127.653 55.5272 127.59 55.4303C127.491 55.278 127.534 55.0737 127.686 54.9741L128.805 54.2451L127.522 52.818C127.4 52.6822 127.411 52.4739 127.547 52.3519C127.682 52.2306 127.891 52.2412 128.013 52.377L129.553 54.0908C129.618 54.1627 129.647 54.2589 129.635 54.3539C129.622 54.4494 129.568 54.5345 129.488 54.5872L128.046 55.5265C127.991 55.5621 127.928 55.5799 127.866 55.5799Z" fill="#EB996E"/>
<path d="M152.334 51.3503C152.433 51.8123 152.138 52.2665 151.677 52.3654C151.215 52.4636 150.76 52.169 150.661 51.7069C150.563 51.2448 150.858 50.7906 151.319 50.6917C151.781 50.5935 152.236 50.8882 152.334 51.3503Z" fill="#263238"/>
<path d="M145.363 51.8414C145.34 52.3575 144.903 52.7577 144.387 52.7352C143.871 52.7122 143.47 52.2751 143.493 51.759C143.516 51.2429 143.953 50.8427 144.469 50.8652C144.986 50.8876 145.386 51.3246 145.363 51.8414Z" fill="#263238"/>
<path d="M143.882 55.4004C143.882 55.4004 143.638 58.4386 147.708 58.4306L143.882 55.4004Z" fill="#FFBE9D"/>
<path d="M147.693 58.7601C146.199 58.7601 145.077 58.3659 144.359 57.5894C143.464 56.621 143.549 55.4246 143.553 55.3739C143.567 55.1919 143.731 55.0574 143.907 55.0713C144.088 55.0858 144.223 55.244 144.21 55.4253C144.209 55.4391 144.15 56.3989 144.849 57.1484C145.439 57.7805 146.395 58.1009 147.693 58.1009C147.698 58.1009 147.703 58.1009 147.707 58.1009H147.708C147.889 58.1009 148.037 58.2479 148.038 58.4298C148.039 58.617 147.876 58.766 147.693 58.7601Z" fill="#EB996E"/>
<path d="M145.921 63.4373C145.883 63.4485 145.841 63.4472 145.802 63.4313C145.762 63.4149 144.807 63.0306 144.132 63.7919C144.066 63.8651 143.954 63.8717 143.88 63.8071C143.807 63.7418 143.8 63.6291 143.865 63.5559C144.714 62.6014 145.928 63.0985 145.94 63.1037C146.031 63.142 146.073 63.2461 146.035 63.3364C146.013 63.3865 145.971 63.4228 145.921 63.4373Z" fill="#EB996E"/>
<path d="M141.023 48.5187C141.36 48.5945 141.757 48.4785 142.146 48.3895C142.536 48.2913 142.931 48.2017 143.276 48.1364C143.622 48.0705 144.023 48.0092 144.422 47.9578C144.818 47.8985 145.231 47.8602 145.512 47.6671C145.785 47.4851 145.838 47.1022 145.402 46.7264C144.99 46.3586 144.038 46.0541 142.891 46.2683C141.748 46.4878 140.987 47.1173 140.751 47.6084C140.499 48.1153 140.698 48.4502 141.023 48.5187Z" fill="#263238"/>
<path d="M153.133 47.8264C152.902 47.9022 152.625 47.831 152.354 47.7803C152.082 47.7223 151.808 47.6715 151.568 47.6379C151.327 47.6036 151.05 47.5746 150.773 47.5542C150.498 47.5272 150.212 47.5173 150.013 47.3802C149.821 47.251 149.777 46.9537 150.069 46.6373C150.346 46.3281 150.998 46.0427 151.794 46.1547C152.589 46.2708 153.128 46.7269 153.301 47.1007C153.487 47.485 153.356 47.7572 153.133 47.8264Z" fill="#263238"/>
<path d="M143.496 52.8129C143.496 52.8129 144.313 52.1866 145.145 52.8775L143.496 52.8129Z" fill="#FFBE9D"/>
<path d="M145.145 53.2068C145.071 53.2068 144.996 53.1817 144.935 53.131C144.31 52.6135 143.72 53.0558 143.696 53.0749C143.551 53.1844 143.346 53.1587 143.234 53.0136C143.123 52.8693 143.15 52.6623 143.295 52.5516C143.649 52.28 144.537 51.9444 145.356 52.6241C145.496 52.7401 145.516 52.9477 145.399 53.0881C145.334 53.1666 145.24 53.2068 145.145 53.2068Z" fill="#EB996E"/>
<path d="M151.041 52.251C151.041 52.251 151.547 51.8885 152.015 52.3611L151.041 52.251Z" fill="#FFBE9D"/>
<path d="M152.015 52.691C151.93 52.691 151.845 52.6587 151.781 52.5934C151.537 52.3462 151.297 52.4767 151.229 52.5216C151.08 52.6231 150.875 52.5862 150.773 52.4378C150.67 52.2902 150.703 52.0885 150.849 51.9837C151.102 51.8017 151.72 51.5967 152.25 52.1293C152.378 52.2585 152.376 52.4675 152.247 52.5954C152.183 52.6593 152.099 52.691 152.015 52.691Z" fill="#EB996E"/>
<path d="M145.259 67.7598C145.259 67.7598 137.205 68.3768 135.608 65.3129C135.608 65.3129 135.432 70.4347 144.734 72.3147L145.259 67.7598Z" fill="#EB996E"/>
<path d="M148.383 48.9395L148.295 50.9262C148.263 51.6843 148.85 52.3257 149.608 52.3586C149.987 52.3751 150.281 52.6961 150.264 53.0751C150.21 54.3006 149.173 55.2511 147.947 55.1971L147.143 55.1621" fill="#FFBE9D"/>
<path d="M148.047 55.5287C148.009 55.5287 147.972 55.528 147.933 55.526L147.128 55.4911C146.946 55.4832 146.805 55.3289 146.813 55.1477C146.821 54.9664 146.979 54.8095 147.156 54.8332L147.962 54.8682C148.459 54.8926 148.95 54.7146 149.322 54.3731C149.695 54.0317 149.912 53.5656 149.934 53.0607C149.939 52.9651 149.905 52.8742 149.84 52.8036C149.776 52.7331 149.689 52.6922 149.593 52.6883C149.138 52.6685 148.718 52.4727 148.411 52.1372C148.103 51.8017 147.945 51.3666 147.966 50.9118L148.052 48.925C148.061 48.7437 148.214 48.5915 148.396 48.6099C148.577 48.6178 148.719 48.7721 148.711 48.9533L148.624 50.9401C148.611 51.2189 148.709 51.4853 148.897 51.6909C149.086 51.8966 149.343 52.0166 149.622 52.0291C149.892 52.0409 150.143 52.1576 150.326 52.358C150.509 52.5584 150.604 52.8181 150.592 53.089C150.562 53.77 150.27 54.3982 149.767 54.8583C149.294 55.2933 148.687 55.5287 148.047 55.5287Z" fill="#EB996E"/>
<path d="M127.703 60.3684C127.663 60.3684 127.622 60.3671 127.579 60.3644C127.05 60.3321 126.565 60.0955 126.214 59.698C125.862 59.3005 125.686 58.7903 125.719 58.2603C125.786 57.1674 126.748 56.3342 127.823 56.4001C128.353 56.4324 128.839 56.6691 129.19 57.0666C129.541 57.4641 129.717 57.9743 129.685 58.5042C129.62 59.5556 128.744 60.3684 127.703 60.3684ZM126.376 58.3012C126.355 58.6552 126.473 58.996 126.707 59.2616C126.942 59.5273 127.266 59.6855 127.62 59.7072C128.338 59.7494 128.982 59.1951 129.028 58.4647C129.049 58.1107 128.931 57.7699 128.697 57.5049C128.462 57.2393 128.137 57.0811 127.783 57.0593C127.034 57.0132 126.421 57.5708 126.376 58.3012Z" fill="#F7F9FF"/>
<path d="M193.681 77.7135L189.479 74.4803L192.203 67.1205C192.532 66.2313 192.187 65.2333 191.38 64.7363L191.29 64.6809C190.93 64.4601 190.459 64.5682 190.231 64.9235L183.653 77.0438L183.523 76.91L182.063 73.5376C181.767 72.8541 181.071 72.4329 180.328 72.4889L180.036 72.5106C179.522 72.5495 179.172 73.0472 179.308 73.5436L180.613 78.2864L181.146 81.7464C181.22 82.225 181.417 82.6389 181.695 82.9758L181.659 83.0272L170.047 99.744L160.573 87.5103L149.352 107.532L158.963 120.879C165.309 129.691 178.974 127.57 182.349 117.249L190.266 93.0401L195.029 83.6903C196.078 81.6337 195.511 79.1215 193.681 77.7135Z" fill="#FFBE9D"/>
<path d="M166.583 105.24C166.519 105.24 166.456 105.222 166.399 105.184C166.249 105.083 166.208 104.878 166.31 104.727L170.09 99.1026C170.192 98.951 170.399 98.9121 170.548 99.013C170.698 99.1145 170.739 99.3195 170.637 99.4704L166.857 105.095C166.793 105.189 166.689 105.24 166.583 105.24Z" fill="#EB996E"/>
<path d="M188.725 83.8196C188.547 83.8196 188.401 83.6792 188.396 83.5006C188.239 78.5304 183.767 77.4097 183.576 77.3643C183.399 77.3221 183.29 77.1448 183.331 76.9674C183.373 76.7908 183.549 76.682 183.727 76.7222C183.779 76.7347 188.881 77.9964 189.055 83.4795C189.061 83.6614 188.918 83.8137 188.736 83.819C188.732 83.8196 188.728 83.8196 188.725 83.8196Z" fill="#EB996E"/>
<path d="M190.032 73.7998L189.999 73.9356L187.881 81.6434C187.678 82.3823 188.034 83.1595 188.726 83.4884L189.188 83.7079C189.46 83.8371 189.784 83.7007 189.881 83.4153L192.366 76.1293C192.56 75.5124 192.268 74.8459 191.682 74.5717L190.032 73.7998Z" fill="#FFBE9D"/>
<path d="M189.404 84.0866C189.281 84.0866 189.16 84.0595 189.047 84.0062L188.584 83.7867C187.747 83.3885 187.317 82.4505 187.563 81.556L189.808 73.3301L191.822 74.274C192.555 74.6168 192.924 75.4572 192.681 76.2291L190.193 83.5223C190.117 83.7471 189.947 83.929 189.729 84.0213C189.625 84.0648 189.515 84.0866 189.404 84.0866ZM190.25 74.2655L188.199 81.7307C188.038 82.3167 188.319 82.9304 188.868 83.1914L189.33 83.4109C189.391 83.4393 189.445 83.4248 189.472 83.4142C189.499 83.403 189.547 83.374 189.569 83.3101L192.054 76.0241C192.197 75.5739 191.978 75.0756 191.543 74.8719L190.25 74.2655Z" fill="#EB996E"/>
<path d="M192.595 75.3877L192.564 75.5096L190.662 82.433C190.48 83.0968 190.8 83.7949 191.421 84.0902L191.837 84.2873C192.081 84.4033 192.372 84.2807 192.459 84.0249L194.691 77.4812C194.866 76.9269 194.603 76.329 194.077 76.0825L192.595 75.3877Z" fill="#FFBE9D"/>
<path d="M192.03 84.661C191.916 84.661 191.8 84.6353 191.695 84.5852L191.279 84.3881C190.513 84.0235 190.119 83.1646 190.344 82.3459L192.371 74.9189L194.216 75.7838C194.89 76.0989 195.229 76.8714 195.005 77.5807L192.771 84.1316C192.698 84.3426 192.539 84.5133 192.334 84.5997C192.237 84.6405 192.134 84.661 192.03 84.661ZM192.812 75.853L190.981 82.5199C190.84 83.0301 191.086 83.5654 191.564 83.7922L191.979 83.9893C192.022 84.0104 192.061 83.9991 192.078 83.9912C192.098 83.9833 192.132 83.9629 192.148 83.9174L194.379 77.3737C194.502 76.9861 194.312 76.555 193.937 76.3797L192.812 75.853Z" fill="#EB996E"/>
<path d="M194.675 76.5898L194.647 76.7006L192.923 82.9733C192.758 83.5745 193.048 84.2073 193.611 84.475L193.986 84.6536C194.208 84.7591 194.472 84.6477 194.551 84.4156L196.573 78.4863C196.731 77.984 196.493 77.4422 196.017 77.2187L194.675 76.5898Z" fill="#FFBE9D"/>
<path d="M194.163 85.0233C194.054 85.0233 193.946 84.9996 193.845 84.9515L193.47 84.7728C192.761 84.436 192.397 83.6423 192.605 82.8856L194.451 76.1211L196.157 76.92C196.781 77.212 197.095 77.9279 196.888 78.5851L194.863 84.5217C194.795 84.7214 194.644 84.8822 194.45 84.964C194.358 85.0035 194.261 85.0233 194.163 85.0233ZM194.891 77.0551L193.242 83.0609C193.118 83.5085 193.334 83.9785 193.753 84.1776L194.129 84.3562C194.209 84.3516 194.23 84.3378 194.239 84.3094L196.261 78.3801C196.367 78.0439 196.203 77.6702 195.877 77.5172L194.891 77.0551Z" fill="#EB996E"/>
<path d="M162.064 85.7855L151.486 76.4791C149.116 74.3764 146.092 73.1569 142.926 73.0257L129.545 72.474L129.034 72.416C128.588 72.3652 128.146 72.3402 127.707 72.327L127.703 72.3145L127.461 72.3191C127.107 72.3145 126.754 72.3204 126.405 72.3395L117.461 72.5096C111.046 73.0554 105.717 77.6782 104.269 83.951L101.929 95.7061C101.741 96.6547 102.387 97.5676 103.344 97.7041L111.622 98.8853L111.484 127.935L157.433 130.341C159.008 130.424 160.099 128.792 159.421 127.367L150.153 107.913L162.633 91.3905C163.94 89.6627 163.692 87.2179 162.064 85.7855Z" fill="#0149B8"/>
<path d="M105.284 161.149C105.417 160.833 105.526 160.507 105.609 160.168L125.072 101.042L106.266 98.1211L93.1798 157.087L88.8015 156.598C85.9282 156.277 83.4141 158.526 83.4141 161.418V161.706V167.839C83.4141 168.282 83.7727 168.64 84.215 168.64C85.6032 168.64 86.7291 167.514 86.7291 166.126V167.839C86.7291 168.281 87.0877 168.639 87.53 168.639C88.9182 168.639 90.0441 167.514 90.0441 166.125V167.838C90.0441 168.28 90.4027 168.639 90.845 168.639C92.2088 168.639 93.313 167.551 93.3519 166.197C93.7757 166.522 94.2991 166.723 94.8746 166.723H97.0354C98.2693 166.723 99.3333 166.04 99.9041 165.04C102.307 164.844 104.35 163.319 105.27 161.175L105.273 161.176L105.284 161.149Z" fill="#FFBE9D"/>
<path d="M86.7296 166.838C86.5932 166.838 86.4824 166.727 86.4824 166.591V161.419C86.4824 161.283 86.5932 161.172 86.7296 161.172C86.8661 161.172 86.9768 161.283 86.9768 161.419V166.591C86.9768 166.727 86.8661 166.838 86.7296 166.838Z" fill="#EB996E"/>
<path d="M90.0441 166.838C89.9076 166.838 89.7969 166.727 89.7969 166.591V161.419C89.7969 161.283 89.9076 161.172 90.0441 161.172C90.1805 161.172 90.2913 161.283 90.2913 161.419V166.591C90.2913 166.727 90.1805 166.838 90.0441 166.838Z" fill="#EB996E"/>
<path d="M127.404 101.735C127.283 101.735 127.161 101.725 127.039 101.705L122.062 100.878C121.883 100.849 121.762 100.679 121.792 100.499C121.822 100.32 121.995 100.197 122.171 100.228L127.147 101.055C127.996 101.197 128.812 100.623 128.968 99.7761L131.325 86.9696C131.358 86.7903 131.526 86.6703 131.709 86.7053C131.888 86.7382 132.006 86.9103 131.973 87.0889L129.617 99.8955C129.419 100.971 128.466 101.735 127.404 101.735Z" fill="#F7F9FF"/>
<path d="M150.156 108.243C150.112 108.243 150.067 108.234 150.024 108.216C149.857 108.142 149.782 107.948 149.855 107.781L151.955 102.997C153.467 99.5527 153.564 95.7195 152.231 92.2035L149.719 85.5787C149.654 85.4087 149.74 85.2182 149.91 85.1536C150.083 85.0883 150.271 85.1753 150.336 85.3447L152.848 91.9695C154.243 95.6484 154.141 99.6588 152.559 103.262L150.459 108.046C150.404 108.169 150.283 108.243 150.156 108.243Z" fill="#F7F9FF"/>
<path d="M144.626 73.5317C144.62 73.5317 144.614 73.5317 144.608 73.5317L127.687 72.6444C127.506 72.6345 127.366 72.4796 127.375 72.2977C127.385 72.1164 127.543 71.9754 127.722 71.9859L144.643 72.8732C144.824 72.883 144.964 73.038 144.954 73.2199C144.945 73.3952 144.8 73.5317 144.626 73.5317Z" fill="#F7F9FF"/>
</svg>
